<svg width="26" height="26" viewBox="0 0 26 26" fill="none" xmlns="http://www.w3.org/2000/svg">
<path d="M25.5873 13.0109C25.3872 12.7963 25.1293 12.6441 24.8447 12.5727C24.5601 12.5013 24.2609 12.5137 23.9832 12.6084C23.7054 12.7031 23.461 12.876 23.2793 13.1064C23.0976 13.3368 22.9863 13.6148 22.959 13.907C21.5285 26.135 4.1175 25.8518 3.01202 13.6191C2.83459 11.0184 3.68345 8.45171 5.37652 6.4696C7.06959 4.4875 9.47203 3.24784 12.0685 3.01653C12.463 2.97858 12.8269 2.7872 13.0817 2.4836C13.3365 2.18 13.4619 1.78847 13.4309 1.39333C13.3998 0.998184 13.2148 0.631041 12.9157 0.370962C12.6166 0.110883 12.2273 -0.0213259 11.8317 0.00280713C-0.461815 0.861748 -4.59959 18.2031 6.30943 24.3238C10.4895 26.4652 15.2169 26.6277 19.2855 24.3888C21.1545 23.3602 22.7419 21.8878 23.908 20.1014C25.0741 18.3149 25.7832 16.2692 25.9727 14.1442C25.99 13.939 25.9647 13.7323 25.8984 13.5373C25.8321 13.3423 25.7262 13.1631 25.5873 13.0109Z" fill="white"/>
<path d="M4.84644 13.0017C4.84877 15.1565 5.7058 17.2224 7.22949 18.7461C8.75317 20.2698 10.8191 21.1268 12.9739 21.1291C23.7575 20.6834 23.7529 5.31999 12.9739 4.87427C10.8191 4.8766 8.75317 5.73363 7.22949 7.25732C5.7058 8.781 4.84877 10.8469 4.84644 13.0017ZM13.4382 7.4288V11.6919C13.6324 11.7623 13.8087 11.8746 13.9547 12.0207C14.1008 12.1668 14.2129 12.3432 14.2832 12.5374H17.2138C17.337 12.5374 17.4551 12.5864 17.5423 12.6735C17.6294 12.7606 17.6783 12.8787 17.6783 13.0019C17.6783 13.1251 17.6294 13.2433 17.5423 13.3304C17.4551 13.4175 17.337 13.4665 17.2138 13.4665H14.2836C14.2055 13.6882 14.0725 13.8866 13.897 14.043C13.7214 14.1994 13.5091 14.3088 13.2798 14.3609C13.0505 14.413 12.8118 14.4061 12.5858 14.3409C12.3599 14.2757 12.1542 14.1543 11.988 13.9881C11.8217 13.8218 11.7003 13.6161 11.6351 13.3902C11.5699 13.1643 11.563 12.9255 11.6151 12.6963C11.6672 12.467 11.7766 12.2546 11.933 12.0791C12.0894 11.9035 12.2878 11.7705 12.5096 11.6924V7.4288C12.5096 7.30567 12.5585 7.18757 12.6456 7.1005C12.7326 7.01343 12.8507 6.96451 12.9739 6.96451C13.097 6.96451 13.2151 7.01343 13.3022 7.1005C13.3893 7.18757 13.4382 7.30567 13.4382 7.4288Z" fill="white"/>
<path d="M12.9738 13.4659C13.097 13.4659 13.215 13.417 13.3021 13.33C13.3892 13.2429 13.4381 13.1248 13.4381 13.0016C13.4381 12.8785 13.3892 12.7604 13.3021 12.6733C13.215 12.5863 13.097 12.5374 12.9738 12.5374C12.8507 12.5374 12.7326 12.5863 12.6455 12.6733C12.5584 12.7604 12.5095 12.8785 12.5095 13.0016C12.5095 13.1248 12.5584 13.2429 12.6455 13.33C12.7326 13.417 12.8507 13.4659 12.9738 13.4659Z" fill="white"/>
</svg>
