<svg width="14" height="19" viewBox="0 0 14 19" fill="none" xmlns="http://www.w3.org/2000/svg">
<path d="M6.6698 0C3.03835 0 0.0839844 2.96266 0.0839844 6.60432C0.0839844 11.1814 6.6698 19 6.6698 19C6.6698 19 13.2556 10.9562 13.2556 6.60432C13.2556 2.96266 10.3013 0 6.6698 0Z" fill="#A6C8FA"/>
<path d="M6.66984 0V19C6.66984 19 13.2557 10.9562 13.2557 6.60432C13.2557 2.96266 10.3013 0 6.66984 0Z" fill="#B6D4FF"/>
<path d="M8.65678 8.53802C8.10892 9.08742 7.38935 9.3621 6.66978 9.3621C5.9502 9.3621 5.23045 9.08742 4.68273 8.53802C3.58704 7.43939 3.58704 5.65161 4.68273 4.55284C5.21339 4.02054 5.91908 3.72742 6.66978 3.72742C7.42047 3.72742 8.12598 4.02069 8.65678 4.55284C9.75251 5.65161 9.75251 7.43939 8.65678 8.53802Z" fill="#D6E7FF"/>
<path d="M8.65681 4.55284C8.126 4.02054 7.42045 3.72742 6.6698 3.72742V9.3621C7.38937 9.3621 8.10894 9.08742 8.65681 8.53802C9.75254 7.43939 9.75254 5.65161 8.65681 4.55284Z" fill="#E0ECFF"/>
</svg>
