<svg width="36" height="26" viewBox="0 0 36 26" fill="none" xmlns="http://www.w3.org/2000/svg">
<path fill-rule="evenodd" clip-rule="evenodd" d="M0.5 13C0.5 5.8203 6.3203 0 13.5 0H18.5C25.6797 0 31.5 5.8203 31.5 13C31.5 20.1797 25.6797 26 18.5 26H13.5C6.3203 26 0.5 20.1797 0.5 13ZM26.4753 0.619051C31.7106 2.29867 35.5 7.20681 35.5 13C35.5 18.7932 31.7106 23.7013 26.4753 25.3809C26.6239 25.3066 26.7704 25.2298 26.9149 25.1504C28.974 24.0188 30.6202 22.3726 31.7517 20.3135C32.8833 18.2545 33.5 15.7826 33.5 13C33.5 10.2174 32.8833 7.74554 31.7517 5.68648C30.6202 3.62743 28.974 1.98116 26.9149 0.849648C26.7704 0.770235 26.6239 0.693357 26.4753 0.619051ZM24 14.5H20.8989C18.7332 10.5697 17.6602 8.60308 17.68 8.60001C17.1874 9.20403 16.9274 10.206 16.9 11.606L21.5 19.7285C21.7761 20.2068 22.3877 20.3706 22.866 20.0945C23.3443 19.8183 23.5082 19.2068 23.2321 18.7285C22.7963 17.9396 22.3862 17.1967 22.0018 16.5H24C24.5523 16.5 25 16.0523 25 15.5C25 14.9477 24.5523 14.5 24 14.5ZM14.7113 7.9641L13.5 5.86603C13.2239 5.38773 13.3877 4.77614 13.866 4.5C14.3443 4.22386 14.9559 4.38773 15.232 4.86603L15.866 5.9641L16.5 4.86603C16.7761 4.38773 17.3877 4.22386 17.866 4.5C18.3443 4.77614 18.5082 5.38773 18.2321 5.86603L13.2472 14.5H17.6C17.8667 14.8333 18.0167 15.5 18.05 16.5H8C7.44772 16.5 7 16.0523 7 15.5C7 14.9477 7.44772 14.5 8 14.5H10.9378L14.7113 7.9641ZM10.2321 19.7224C10.6954 18.9133 11.0106 18.3675 11.1775 18.0849C11.2749 17.92 9.80119 17.1 9.40002 17.3513C9.25713 17.4407 8.95713 17.8978 8.5 18.7224C8.22386 19.2007 8.38773 19.8123 8.86603 20.0885C9.34432 20.3646 9.95591 20.2007 10.2321 19.7224Z" fill="#007AFF"/>
</svg>
