<svg width="43" height="43" viewBox="0 0 43 43" fill="none" xmlns="http://www.w3.org/2000/svg">
<path d="M29.6552 4.44843L16.5105 1.51998C16.1671 1.44504 15.8088 1.4814 15.4874 1.62377C15.1713 1.76596 14.9107 2.00826 14.746 2.31326C14.1816 4.58587 13.379 6.79258 12.3514 8.89671C10.4155 12.8366 7.73125 16.3619 4.44827 19.276H29.6552V4.44843Z" fill="#389BA3"/>
<path d="M29.6552 4.44843V19.276H11.3134C14.3083 16.3607 16.978 13.1292 19.2759 9.63809C20.6788 7.50311 21.9371 5.27645 23.0421 2.97309C25.244 3.4624 27.4533 3.95912 29.6552 4.44843ZM16.9702 1.62377C16.654 1.76596 16.3935 2.00826 16.2288 2.31326C15.6622 4.58521 14.8596 6.79169 13.8341 8.89671C11.8982 12.8365 9.21392 16.3618 5.93103 19.276H4.44827C7.73117 16.3618 10.4154 12.8365 12.3514 8.89671C13.3769 6.79169 14.1795 4.58521 14.746 2.31326C14.9107 2.00826 15.1713 1.76596 15.4874 1.62377C15.8088 1.4814 16.1671 1.44504 16.5105 1.51998C16.6662 1.55705 16.8145 1.58671 16.9702 1.62377Z" fill="#2A747A"/>
<path d="M10.3793 18.5346C12.4858 16.1063 14.2681 13.4149 15.6816 10.5277C16.3657 9.12863 16.96 7.68744 17.461 6.21286C17.5192 6.03937 17.6396 5.89356 17.7989 5.8035C17.9582 5.71344 18.1452 5.68549 18.3239 5.72503L24.788 7.16553C25.1165 7.23873 25.4103 7.42152 25.6212 7.68384C25.8321 7.94617 25.9474 8.27243 25.9483 8.60899V18.5346H10.3793Z" fill="#79C7D1"/>
<path d="M29.6552 13.3452V19.2762H4.44827C6.43334 17.5121 8.20495 15.5215 9.72689 13.3452H29.6552Z" fill="#2A747A"/>
<path d="M29.6552 13.3452V19.2762H11.3134C13.2162 17.4249 14.9874 15.4431 16.6143 13.3452H29.6552ZM11.2097 13.3452C9.68771 15.5215 7.9161 17.5121 5.93103 19.2762H4.44827C6.43334 17.5121 8.20495 15.5215 9.72689 13.3452H11.2097Z" fill="#20575C"/>
<path d="M25.9483 13.3452V18.5349H10.3793C11.7785 16.9158 13.0361 15.1795 14.1381 13.3452H25.9483Z" fill="#389BA3"/>
<path d="M25.9483 8.60753V18.5346H12.0622C14.7553 15.8152 17.1717 12.835 19.2758 9.63805C20.0024 8.53339 20.6647 7.44603 21.2627 6.37598L24.7917 7.16184C25.1199 7.23585 25.4132 7.41928 25.6233 7.682C25.8335 7.94471 25.9481 8.27109 25.9483 8.60753Z" fill="#389BA3"/>
<path d="M25.9483 13.3452V18.5349H12.0622C13.6841 16.8974 15.2067 15.1644 16.6217 13.3452H25.9483Z" fill="#2A747A"/>
<path d="M20.7586 16.3104C20.758 16.8858 20.6238 17.4532 20.3665 17.9678C20.1092 18.4824 19.7358 18.9302 19.2759 19.2759H14.8276C14.3221 18.8968 13.9219 18.3948 13.665 17.8175C13.4081 17.2402 13.3031 16.6068 13.3598 15.9775C13.4165 15.3482 13.6332 14.7438 13.9892 14.2218C14.3452 13.6998 14.8288 13.2774 15.3939 12.9949C15.9591 12.7123 16.5871 12.5789 17.2183 12.6073C17.8496 12.6357 18.4631 12.8249 19.0005 13.1571C19.538 13.4893 19.9817 13.9534 20.2894 14.5053C20.5971 15.0572 20.7586 15.6785 20.7586 16.3104Z" fill="#99D7EF"/>
<path d="M20.7586 16.3107C20.758 16.8861 20.6238 17.4535 20.3665 17.9681C20.1092 18.4827 19.7358 18.9306 19.2759 19.2762H14.8276C14.3672 18.931 13.9935 18.4832 13.7362 17.9685C13.4788 17.4538 13.3448 16.8862 13.3448 16.3107C13.3448 15.7353 13.4788 15.1677 13.7362 14.653C13.9935 14.1382 14.3672 13.6905 14.8276 13.3452H19.2759C19.7358 13.6909 20.1092 14.1387 20.3665 14.6533C20.6238 15.168 20.758 15.7354 20.7586 16.3107Z" fill="#79C7D1"/>
<path d="M20.7586 16.3108C20.7581 16.8862 20.6238 17.4536 20.3665 17.9682C20.1092 18.4828 19.7358 18.9306 19.2759 19.2763H14.8276C14.115 18.7438 13.6177 17.9728 13.4264 17.1041C14.7545 15.6731 16.0067 14.1734 17.1778 12.6113C18.1381 12.6425 19.0487 13.046 19.7169 13.7363C20.3852 14.4267 20.7588 15.35 20.7586 16.3108Z" fill="#79C7D1"/>
<path d="M20.7586 16.3107C20.7581 16.8861 20.6238 17.4535 20.3665 17.9681C20.1092 18.4827 19.7358 18.9306 19.2759 19.2762H14.8276C14.115 18.7438 13.6177 17.9728 13.4264 17.104C14.4866 15.9623 15.5541 14.7168 16.6217 13.3452H19.2685C19.7312 13.6888 20.1071 14.1359 20.3659 14.6509C20.6246 15.1659 20.7592 15.7344 20.7586 16.3107Z" fill="#389BA3"/>
<path d="M19.2759 11.1209C19.6853 11.1209 20.0172 10.789 20.0172 10.3796C20.0172 9.97011 19.6853 9.63818 19.2759 9.63818C18.8664 9.63818 18.5345 9.97011 18.5345 10.3796C18.5345 10.789 18.8664 11.1209 19.2759 11.1209Z" fill="#99D7EF"/>
<path d="M20.0173 10.3796C20.0177 10.5523 19.9578 10.7197 19.8479 10.853C19.738 10.9863 19.5851 11.077 19.4155 11.1095C19.2458 11.142 19.0702 11.1143 18.9188 11.0311C18.7675 10.9479 18.6499 10.8145 18.5864 10.6539C18.8236 10.3203 19.0461 9.98663 19.2759 9.63818C19.4725 9.63818 19.6611 9.71629 19.8001 9.85533C19.9391 9.99436 20.0173 10.1829 20.0173 10.3796Z" fill="#79C7D1"/>
<path d="M31.8793 21.5002C35.555 19.0231 38.6024 15.7231 40.7796 11.8623C41.5928 10.4001 42.2703 8.86643 42.8035 7.28056C42.9094 7.08871 42.9735 6.8767 42.9918 6.65836C43.0101 6.44003 42.982 6.2203 42.9096 6.01354C42.833 5.80599 42.7123 5.61755 42.5557 5.46125C42.3992 5.30495 42.2105 5.18453 42.0029 5.10831L28.1072 0.0884356C27.7822 -0.0267855 27.4279 -0.0294911 27.1012 0.0807532C26.7745 0.190997 26.4943 0.407799 26.3056 0.696367C24.9702 3.81268 23.3621 6.80491 21.5 9.63814C18.5981 14.0476 15.1059 18.0387 11.1207 21.5002H31.8793Z" fill="#389BA3"/>
<path d="M28.3504 0.177889C28.1225 0.30166 27.9289 0.479964 27.7869 0.696855C26.4529 3.81332 24.8452 6.80538 22.9828 9.63789C20.0804 14.0469 16.5882 18.038 12.6035 21.5H11.1207C15.1054 18.038 18.5976 14.0469 21.5 9.63789C23.3625 6.80538 24.9701 3.81332 26.3041 0.696855C26.4929 0.408287 26.7731 0.191486 27.0998 0.0812415C27.4265 -0.0290027 27.7807 -0.0262973 28.1057 0.0889238L28.3504 0.177889Z" fill="#2A747A"/>
<path d="M42.8065 7.2803C42.5841 7.94013 42.3172 8.62961 42.0058 9.34134C40.1036 6.54156 37.608 4.19512 34.6965 2.46875L42.0065 5.10806C42.2135 5.1849 42.4014 5.30548 42.5575 5.46158C42.7136 5.61767 42.8342 5.8056 42.911 6.01254C42.9822 6.2196 43.0096 6.43917 42.9916 6.65738C42.9736 6.87559 42.9106 7.08769 42.8065 7.2803Z" fill="#79C7D1"/>
<path d="M38.8631 14.8276C36.9261 17.4279 34.5652 19.6836 31.8793 21.5001H11.1207C13.4735 19.4549 15.6578 17.2236 17.6522 14.8276H38.8631Z" fill="#2A747A"/>
<path d="M19.135 14.8276C17.1405 17.2236 14.9563 19.4549 12.6035 21.5001H11.1207C13.4735 19.4549 15.6578 17.2236 17.6522 14.8276H19.135Z" fill="#20575C"/>
<path d="M18.5345 20.0175C21.105 17.615 23.4271 14.9599 25.4656 12.0922C26.8991 10.0747 28.1875 7.95794 29.3208 5.75782C29.4017 5.59981 29.537 5.47638 29.7017 5.4103C29.8664 5.34421 30.0495 5.33993 30.2171 5.39825L37.7362 7.97899C37.8388 8.01399 37.9325 8.07107 38.0107 8.1462C38.0889 8.22134 38.1496 8.31271 38.1886 8.41387C38.2276 8.51503 38.244 8.62351 38.2365 8.73168C38.2291 8.83984 38.198 8.94506 38.1454 9.0399C38.0298 9.25441 37.9104 9.46867 37.7874 9.68268C35.3873 13.7971 32.1032 17.3271 28.1724 20.0175H18.5345Z" fill="#79C7D1"/>
<path d="M34.0664 14.8276C32.3077 16.7783 30.33 18.5197 28.1724 20.0173H18.5345C20.2648 18.3976 21.8846 16.6639 23.3831 14.8276H34.0664Z" fill="#389BA3"/>
<path d="M32.6207 10.3797C33.0301 10.3797 33.3621 10.0478 33.3621 9.63835C33.3621 9.2289 33.0301 8.89697 32.6207 8.89697C32.2112 8.89697 31.8793 9.2289 31.8793 9.63835C31.8793 10.0478 32.2112 10.3797 32.6207 10.3797Z" fill="#99D7EF"/>
<path d="M28.2436 18.6062C30.2908 18.6062 31.9505 16.9465 31.9505 14.8993C31.9505 12.852 30.2908 11.1924 28.2436 11.1924C26.1963 11.1924 24.5367 12.852 24.5367 14.8993C24.5367 16.9465 26.1963 18.6062 28.2436 18.6062Z" fill="#99D7EF"/>
<path d="M31.9535 14.9018C31.9535 15.8849 31.5629 16.8278 30.8677 17.5229C30.1726 18.2181 29.2297 18.6087 28.2466 18.6087C27.2634 18.6087 26.3206 18.2181 25.6254 17.5229C24.9302 16.8278 24.5397 15.8849 24.5397 14.9018C24.5385 14.8768 24.541 14.8518 24.5471 14.8276H31.946C31.9522 14.8518 31.9547 14.8768 31.9535 14.9018Z" fill="#79C7D1"/>
<path d="M38.5517 16.3105H7.41379C4.95708 16.3105 2.96552 18.3021 2.96552 20.7588V38.5519C2.96552 41.0086 4.95708 43.0002 7.41379 43.0002H38.5517C41.0084 43.0002 43 41.0086 43 38.5519V20.7588C43 18.3021 41.0084 16.3105 38.5517 16.3105Z" fill="#F49F69"/>
<path d="M43 20.7588V27.4312C42.999 24.4821 41.8271 21.6541 39.7417 19.5688C37.6564 17.4835 34.8284 16.3115 31.8793 16.3105H38.5517C39.7315 16.3105 40.8629 16.7792 41.6971 17.6134C42.5313 18.4476 43 19.5791 43 20.7588Z" fill="#F7B68B"/>
<path d="M13.115 43.0005H7.41379C6.23404 43.0005 5.1026 42.5319 4.26839 41.6977C3.43417 40.8634 2.96552 39.732 2.96552 38.5523V33.5405C5.29556 37.6624 8.83966 40.9657 13.115 43.0005Z" fill="#D2824C"/>
<path d="M14.0862 28.1725V34.1036C14.0862 34.8901 13.7738 35.6444 13.2176 36.2005C12.6615 36.7567 11.9072 37.0691 11.1207 37.0691H2.96552V25.207H11.1207C11.9072 25.207 12.6615 25.5195 13.2176 26.0756C13.7738 26.6318 14.0862 27.386 14.0862 28.1725Z" fill="#9E6239"/>
<path d="M11.8621 23.7241H2.96552C1.32771 23.7241 0 25.0518 0 26.6896V32.6207C0 34.2585 1.32771 35.5862 2.96552 35.5862H11.8621C13.4999 35.5862 14.8276 34.2585 14.8276 32.6207V26.6896C14.8276 25.0518 13.4999 23.7241 11.8621 23.7241Z" fill="#D2824C"/>
<path d="M8.52588 31.509C9.34478 31.509 10.0086 30.8451 10.0086 30.0262C10.0086 29.2073 9.34478 28.5435 8.52588 28.5435C7.70697 28.5435 7.04312 29.2073 7.04312 30.0262C7.04312 30.8451 7.70697 31.509 8.52588 31.509Z" fill="#9E6239"/>
<path d="M8.89655 31.1384C9.71545 31.1384 10.3793 30.4745 10.3793 29.6556C10.3793 28.8367 9.71545 28.1729 8.89655 28.1729C8.07764 28.1729 7.41379 28.8367 7.41379 29.6556C7.41379 30.4745 8.07764 31.1384 8.89655 31.1384Z" fill="#FFBB63"/>
<path d="M33.7328 39.6644H29.2845C29.0879 39.6644 28.8993 39.5863 28.7603 39.4473C28.6212 39.3082 28.5431 39.1196 28.5431 38.923C28.5431 38.7264 28.6212 38.5378 28.7603 38.3988C28.8993 38.2597 29.0879 38.1816 29.2845 38.1816H33.7328C33.9294 38.1816 34.118 38.2597 34.257 38.3988C34.396 38.5378 34.4742 38.7264 34.4742 38.923C34.4742 39.1196 34.396 39.3082 34.257 39.4473C34.118 39.5863 33.9294 39.6644 33.7328 39.6644ZM38.1811 39.6644H36.6983C36.5017 39.6644 36.3131 39.5863 36.1741 39.4473C36.035 39.3082 35.9569 39.1196 35.9569 38.923C35.9569 38.7264 36.035 38.5378 36.1741 38.3988C36.3131 38.2597 36.5017 38.1816 36.6983 38.1816H38.1811C38.3777 38.1816 38.5663 38.2597 38.7053 38.3988C38.8443 38.5378 38.9224 38.7264 38.9224 38.923C38.9224 39.1196 38.8443 39.3082 38.7053 39.4473C38.5663 39.5863 38.3777 39.6644 38.1811 39.6644Z" fill="#D2824C"/>
<path d="M34.1034 39.2933H29.6552C29.4585 39.2933 29.27 39.2152 29.1309 39.0762C28.9919 38.9371 28.9138 38.7486 28.9138 38.5519C28.9138 38.3553 28.9919 38.1667 29.1309 38.0277C29.27 37.8887 29.4585 37.8105 29.6552 37.8105H34.1034C34.3001 37.8105 34.4886 37.8887 34.6277 38.0277C34.7667 38.1667 34.8448 38.3553 34.8448 38.5519C34.8448 38.7486 34.7667 38.9371 34.6277 39.0762C34.4886 39.2152 34.3001 39.2933 34.1034 39.2933ZM38.5517 39.2933H37.069C36.8723 39.2933 36.6838 39.2152 36.5447 39.0762C36.4057 38.9371 36.3276 38.7486 36.3276 38.5519C36.3276 38.3553 36.4057 38.1667 36.5447 38.0277C36.6838 37.8887 36.8723 37.8105 37.069 37.8105H38.5517C38.7483 37.8105 38.9369 37.8887 39.076 38.0277C39.215 38.1667 39.2931 38.3553 39.2931 38.5519C39.2931 38.7486 39.215 38.9371 39.076 39.0762C38.9369 39.2152 38.7483 39.2933 38.5517 39.2933Z" fill="#F4D19D"/>
</svg>
