<svg width="24" height="21" viewBox="0 0 24 21" fill="none" xmlns="http://www.w3.org/2000/svg">
<path d="M0 3.91061C0 2.87346 0.438987 1.87877 1.22039 1.14539C2.00179 0.41201 3.0616 0 4.16667 0H7.83333C8.05435 0 8.26631 0.082402 8.42259 0.229078C8.57887 0.375755 8.66667 0.574691 8.66667 0.782123C8.66667 0.989555 8.57887 1.18849 8.42259 1.33517C8.26631 1.48184 8.05435 1.56425 7.83333 1.56425H4.16667C3.50363 1.56425 2.86774 1.81145 2.3989 2.25148C1.93006 2.69151 1.66667 3.28832 1.66667 3.91061V7.35196C1.66667 7.55939 1.57887 7.75832 1.42259 7.905C1.26631 8.05168 1.05435 8.13408 0.833333 8.13408C0.61232 8.13408 0.400358 8.05168 0.244078 7.905C0.0877974 7.75832 0 7.55939 0 7.35196V3.91061ZM15.3333 0.782123C15.3333 0.350391 15.7067 0 16.1667 0H19.8333C20.9384 0 21.9982 0.41201 22.7796 1.14539C23.561 1.87877 24 2.87346 24 3.91061V7.35196C24 7.55939 23.9122 7.75832 23.7559 7.905C23.5996 8.05168 23.3877 8.13408 23.1667 8.13408C22.9457 8.13408 22.7337 8.05168 22.5774 7.905C22.4211 7.75832 22.3333 7.55939 22.3333 7.35196V3.91061C22.3333 3.28832 22.0699 2.69151 21.6011 2.25148C21.1323 1.81145 20.4964 1.56425 19.8333 1.56425H16.1667C15.7067 1.56425 15.3333 1.21385 15.3333 0.782123ZM0.833333 12.8659C1.29333 12.8659 1.66667 13.2163 1.66667 13.648V17.0894C1.66667 17.7117 1.93006 18.3085 2.3989 18.7485C2.86774 19.1885 3.50363 19.4358 4.16667 19.4358H7.83333C8.05435 19.4358 8.26631 19.5182 8.42259 19.6648C8.57887 19.8115 8.66667 20.0104 8.66667 20.2179C8.66667 20.4253 8.57887 20.6242 8.42259 20.7709C8.26631 20.9176 8.05435 21 7.83333 21H4.16667C3.0616 21 2.00179 20.588 1.22039 19.8546C0.438987 19.1212 0 18.1265 0 17.0894V13.648C0 13.2163 0.373333 12.8659 0.833333 12.8659ZM23.1667 12.8659C23.6267 12.8659 24 13.2163 24 13.648V17.0894C24 18.1265 23.561 19.1212 22.7796 19.8546C21.9982 20.588 20.9384 21 19.8333 21H16.1667C15.9457 21 15.7337 20.9176 15.5774 20.7709C15.4211 20.6242 15.3333 20.4253 15.3333 20.2179C15.3333 20.0104 15.4211 19.8115 15.5774 19.6648C15.7337 19.5182 15.9457 19.4358 16.1667 19.4358H19.8333C20.4964 19.4358 21.1323 19.1885 21.6011 18.7485C22.0699 18.3085 22.3333 17.7117 22.3333 17.0894V13.648C22.3333 13.2163 22.7067 12.8659 23.1667 12.8659Z" fill="#486190" fill-opacity="0.4"/>
<rect x="6" y="7" width="12" height="8" rx="4" stroke="#486190" stroke-opacity="0.4" stroke-width="2"/>
</svg>
