<svg width="32" height="24" viewBox="0 0 32 24" fill="none" xmlns="http://www.w3.org/2000/svg">
<path fill-rule="evenodd" clip-rule="evenodd" d="M3 4H7.16863C7.68581 4 8.16652 3.73357 8.44063 3.295L9.61875 1.41C10.167 0.532859 11.1284 0 12.1627 0H19.8373C20.8716 0 21.833 0.532859 22.3813 1.41L23.5594 3.295C23.8335 3.73357 24.3142 4 24.8314 4H29C30.6569 4 32 5.34315 32 7V21C32 22.6569 30.6569 24 29 24H3C1.34315 24 0 22.6569 0 21V7C0 5.34315 1.34315 4 3 4ZM16 20C12.6863 20 10 17.3137 10 14C10 10.6863 12.6863 8 16 8C19.3137 8 22 10.6863 22 14C22 17.3137 19.3137 20 16 20ZM16 21.5C20.1421 21.5 23.5 18.1421 23.5 14C23.5 9.85786 20.1421 6.5 16 6.5C11.8579 6.5 8.5 9.85786 8.5 14C8.5 18.1421 11.8579 21.5 16 21.5ZM3.5 1.5H6C6.27614 1.5 6.5 1.72386 6.5 2V3H3V2C3 1.72386 3.22386 1.5 3.5 1.5ZM25.5 7.75C25.9142 7.75 26.25 7.41421 26.25 7C26.25 6.58579 25.9142 6.25 25.5 6.25C25.0858 6.25 24.75 6.58579 24.75 7C24.75 7.41421 25.0858 7.75 25.5 7.75Z" fill="#838C9B"/>
</svg>
