<svg width="18" height="19" viewBox="0 0 18 19" fill="none" xmlns="http://www.w3.org/2000/svg">
<path d="M17.4311 14.4499V14.5355C17.4311 15.5792 16.721 16.2278 15.5773 16.2278H15.1882V17.6999C15.1882 17.7518 15.1984 17.8031 15.2183 17.851C15.2381 17.8989 15.2672 17.9424 15.3039 17.9791C15.3406 18.0157 15.3841 18.0448 15.432 18.0646C15.48 18.0844 15.5313 18.0946 15.5832 18.0945H17.1008C17.1526 18.0946 17.204 18.0844 17.2519 18.0646C17.2998 18.0448 17.3433 18.0157 17.38 17.9791C17.4167 17.9424 17.4458 17.8989 17.4657 17.851C17.4855 17.8031 17.4957 17.7518 17.4957 17.6999V14.4382L17.4311 14.4499ZM0.589962 14.534V14.495L0.50124 14.4662V17.696C0.500726 17.7482 0.510552 17.7999 0.530151 17.8482C0.54975 17.8965 0.578733 17.9405 0.615424 17.9776C0.652116 18.0146 0.695787 18.044 0.743915 18.0641C0.792043 18.0842 0.843672 18.0945 0.895818 18.0945H2.41343C2.51807 18.0945 2.61844 18.0529 2.69244 17.9789C2.76643 17.9049 2.808 17.8046 2.808 17.6999V16.2278H2.44378C1.30051 16.2278 0.589962 15.5792 0.589962 14.534Z" fill="#384149"/>
<path d="M1.67715 7.37142C1.64608 7.29892 1.59144 7.23904 1.52208 7.20147C1.45273 7.16389 1.37273 7.15083 1.29503 7.1644L0.321811 7.33523C0.231908 7.34976 0.150126 7.39586 0.091147 7.46525C0.0321676 7.53464 -0.000148074 7.62278 5.10106e-07 7.71385V7.90491C1.8811e-05 7.9926 0.0300123 8.07765 0.0850062 8.14595C0.14 8.21425 0.21669 8.2617 0.302355 8.28042L1.68182 8.59562L2.00402 8.10337L1.67715 7.37142ZM17.677 7.33523L16.7042 7.16635C16.6266 7.15287 16.5466 7.16598 16.4774 7.20355C16.4081 7.24111 16.3535 7.30094 16.3225 7.37336L15.9983 8.10609L16.3244 8.59912L17.6973 8.28042C17.783 8.26184 17.8598 8.21444 17.9149 8.14612C17.97 8.0778 18 7.99267 18 7.90491V7.71385C18.0001 7.62261 17.9676 7.53433 17.9084 7.46491C17.8492 7.3955 17.7671 7.34951 17.677 7.33523Z" fill="#486190" fill-opacity="0.51"/>
<path d="M17.0027 9.55596L15.996 8.02084L15.896 7.8683L15.0434 5.8565C14.9058 5.52982 14.6874 5.24353 14.4086 5.02459C14.1298 4.80566 13.7999 4.66128 13.4499 4.60506C11.9771 4.38144 10.4891 4.27281 8.99944 4.28013C7.50986 4.27317 6.022 4.3822 4.54934 4.60622C4.19902 4.66217 3.86873 4.80642 3.58959 5.02537C3.31046 5.24432 3.09169 5.53076 2.95391 5.85767L2.10288 7.8683L2.00287 8.02084L0.996194 9.55596C0.673225 10.0485 0.501187 10.6247 0.501221 11.2137V14.5341C0.501221 15.6525 1.27948 16.3043 2.43286 16.3043H15.5664C16.7182 16.3043 17.498 15.6525 17.498 14.5341V11.2137C17.4979 10.6246 17.3258 10.0485 17.0027 9.55596Z" fill="#FD6700"/>
<path d="M0.501221 13.9187V14.5339C0.501221 15.6523 1.27948 16.3041 2.43286 16.3041H15.5664C16.7182 16.3041 17.498 15.6523 17.498 14.5339V13.9187H0.501221Z" fill="#4FABF7"/>
<path d="M2.62598 7.63169L3.31396 6.0094C3.4251 5.74304 3.60255 5.50955 3.82944 5.33116C4.05632 5.15277 4.32509 5.03542 4.61015 4.99027C6.06278 4.76992 7.53031 4.66258 8.99954 4.66924C10.4688 4.66258 11.9363 4.76992 13.3889 4.99027C13.674 5.03542 13.9428 5.15277 14.1696 5.33116C14.3965 5.50955 14.574 5.74304 14.6851 6.0094L15.3731 7.63169H2.62598Z" fill="#C1ECFB"/>
<path d="M6.81142 7.24255H15.2081L14.6851 6.0094C14.5739 5.74304 14.3965 5.50955 14.1696 5.33116C13.9427 5.15277 13.674 5.03542 13.3889 4.99027C11.9363 4.76992 10.4687 4.66258 8.9995 4.66924C7.91661 4.66745 6.83442 4.72422 5.75765 4.83929C5.72449 4.86344 5.695 4.89228 5.6701 4.9249C5.50412 5.13747 5.40141 5.39253 5.37377 5.66082C5.34612 5.9291 5.39466 6.19975 5.51381 6.44171C5.63296 6.68366 5.8179 6.88714 6.04742 7.02879C6.27693 7.17044 6.54172 7.24453 6.81142 7.24255Z" fill="#DFF8FF"/>
<path d="M17.4981 11.2138C17.498 10.6248 17.3258 10.0486 17.0027 9.55608L15.996 8.02097L15.896 7.86843L15.7956 7.63184H2.96561C2.89206 7.76181 2.81774 7.89644 2.74224 8.03692C2.18657 9.07045 1.6449 9.70434 1.6449 11.2297V13.7474C1.6449 13.8058 1.64762 13.8641 1.6519 13.919H17.4981V11.2138Z" fill="#FF904C"/>
<path d="M1.65063 13.9187C1.72846 14.9304 2.48376 15.5172 3.57527 15.5172H16.7088C16.8993 15.516 17.089 15.4946 17.275 15.4534C17.4292 15.172 17.5061 14.8547 17.498 14.5339V13.9187H1.65063Z" fill="#486190" fill-opacity="0.51"/>
<path d="M2.10013 10.3662C2.10013 10.3662 3.62629 10.4612 3.83253 10.5246C4.03877 10.588 4.83026 12.0928 4.83026 12.0928L2.255 11.7293C2.14061 11.7127 2.03386 11.662 1.94859 11.584C1.86332 11.5059 1.80346 11.404 1.77676 11.2916C1.74158 11.1604 1.72778 11.0244 1.7359 10.8888C1.76742 10.5402 1.87832 10.3662 2.10013 10.3662ZM15.8983 10.3662C15.8983 10.3662 14.3721 10.4612 14.1663 10.5246C13.9604 10.588 13.1682 12.0928 13.1682 12.0928L15.7434 11.7293C15.8578 11.7127 15.9646 11.662 16.0498 11.584C16.1351 11.5059 16.195 11.404 16.2217 11.2916C16.2562 11.1603 16.2693 11.0243 16.2606 10.8888C16.231 10.5402 16.1205 10.3662 15.8983 10.3662Z" fill="#DFF8FF"/>
<path d="M5.96738 12.3161L5.19885 10.686C5.19885 10.686 7.90603 10.9218 8.9991 10.9218C10.0922 10.9218 12.8001 10.686 12.8001 10.686L12.0316 12.3161L8.98081 12.4904L5.96738 12.3161Z" fill="#486190" fill-opacity="0.51"/>
</svg>
