<svg width="24" height="20" viewBox="0 0 24 20" fill="none" xmlns="http://www.w3.org/2000/svg">
<path d="M23.665 11.0337C23.6297 10.3212 23.365 9.63872 22.9299 9.07246C21.9489 7.7952 21.7577 6.78116 21.7577 6.78116C20.9874 4.76288 20.3027 3.41809 19.7994 2.56459C19.2699 1.6683 18.3541 1.06458 17.3213 0.931832C15.2446 0.663348 8.75392 0.663348 6.67715 0.931832C6.16737 0.998071 5.67936 1.17952 5.25013 1.46242C4.8209 1.74531 4.46173 2.12223 4.19984 2.56459C3.69656 3.41809 3.01259 4.76288 2.24155 6.78116C2.24155 6.78116 2.05032 7.7952 1.06929 9.07246C0.635045 9.63872 0.36951 10.3212 0.335043 11.0337C0.260792 12.5795 0.708572 12.9193 1.10907 16.4174C1.12425 16.5503 1.18787 16.6729 1.28776 16.7619C1.38766 16.8508 1.51682 16.8999 1.65059 16.8996H22.3502C22.6278 16.8996 22.8602 16.6918 22.8917 16.4174C23.0042 15.4363 23.338 13.4465 23.338 13.4465C23.6304 12.4573 23.6942 11.651 23.665 11.0337Z" fill="#E95353"/>
<path d="M21.3218 6.70092C20.7143 5.18066 20.0948 3.85312 19.4783 2.79485C19.0111 1.99457 18.1868 1.43584 17.2748 1.31359C15.1935 1.03756 8.79217 1.03984 6.72584 1.31359C5.81385 1.43584 4.98954 1.99461 4.52228 2.79485C3.89752 3.86661 3.26977 5.21212 2.67126 6.70092C8.87854 7.18916 15.1146 7.18916 21.3218 6.70092Z" fill="#168DE2"/>
<path d="M20.4406 8.45824C20.2036 8.53249 19.9831 8.63677 19.7986 8.74026C19.4626 8.92778 19.1176 9.10253 18.7576 9.23904C18.1606 9.46557 18.0593 9.80381 18.0593 9.80381C18.0413 9.82706 18.0241 9.85031 18.0075 9.87429C17.5545 10.547 18.1493 11.4426 18.9526 11.3286C20.1143 11.1643 21.0713 10.8276 21.5574 10.6326C21.8356 10.5208 22.0531 10.2883 22.1243 9.99654C22.1311 9.9688 22.1371 9.94105 22.1423 9.91402C22.3209 8.95103 21.3759 8.16651 20.4406 8.45824Z" fill="white"/>
<path d="M21.6819 13.8486H20.3896C20.1953 13.8486 20.0978 14.0834 20.2351 14.2214L21.5274 15.5137C21.6646 15.6509 21.9001 15.5534 21.9001 15.3592V14.0669C21.9001 14.0382 21.8945 14.0098 21.8836 13.9833C21.8726 13.9568 21.8565 13.9328 21.8363 13.9125C21.816 13.8922 21.7919 13.8761 21.7654 13.8652C21.7389 13.8542 21.7105 13.8486 21.6819 13.8486Z" fill="#FFE21F"/>
<path d="M22.8916 16.4158C22.8764 16.5489 22.8128 16.6719 22.7128 16.7611C22.6127 16.8503 22.4834 16.8996 22.3493 16.8995H19.863V18.3425C19.863 18.8533 20.277 19.2681 20.7886 19.2681H22.3501C22.8609 19.2681 23.2757 18.8541 23.2757 18.3425V13.8252C23.1729 14.4507 22.9734 15.701 22.8916 16.4158Z" fill="#454545"/>
<path d="M23.9822 5.68997C23.9071 5.35395 23.5914 5.12598 23.2471 5.12598H22.6231C22.2233 5.12598 21.8994 5.45 21.8994 5.84973V6.29447H21.5686L21.7583 6.74525H22.4859C22.8624 6.74525 23.2352 6.66423 23.5772 6.50751C23.7283 6.43848 23.8511 6.31953 23.9248 6.17064C23.9986 6.02176 24.0188 5.85202 23.9822 5.68997Z" fill="#ED6262"/>
<path d="M20.8501 10.5334C21.3525 10.5334 21.7599 10.1261 21.7599 9.62364C21.7599 9.12119 21.3525 8.71387 20.8501 8.71387C20.3476 8.71387 19.9403 9.12119 19.9403 9.62364C19.9403 10.1261 20.3476 10.5334 20.8501 10.5334Z" fill="#FFBD49"/>
<path d="M19.0201 11.0094C19.3891 11.0094 19.6883 10.7102 19.6883 10.3411C19.6883 9.97204 19.3891 9.67285 19.0201 9.67285C18.651 9.67285 18.3518 9.97204 18.3518 10.3411C18.3518 10.7102 18.651 11.0094 19.0201 11.0094Z" fill="#FFDB6F"/>
<path d="M17.2883 10.3418L16.2435 12.1613H7.75634L6.71155 10.3418H17.2883Z" fill="#6F6F6F"/>
<path d="M5.99152 9.87454C5.97542 9.85021 5.95814 9.82669 5.93974 9.80406C5.93974 9.80406 5.83847 9.46582 5.24146 9.23929C4.88147 9.10278 4.53719 8.92802 4.20044 8.74051C4.0152 8.63701 3.79545 8.53274 3.55843 8.45849C2.62391 8.16598 1.67817 8.95123 1.85592 9.91427C1.86119 9.94202 1.86718 9.96904 1.87318 9.99679C1.94443 10.2885 2.16192 10.521 2.44016 10.6328C2.92618 10.8278 3.88318 11.1646 5.04573 11.3288C5.84973 11.4428 6.44452 10.5473 5.99152 9.87454Z" fill="white"/>
<path d="M3.61028 13.8486H2.31799C2.28932 13.8486 2.26092 13.8542 2.23443 13.8652C2.20793 13.8761 2.18386 13.8922 2.16359 13.9125C2.14331 13.9328 2.12724 13.9568 2.11628 13.9833C2.10532 14.0098 2.0997 14.0382 2.09973 14.0669V15.3592C2.09973 15.5534 2.33525 15.6509 2.47249 15.5137L3.76478 14.2214C3.90202 14.0841 3.80452 13.8486 3.61028 13.8486Z" fill="#FFE21F"/>
<path d="M20.604 16.1042C19.2585 13.7761 17.7112 13.8489 17.7112 13.8489H6.28779C6.28779 13.8489 4.74127 13.7761 3.39498 16.1042H1.06921L1.09773 16.4042C1.11014 16.5398 1.1728 16.6658 1.27342 16.7576C1.37403 16.8493 1.50531 16.9001 1.64147 16.9H22.3584C22.4945 16.9001 22.6258 16.8493 22.7264 16.7576C22.8271 16.6658 22.8897 16.5398 22.9022 16.4042L22.9307 16.1042L20.604 16.1042Z" fill="#777777"/>
<path d="M1.6505 16.9004C1.5165 16.9004 1.3872 16.8511 1.28721 16.7619C1.18722 16.6727 1.12353 16.5498 1.10826 16.4167C1.02652 15.7019 0.826242 14.4509 0.724243 13.8262V18.3435C0.724243 18.8543 1.13823 19.269 1.64977 19.269H3.21128C3.72204 19.269 4.13681 18.8551 4.13681 18.3435V16.9005H1.6505V16.9004Z" fill="#454545"/>
<path d="M2.09973 6.29447V5.84973C2.09973 5.44996 1.7757 5.12598 1.37669 5.12598H0.752711C0.408477 5.12598 0.092715 5.354 0.0176902 5.68997C-0.0188017 5.85191 0.00153234 6.02148 0.0752786 6.17021C0.149025 6.31893 0.271693 6.43776 0.422689 6.50673C0.765166 6.66341 1.13737 6.74449 1.51398 6.74447H2.24151L2.43125 6.2937H2.09973V6.29447Z" fill="#ED6262"/>
<path d="M3.14903 10.5334C3.65148 10.5334 4.0588 10.1261 4.0588 9.62364C4.0588 9.12119 3.65148 8.71387 3.14903 8.71387C2.64658 8.71387 2.23926 9.12119 2.23926 9.62364C2.23926 10.1261 2.64658 10.5334 3.14903 10.5334Z" fill="#FFBD49"/>
<path d="M4.98052 11.0094C5.34959 11.0094 5.64878 10.7102 5.64878 10.3411C5.64878 9.97204 5.34959 9.67285 4.98052 9.67285C4.61145 9.67285 4.31226 9.97204 4.31226 10.3411C4.31226 10.7102 4.61145 11.0094 4.98052 11.0094Z" fill="#FFDB6F"/>
<path d="M16.8367 14.4854H7.16304C7.09044 14.4854 7.02081 14.5142 6.96948 14.5655C6.91814 14.6169 6.8893 14.6865 6.88928 14.7591C6.88923 14.7951 6.89628 14.8307 6.91002 14.8639C6.92376 14.8972 6.94392 14.9274 6.96935 14.9528C6.99478 14.9782 7.02498 14.9984 7.05821 15.0121C7.09145 15.0259 7.12707 15.0329 7.16304 15.0329H16.836C16.9086 15.0328 16.9782 15.004 17.0295 14.9527C17.0809 14.9013 17.1097 14.8317 17.1097 14.7591C17.1105 14.6076 16.9875 14.4854 16.8367 14.4854ZM16.8367 15.5781H7.16304C7.09044 15.5782 7.02081 15.607 6.96948 15.6583C6.91814 15.7097 6.8893 15.7793 6.88928 15.8519C6.88923 15.8879 6.89628 15.9235 6.91002 15.9567C6.92376 15.99 6.94392 16.0202 6.96935 16.0456C6.99478 16.071 7.02498 16.0912 7.05821 16.1049C7.09145 16.1187 7.12707 16.1257 7.16304 16.1256H16.836C16.9086 16.1256 16.9782 16.0968 17.0295 16.0455C17.0809 15.9941 17.1097 15.9245 17.1097 15.8519C17.1105 15.7004 16.9875 15.5781 16.8367 15.5781Z" fill="#6F6F6F"/>
<path d="M20.3078 4.38117V4.4749C20.3078 4.85215 19.998 5.15443 19.6133 5.13867C19.2585 5.11619 18.987 4.79893 18.987 4.43666V3.09115C18.987 2.77389 18.723 2.53238 18.4058 2.54064H18.3833C18.066 2.53315 17.8021 2.77466 17.8021 3.09115V4.30842C17.8021 4.68567 17.4773 4.98794 17.1 4.96469C16.7453 4.9497 16.4738 4.62495 16.4738 4.27018V3.2119C16.4738 2.89464 16.2098 2.63065 15.8851 2.63065H15.84C15.5378 2.63065 15.2888 2.87966 15.2888 3.18193V4.55819C15.2888 4.93544 14.9715 5.23695 14.5868 5.22196C14.232 5.19948 13.968 4.88222 13.968 4.51996V2.67489C13.968 2.38088 13.7115 2.13188 13.4092 2.15435H13.3642C13.0545 2.15435 12.8062 2.40336 12.8062 2.70563V4.59194C12.8062 4.9542 12.5122 5.2557 12.1425 5.2557C11.7877 5.2557 11.4937 4.96919 11.4862 4.61446V3.03121C11.4862 2.66894 11.2147 2.35245 10.8599 2.3292C10.4752 2.31422 10.1654 2.61572 10.1654 2.99297L10.1579 4.45552C10.1579 4.83277 9.84894 5.13427 9.46342 5.11928C9.11542 5.09753 8.85143 4.79153 8.84089 4.44503V2.72888C8.84089 2.37261 8.57313 2.05385 8.21686 2.03287C7.83511 2.01639 7.52007 2.31712 7.52007 2.69514V4.49293C7.50958 4.86119 7.20059 5.15443 6.82179 5.13944C6.46702 5.11696 6.20303 4.7997 6.20303 4.43744V3.09115C6.20303 2.77389 5.93155 2.53238 5.61429 2.54064H5.5993C5.27455 2.53315 5.01056 2.77466 5.01056 3.09115V4.30842C5.01056 4.68567 4.6933 4.98794 4.31605 4.96469C3.98753 4.95193 3.74302 4.67745 3.70106 4.35942C3.35228 5.08168 3.00655 5.86393 2.67053 6.69945C8.87778 7.18846 15.1139 7.18846 21.3211 6.69945C20.9865 5.8617 20.6475 5.08917 20.3078 4.38117Z" fill="#3AA2EB"/>
</svg>
