<svg width="27" height="20" viewBox="0 0 27 20" fill="none" xmlns="http://www.w3.org/2000/svg">
<path d="M26.4249 19.0805C26.425 18.826 26.4247 18.5715 26.4242 18.3171V18.3153C26.4227 17.3602 26.4194 16.4052 26.4256 15.4503C26.4377 13.5736 26.4628 11.6972 26.4741 9.82047L26.4748 9.71264L26.4754 9.60737C26.4777 9.18225 26.4501 8.75618 26.4131 8.331C26.3853 8.01122 26.2629 7.92639 25.7779 7.87161C25.5647 7.84752 25.3491 7.82657 25.1333 7.81247C25.0052 7.80397 24.877 7.79824 24.7486 7.7953H24.7476C24.6142 7.79242 24.4809 7.78966 24.3475 7.78703L24.2727 7.78556C24.1427 7.783 24.0128 7.78056 23.8828 7.77819L23.8247 7.77717C22.6915 7.7566 21.5583 7.74148 20.4252 7.71656C18.5789 7.676 16.7329 7.62346 14.8866 7.58034C13.6556 7.55157 12.4244 7.52863 11.1932 7.50608C10.7732 7.49839 10.3529 7.5073 9.93327 7.49538C9.0478 7.47026 8.16259 7.43804 7.27745 7.40574C6.54242 7.37896 5.80784 7.33988 5.07262 7.32091C4.96231 7.31806 4.852 7.31537 4.74169 7.31284H4.7415C4.57459 7.309 4.40769 7.30547 4.24072 7.30246L4.22079 7.30208C4.14192 7.30067 4.06311 7.29939 3.98424 7.29817L3.95669 7.29778C3.87717 7.29663 3.7976 7.29554 3.71808 7.29464L3.70822 7.29452C3.63027 7.29363 3.55231 7.2929 3.47436 7.29234L3.45212 7.29215C3.37614 7.29158 3.30015 7.29117 3.22416 7.29093L3.18379 7.2908C3.10902 7.29061 3.03431 7.29048 2.95954 7.29054L2.92347 7.29061C2.84543 7.29074 2.76746 7.29099 2.68948 7.29151C2.54231 7.2924 2.39482 7.30618 2.24829 7.32572C2.10175 7.34526 1.95625 7.3707 1.81298 7.39492C1.72111 7.41049 1.64294 7.43438 1.57932 7.46661C1.57355 7.46956 1.56785 7.47257 1.56234 7.47565C1.53098 7.49286 1.5019 7.51394 1.47578 7.53837C1.45983 7.55356 1.44548 7.57035 1.43298 7.58848C1.42383 7.60179 1.41577 7.61583 1.40889 7.63044C1.39243 7.66586 1.38259 7.70399 1.37986 7.74295C1.37666 7.78307 1.37293 7.82314 1.36865 7.86315C1.36013 7.94324 1.34975 8.02326 1.33918 8.10323C1.33386 8.14321 1.32854 8.18319 1.32335 8.22323C1.31816 8.26321 1.3131 8.30319 1.30836 8.34324C1.2942 8.46324 1.28311 8.58331 1.28055 8.70364C1.27943 8.7566 1.27847 8.80957 1.27767 8.86254L1.27715 8.90156C1.27658 8.94275 1.276 8.98402 1.27562 9.02521L1.2753 9.05956C1.27485 9.10396 1.27453 9.14836 1.27427 9.19283L1.27414 9.21288C1.27062 9.82784 1.27985 10.4431 1.26697 11.0579C1.22654 12.9903 1.18034 14.9225 1.13466 16.8548V16.8561C1.12088 17.4378 1.10717 18.0195 1.09372 18.6011C1.09276 18.6425 1.09353 18.6813 1.09628 18.7175C1.09718 18.7296 1.09833 18.7414 1.09974 18.7529C1.10384 18.7875 1.11006 18.8197 1.11858 18.8496C1.1271 18.8795 1.13793 18.9072 1.15138 18.9328C1.1625 18.9539 1.17559 18.9739 1.19047 18.9926C1.21135 19.0186 1.23602 19.0421 1.26485 19.0632C1.27722 19.0722 1.29035 19.0808 1.30432 19.089C1.31829 19.0972 1.33302 19.1051 1.34859 19.1126C1.37618 19.1257 1.40455 19.1371 1.43355 19.1467C1.56259 19.1905 1.73501 19.2177 1.9615 19.2362C1.98386 19.2381 2.00635 19.2391 2.02884 19.2399C2.05139 19.2407 2.07395 19.2412 2.09644 19.242L2.09945 19.2422L2.35586 19.2517L2.44518 19.2551L2.61433 19.2616L2.72363 19.2658L2.83569 19.2702C3.35474 19.2904 3.87371 19.3111 4.39276 19.3298H4.39288C4.78282 19.3439 5.17276 19.3568 5.56277 19.3674C8.15984 19.4382 10.7572 19.4992 13.3545 19.5642L13.3546 19.5611C14.2705 19.584 15.1864 19.6148 16.1024 19.6283C18.7297 19.667 21.3571 19.7014 23.9845 19.7317C24.1982 19.7342 24.412 19.7347 24.6257 19.7333C24.9819 19.7312 25.338 19.7242 25.6932 19.7138C25.7027 19.7135 25.7121 19.7132 25.7214 19.7128L25.7284 19.7125L25.7539 19.7112L25.756 19.7111C25.7669 19.7105 25.7779 19.7098 25.7888 19.709C25.7968 19.7084 25.8047 19.7078 25.8125 19.7071L25.8152 19.7069C25.824 19.7062 25.8326 19.7054 25.8411 19.7045L25.8456 19.7041L25.8687 19.7015L25.8711 19.7012L25.8962 19.698L25.8987 19.6977L25.9219 19.6943L25.9236 19.6941C25.9319 19.6928 25.9401 19.6914 25.9482 19.69L25.9485 19.6899C25.9565 19.6885 25.9643 19.687 25.972 19.6855L25.9732 19.6852C25.9889 19.6821 26.0042 19.6786 26.019 19.675L26.0196 19.6748C26.0346 19.6711 26.049 19.6672 26.063 19.6629L26.0632 19.6628C26.2719 19.5992 26.3767 19.4753 26.4139 19.2787C26.426 19.2133 26.4249 19.1466 26.4249 19.0805Z" fill="#66CC99"/>
<path d="M22.9269 17.7562C23.0771 17.4851 23.2785 17.2622 23.5349 17.0879C23.789 16.9151 24.0684 16.8034 24.3726 16.772C24.5779 16.7507 24.7867 16.7511 24.9934 16.7583C25.0353 16.7598 25.0766 16.7632 25.1175 16.7683C25.1155 16.226 25.1141 15.6837 25.1168 15.1415C25.1238 13.7268 25.1405 12.3123 25.1486 10.8977C24.9863 10.8969 24.8244 10.8857 24.6637 10.8546C24.2895 10.7824 23.9707 10.6045 23.6887 10.3513C23.3922 10.0851 23.1695 9.76955 23.0414 9.39242C22.9729 9.19098 22.9348 8.99178 22.9277 8.79502C21.8638 8.77471 20.7998 8.75985 19.7359 8.7362C18.0842 8.69955 16.4327 8.65297 14.781 8.61415C13.6797 8.58826 12.5783 8.56725 11.4769 8.54649C11.1011 8.53944 10.7252 8.5461 10.3497 8.53553C9.5576 8.5133 8.76561 8.48511 7.97375 8.45692C7.31619 8.43353 6.65894 8.39996 6.00125 8.38304C5.59094 8.37247 5.1803 8.36388 4.76986 8.35889C4.75945 8.47013 4.73941 8.58025 4.70995 8.68802C4.6767 8.81046 4.63409 8.9304 4.59578 9.0515C4.43912 9.38288 4.25633 9.69369 3.97339 9.93383C3.69282 10.1719 3.36964 10.3115 3.00034 10.33C2.86899 10.3366 2.73758 10.3395 2.60649 10.3339C2.60777 10.7115 2.61085 11.0892 2.60309 11.4666C2.57067 13.0428 2.53319 14.619 2.49609 16.1951C2.52345 16.1958 2.55075 16.1966 2.57804 16.1975C2.85611 16.2072 3.11393 16.3012 3.36144 16.4232C3.45313 16.4685 3.54257 16.5184 3.63311 16.5659C3.79373 16.6502 3.93873 16.7551 4.05412 16.8962C4.09762 16.9495 4.13857 17.0063 4.17124 17.0666C4.25806 17.2268 4.35698 17.3834 4.41977 17.5531C4.50622 17.7849 4.54169 18.0325 4.52376 18.2793C5.16909 18.3038 5.81442 18.3277 6.45994 18.3452C8.78336 18.4082 11.107 18.463 13.4306 18.5211L13.4307 18.5185C14.2501 18.539 15.0695 18.566 15.8889 18.5787C18.1518 18.6139 20.4146 18.6454 22.6774 18.6742C22.6796 18.3616 22.7612 18.0553 22.9269 17.7562Z" fill="#339966"/>
<path d="M7.18105 13.7441C7.10237 13.9105 7.01055 14.0667 6.86838 14.1873C6.72742 14.3069 6.56506 14.377 6.37951 14.3864C6.25323 14.3927 6.12669 14.3923 6.00175 14.3682C5.81376 14.3319 5.65358 14.2425 5.51198 14.1154C5.36302 13.9816 5.25115 13.8231 5.18676 13.6337C5.09296 13.3576 5.11186 13.0899 5.25435 12.8328C5.32802 12.6982 5.43273 12.5831 5.55978 12.497C5.68741 12.4102 5.82779 12.3542 5.9806 12.3383C6.08376 12.3276 6.18864 12.3278 6.2925 12.3315C6.43218 12.3363 6.56173 12.3836 6.68609 12.4449C6.73216 12.4676 6.77707 12.4927 6.82257 12.5166C6.9033 12.5589 6.97608 12.6116 7.03407 12.6825C7.05591 12.7092 7.07648 12.7378 7.09288 12.7681C7.13652 12.8486 7.18617 12.9273 7.21776 13.0125C7.28414 13.1917 7.28856 13.3767 7.23839 13.5616C7.22173 13.623 7.20033 13.6832 7.18105 13.7441ZM22.5064 14.1274C22.4277 14.2939 22.3359 14.45 22.1937 14.5706C22.0527 14.6903 21.8904 14.7604 21.7048 14.7697C21.5785 14.7761 21.452 14.7757 21.327 14.7515C21.1391 14.7153 20.9788 14.6259 20.8372 14.4987C20.6883 14.365 20.5764 14.2065 20.512 14.017C20.4182 13.741 20.4371 13.4732 20.5796 13.2162C20.6533 13.0816 20.758 12.9664 20.885 12.8804C21.0127 12.7936 21.153 12.7375 21.3059 12.7217C21.409 12.711 21.5139 12.7112 21.6178 12.7148C21.7574 12.7197 21.887 12.7669 22.0113 12.8282C22.0574 12.851 22.1023 12.876 22.1478 12.8999C22.2285 12.9423 22.3013 12.9949 22.3593 13.0659C22.3812 13.0926 22.4017 13.1212 22.4181 13.1515C22.4618 13.2319 22.5114 13.3106 22.543 13.3958C22.6094 13.575 22.6138 13.76 22.5636 13.9449C22.547 14.0063 22.5256 14.0665 22.5064 14.1274Z" fill="#66CC99"/>
<path d="M17.7709 15.1345C17.4873 15.8155 17.031 16.4277 16.42 16.8807C14.9374 17.9798 12.7721 17.981 11.3039 16.8543C11.2616 16.8216 11.2199 16.7883 11.1788 16.7543C9.01933 14.9596 9.04028 11.2712 11.6463 9.89808C13.3376 9.00691 15.7138 9.31933 17.0476 10.7138C18.194 11.9125 18.3765 13.6802 17.7709 15.1345Z" fill="#66CC99"/>
<path d="M14.1682 16.0407C14.1646 16.1848 14.1614 16.3467 14.1562 16.5084C14.152 16.6412 14.1343 16.6629 13.9992 16.6593C13.8183 16.6547 13.6375 16.6424 13.457 16.6288C13.3497 16.6208 13.3226 16.5879 13.3239 16.4759C13.3255 16.328 13.3308 16.18 13.3346 16.0239C13.2717 16.007 13.2196 15.9915 13.1668 15.9789C12.7498 15.879 12.4452 15.6321 12.2311 15.266C12.1377 15.1065 12.1105 14.9258 12.0683 14.7506C12.047 14.6619 12.0834 14.6119 12.1738 14.5838C12.2179 14.5699 12.264 14.5629 12.3103 14.5632C12.4866 14.5656 12.6629 14.5733 12.8392 14.5772C12.9213 14.5791 12.9613 14.6218 12.9871 14.6975C13.0259 14.8112 13.0699 14.9239 13.1224 15.0319C13.2185 15.2302 13.3957 15.3186 13.602 15.3469C13.8321 15.3784 14.0652 15.3511 14.2677 15.2444C14.7521 14.9895 14.8118 14.5164 14.4447 14.127C14.287 13.9598 14.0723 13.8708 13.8598 13.7862C13.4762 13.6334 13.0893 13.4852 12.7443 13.2536C12.6175 13.1681 12.5007 13.0686 12.3962 12.9569C12.1603 12.7045 12.1094 12.4003 12.201 12.0748C12.3472 11.5553 12.6908 11.2354 13.2135 11.1064C13.2807 11.0899 13.3492 11.078 13.4316 11.061C13.436 10.9902 13.4417 10.9179 13.4445 10.8455C13.448 10.7574 13.4484 10.6691 13.4515 10.581C13.4549 10.4838 13.4798 10.4461 13.57 10.4447C13.7645 10.4416 13.9592 10.4479 14.1538 10.4529C14.2308 10.4549 14.2724 10.5043 14.2829 10.5754C14.2945 10.6532 14.3014 10.7321 14.3034 10.8108C14.3056 10.8983 14.3 10.9861 14.2977 11.0788C14.3639 11.0997 14.4155 11.1168 14.4676 11.1324C15.0849 11.3178 15.3256 11.7746 15.4817 12.3544C15.5052 12.4416 15.4688 12.4981 15.3811 12.5236C15.3331 12.5376 15.2805 12.5426 15.2304 12.5413C15.1098 12.538 14.9894 12.5259 14.8688 12.5224C14.7691 12.5195 14.7093 12.4801 14.6717 12.3817C14.6359 12.2881 14.5772 12.202 14.5211 12.1176C14.2591 11.7231 13.598 11.7675 13.3137 12.0771C13.173 12.2304 13.1595 12.4611 13.2887 12.6261C13.3748 12.7369 13.4906 12.821 13.6226 12.8686C13.7706 12.9224 13.9224 12.9654 14.0715 13.0159C14.2735 13.0843 14.4784 13.1457 14.6751 13.2269C15.2425 13.4613 15.6379 14.0559 15.6049 14.6377C15.5904 14.8943 15.5142 15.1307 15.3568 15.3352C15.196 15.5442 15 15.7138 14.7537 15.8156C14.5704 15.8913 14.3833 15.9584 14.1682 16.0407Z" fill="white"/>
<path d="M26.4134 14.3832C26.1717 11.7552 26.6724 10.7433 26.214 8.20398C26.159 7.978 25.5528 7.78399 25.0595 7.7938C24.7133 7.80065 24.362 7.81379 24.0159 7.84307C17.2834 8.41388 10.5533 9.0182 3.81536 9.51629C2.9784 9.5983 1.2172 8.00888 1.04863 7.20293C0.437642 4.28236 0.464424 9.87439 0.444946 10.8604C0.672656 12.8046 0.818098 14.7566 0.9843 16.7068C1.01947 17.1246 1.05465 17.5425 1.09008 17.9603C1.09175 18.1352 1.21387 18.2726 1.39 18.3005C1.69357 18.3668 2.15444 18.3161 2.50696 18.2919C3.16324 18.244 3.81959 18.1976 4.47581 18.1488C7.49351 17.9173 10.509 17.6579 13.5257 17.4124L13.5255 17.4102C16.6894 17.1611 19.8487 16.8586 23.0093 16.5736C23.9972 16.4835 24.9872 16.3974 25.9714 16.2746C26.2869 16.2515 26.5859 16.1686 26.4134 14.3832Z" fill="#2B8958"/>
<path d="M26.2855 15.1595C26.2583 14.9065 26.2308 14.6535 26.2033 14.4006L26.2031 14.3987C26.0995 13.4493 25.9943 12.5001 25.8984 11.55C25.71 9.68279 25.5345 7.8144 25.3453 5.94723L25.3344 5.83991L25.3238 5.73521C25.2807 5.31228 25.2076 4.89165 25.1255 4.47282C25.0637 4.15784 24.933 4.08653 24.4449 4.0839C24.2302 4.08275 24.0137 4.08493 23.7977 4.09396C23.6693 4.09934 23.541 4.1071 23.4134 4.11799L23.4124 4.11805C23.2794 4.12939 23.1465 4.14093 23.0136 4.15259L22.9391 4.15912C22.8096 4.17046 22.6802 4.18193 22.5507 4.1934L22.4927 4.19859C21.3639 4.29918 20.2355 4.40516 19.1062 4.50139C17.2662 4.65824 15.4251 4.80323 13.5848 4.95752C12.3577 5.06041 11.1311 5.16914 9.90456 5.27819C9.48618 5.31542 9.06926 5.36917 8.65069 5.40217C7.76765 5.47182 6.88404 5.53429 6.0005 5.59676C5.26682 5.64859 4.53224 5.68825 3.79926 5.7479C3.68931 5.75687 3.5793 5.76597 3.46936 5.7752H3.46916C3.30277 5.78916 3.13644 5.80351 2.97011 5.81838L2.95025 5.82017C2.8717 5.82722 2.79315 5.83433 2.71466 5.84157L2.68724 5.84414C2.60804 5.8515 2.52885 5.85894 2.44966 5.8665L2.43986 5.86746C2.36226 5.87489 2.28467 5.88252 2.20708 5.89027L2.18492 5.89245C2.10931 5.90001 2.03371 5.90776 1.9581 5.91558L1.91793 5.91974C1.84361 5.92749 1.76928 5.93537 1.69496 5.94345L1.65914 5.94736C1.58162 5.95581 1.50403 5.9644 1.42657 5.97324C1.28035 5.98984 1.13517 6.01924 0.99152 6.05435C0.847936 6.08947 0.705954 6.13022 0.56615 6.16962C0.47645 6.19493 0.401294 6.22703 0.341516 6.26586C0.336129 6.26934 0.33081 6.27293 0.325562 6.27662C0.296235 6.29707 0.269587 6.32111 0.246241 6.34819C0.231697 6.36542 0.219331 6.38355 0.209016 6.40258C0.201327 6.41687 0.194792 6.43161 0.189538 6.44692C0.176987 6.48392 0.171277 6.52289 0.172687 6.56193C0.173841 6.6021 0.174353 6.64234 0.174353 6.68258C0.174417 6.76311 0.172687 6.84378 0.170701 6.92444C0.16974 6.96481 0.168651 7.00511 0.167754 7.04541C0.166857 7.08571 0.166088 7.12601 0.165639 7.16632C0.164358 7.28715 0.166216 7.40774 0.176468 7.52761C0.18562 7.63444 0.195423 7.7412 0.205876 7.84791L0.209208 7.88206C0.213501 7.92627 0.217922 7.97048 0.222407 8.01462L0.224457 8.03455C0.28667 8.64637 0.361506 9.25716 0.414365 9.86975C0.580566 11.7954 0.741065 13.7215 0.902013 15.6476L0.902141 15.6489C0.950579 16.2287 0.999081 16.8085 1.04784 17.3883C1.0513 17.4296 1.05623 17.468 1.06283 17.5038C1.06501 17.5157 1.06745 17.5273 1.07001 17.5386C1.07782 17.5726 1.08744 17.6039 1.0991 17.6328C1.11076 17.6616 1.12453 17.6879 1.14061 17.712C1.1486 17.7239 1.15724 17.7354 1.1665 17.7463C1.19496 17.7798 1.2291 17.8079 1.26735 17.8295C1.28061 17.8372 1.29458 17.8444 1.30931 17.8511C1.32405 17.8577 1.33956 17.8639 1.35583 17.8697C1.37755 17.8773 1.40062 17.8842 1.42522 17.8903C1.43137 17.8918 1.43759 17.8932 1.44393 17.8947C1.57694 17.9244 1.75122 17.9331 1.97841 17.9272C2.00084 17.9267 2.02333 17.9253 2.04582 17.9237C2.0683 17.9221 2.09079 17.9203 2.11328 17.9187L2.11629 17.9185C2.20157 17.9124 2.28692 17.9065 2.37226 17.9006L2.46145 17.8944L2.63028 17.8828L2.73939 17.8753L2.85126 17.8677C3.36947 17.8323 3.88768 17.7975 4.40576 17.7607H4.40589C4.79506 17.733 5.18416 17.7042 5.57308 17.6731C8.16285 17.4662 10.7519 17.2493 13.3413 17.0365L13.341 17.0334C14.2542 16.9584 15.1682 16.8912 16.0803 16.8068C18.2881 16.6026 20.4956 16.395 22.7027 16.1848L22.7056 16.1845C23.1132 16.1457 23.5208 16.1068 23.9284 16.0678C24.1412 16.0474 24.3537 16.0251 24.5661 16.0009C24.929 15.9595 25.2914 15.9136 25.6533 15.8635L25.6602 15.8625L25.6853 15.8585L25.6873 15.8582L25.7138 15.8536L25.7198 15.8525L25.7431 15.8482L25.7457 15.8477C25.7633 15.8443 25.7808 15.8406 25.7982 15.8365C25.8156 15.8325 25.833 15.8282 25.8503 15.8236L25.852 15.8232C25.8601 15.821 25.8681 15.8188 25.876 15.8165L25.8763 15.8164C25.884 15.8142 25.8917 15.8119 25.8992 15.8095L25.9003 15.8091C25.9156 15.8043 25.9305 15.7992 25.9448 15.794L25.9454 15.7938C25.9599 15.7885 25.9738 15.783 25.9873 15.7773L25.9875 15.7772C26.1882 15.6917 26.2792 15.5573 26.2951 15.3578C26.3006 15.2915 26.2925 15.2253 26.2855 15.1595Z" fill="#66CC99"/>
<path d="M22.666 14.2164C22.7864 13.9308 22.9628 13.6877 23.1991 13.4869C23.4333 13.288 23.6992 13.1471 23.9983 13.0833C24.2002 13.0403 24.4079 13.0184 24.6142 13.0034C24.6556 13.0005 24.6971 12.9994 24.7386 13C24.6787 12.4611 24.6195 11.922 24.5642 11.3826C24.42 9.97529 24.2855 8.56706 24.1425 7.15961C23.9811 7.1762 23.8188 7.18229 23.6558 7.16864C23.2761 7.1368 22.94 6.99392 22.6326 6.77236C22.3094 6.53933 22.0542 6.24941 21.8866 5.88811C21.797 5.69512 21.7378 5.50118 21.7097 5.30627C20.6497 5.39969 19.5902 5.49862 18.5299 5.5887C16.8837 5.72863 15.2367 5.85876 13.5903 5.99658C12.4925 6.08846 11.3952 6.18521 10.2979 6.28221C9.92358 6.31534 9.5505 6.36211 9.176 6.39171C8.386 6.45418 7.59561 6.51075 6.80523 6.56733C6.14888 6.61429 5.49189 6.65113 4.83612 6.70457C4.42691 6.73762 4.01793 6.77346 3.60921 6.81208C3.61073 6.92379 3.60256 7.03541 3.5848 7.1457C3.56481 7.27103 3.53528 7.39481 3.5101 7.5193C3.38971 7.86554 3.24119 8.1941 2.98548 8.46307C2.73195 8.7298 2.42556 8.90305 2.06029 8.96097C1.93041 8.98154 1.80003 8.99846 1.66907 9.00691C1.71065 9.38224 1.75409 9.75738 1.7867 10.1335C1.92279 11.7042 2.05388 13.2753 2.18535 14.8463C2.21265 14.8441 2.23988 14.842 2.26711 14.84C2.5446 14.8199 2.81101 14.8858 3.07018 14.9807C3.16622 15.0159 3.26041 15.056 3.35556 15.0935C3.52426 15.1601 3.67963 15.2489 3.80944 15.3769C3.85839 15.4252 3.90516 15.4773 3.94412 15.5338C4.04753 15.6839 4.16266 15.829 4.2432 15.991C4.35389 16.2122 4.4156 16.4547 4.42414 16.7019C5.06838 16.6574 5.71255 16.6122 6.35628 16.5606C8.6731 16.3751 10.9893 16.1814 13.3058 15.991L13.3056 15.9884C14.1225 15.9212 14.9401 15.8606 15.7562 15.7857C18.0099 15.579 20.2632 15.3686 22.5161 15.1555C22.4847 14.8447 22.5331 14.5315 22.666 14.2164Z" fill="#339966"/>
<path d="M6.58168 11.9089C6.5212 12.0829 6.44662 12.2479 6.31816 12.383C6.19078 12.517 6.03688 12.6041 5.85338 12.6332C5.72851 12.653 5.60267 12.666 5.47581 12.6554C5.28507 12.6394 5.11624 12.5676 4.96183 12.4563C4.79947 12.3393 4.67126 12.1936 4.58701 12.0121C4.46431 11.7477 4.45451 11.4795 4.56869 11.2087C4.62756 11.0669 4.71937 10.9413 4.8365 10.8422C4.95414 10.7422 5.08773 10.6715 5.23798 10.6395C5.3394 10.6178 5.44371 10.6068 5.54738 10.5993C5.6868 10.5893 5.82064 10.6223 5.95084 10.67C5.99908 10.6877 6.04643 10.7078 6.09423 10.7267C6.17899 10.7602 6.25703 10.8048 6.32226 10.8691C6.34686 10.8934 6.37038 10.9195 6.38992 10.9479C6.44188 11.0232 6.49967 11.0962 6.54016 11.1775C6.62525 11.3486 6.64941 11.532 6.61929 11.7212C6.60917 11.7842 6.5943 11.8464 6.58168 11.9089ZM21.8602 10.6532C21.7997 10.8271 21.7252 10.9922 21.5967 11.1273C21.4693 11.2613 21.3154 11.3483 21.1319 11.3774C21.007 11.3972 20.8812 11.4103 20.7544 11.3997C20.5636 11.3836 20.3948 11.3119 20.2404 11.2006C20.078 11.0835 19.9498 10.9378 19.8656 10.7564C19.7428 10.492 19.7331 10.2238 19.8472 9.95293C19.9061 9.81121 19.9979 9.68558 20.115 9.58644C20.2327 9.48648 20.3663 9.41575 20.5165 9.38371C20.6179 9.36206 20.7222 9.35104 20.8259 9.3436C20.9653 9.33355 21.0992 9.36661 21.2294 9.41428C21.2776 9.43196 21.325 9.45208 21.3728 9.47098C21.4575 9.50442 21.5356 9.54902 21.6008 9.61335C21.6254 9.63763 21.6489 9.66377 21.6685 9.69215C21.7204 9.7675 21.7782 9.84048 21.8187 9.92178C21.9038 10.0929 21.9279 10.2763 21.8978 10.4655C21.8877 10.5284 21.8729 10.5906 21.8602 10.6532Z" fill="#66CC99"/>
<path d="M17.2594 12.1605C17.0502 12.8678 16.6619 13.5253 16.1028 14.041C14.7461 15.2922 12.5933 15.5245 11.0131 14.5612C10.9676 14.5332 10.9226 14.5046 10.8781 14.4752C8.53926 12.9214 8.16611 9.25182 10.6105 7.60826C12.197 6.54153 14.593 6.59836 16.068 7.84231C17.336 8.91166 17.7062 10.6498 17.2594 12.1605Z" fill="#66CC99"/>
<path d="M13.7741 13.4462C13.7858 13.5898 13.7999 13.7511 13.8121 13.9125C13.8221 14.0449 13.8068 14.0683 13.6721 14.0793C13.4918 14.0939 13.3106 14.101 13.1297 14.1069C13.0221 14.1103 12.9917 14.0805 12.981 13.9691C12.9668 13.8218 12.9562 13.6741 12.9434 13.5186C12.879 13.5084 12.8256 13.4986 12.7718 13.4917C12.3465 13.4369 12.0173 13.224 11.7652 12.8829C11.6554 12.7341 11.609 12.5574 11.5483 12.3878C11.5176 12.3019 11.5485 12.2482 11.6354 12.2107C11.6778 12.1922 11.7229 12.1803 11.7689 12.1756C11.9445 12.1591 12.1206 12.148 12.2963 12.133C12.3781 12.1261 12.4225 12.1644 12.4562 12.2368C12.5068 12.3457 12.5627 12.4531 12.6263 12.5548C12.7431 12.7416 12.9288 12.8107 13.1369 12.8167C13.3691 12.8235 13.5979 12.7714 13.7879 12.6438C14.2422 12.3386 14.2511 11.8618 13.8445 11.5138C13.67 11.3645 13.4469 11.2989 13.2266 11.2374C12.8289 11.1265 12.4284 11.0204 12.0607 10.8271C11.9254 10.7556 11.7987 10.6692 11.6829 10.5692C11.4213 10.3435 11.3382 10.0465 11.3946 9.71299C11.4845 9.18087 11.7919 8.82611 12.2978 8.64203C12.3629 8.61833 12.4297 8.5993 12.5099 8.57348C12.5066 8.50268 12.5045 8.43015 12.4997 8.35788C12.4937 8.26991 12.4847 8.18213 12.4783 8.09416C12.4714 7.99715 12.4921 7.95698 12.5816 7.94596C12.7747 7.92213 12.9689 7.90765 13.1629 7.89182C13.2398 7.88554 13.2863 7.93026 13.3045 7.99985C13.3243 8.07612 13.3395 8.15353 13.35 8.23166C13.3615 8.31847 13.3653 8.40638 13.3729 8.49877C13.4409 8.51248 13.4941 8.52395 13.5476 8.53395C14.1812 8.65235 14.4692 9.08086 14.6864 9.64065C14.719 9.72478 14.6889 9.78488 14.6044 9.8196C14.5581 9.83863 14.5065 9.8492 14.4564 9.85318C14.3362 9.86279 14.2152 9.86362 14.0949 9.8731C13.9955 9.88092 13.9319 9.84811 13.8839 9.75419C13.8383 9.66493 13.7707 9.58568 13.7059 9.5077C13.4033 9.14346 12.7507 9.25821 12.5012 9.59644C12.3777 9.76392 12.3888 9.99471 12.535 10.145C12.6324 10.246 12.7565 10.3172 12.8929 10.3504C13.0457 10.388 13.2012 10.4146 13.3549 10.4489C13.5629 10.4953 13.7733 10.5344 13.9776 10.5942C14.5667 10.7666 15.0234 11.3156 15.0528 11.8976C15.0657 12.1543 15.0152 12.3975 14.8806 12.6177C14.743 12.8426 14.5663 13.0322 14.3323 13.1597C14.158 13.2546 13.9791 13.3414 13.7741 13.4462Z" fill="white"/>
<path d="M26.4763 11.4854C25.8032 8.9933 25.3981 6.42858 24.6411 3.96235C24.5598 3.74457 24.4272 3.71176 23.9493 3.77904C23.6139 3.82626 23.2744 3.88021 22.9418 3.94966C16.4729 5.30144 10.0104 6.68622 3.52728 7.96656C2.72441 8.14557 0.818665 6.77387 0.555908 5.99386C-0.396258 3.16716 0.316665 8.71286 0.418795 9.6936C0.878699 11.5962 1.25973 13.5162 1.66076 15.4319C1.74623 15.8424 1.83176 16.253 1.91749 16.6634C1.94062 16.8367 2.07607 16.9589 2.25053 16.966C2.55353 16.9964 2.99492 16.8923 3.33437 16.8271C3.96592 16.7031 4.59773 16.5804 5.22909 16.4555C8.13165 15.8737 11.0286 15.2645 13.9285 14.669L13.928 14.6668C16.9704 14.0506 20.0017 13.3819 23.0365 12.7303C23.985 12.5258 24.9359 12.3248 25.8768 12.0881C26.1803 12.0283 26.6181 11.8383 26.4763 11.4854Z" fill="#2B8958"/>
<path d="M26.9655 10.7909C26.9079 10.5431 26.85 10.2953 26.792 10.0475L26.7915 10.0457C26.5738 9.11586 26.3544 8.18631 26.1442 7.25484C25.7311 5.42413 25.3308 3.59072 24.9169 1.7602L24.8932 1.655L24.87 1.55235C24.776 1.13775 24.6526 0.729035 24.5203 0.32327C24.4208 0.0180978 24.2824 -0.0368754 23.7976 0.0196356C23.5844 0.0444954 23.3697 0.0728789 23.1563 0.10799C23.0296 0.128694 22.9034 0.152171 22.7778 0.178404L22.7768 0.178597C22.6462 0.205956 22.5157 0.233506 22.3852 0.261121L22.312 0.276626C22.1849 0.3036 22.0577 0.330574 21.9306 0.357677L21.8737 0.369786C20.7654 0.606338 19.6581 0.848079 18.5488 1.0804C16.7413 1.45887 14.9313 1.82568 13.1232 2.20165C11.9176 2.4523 10.7132 2.70878 9.5089 2.96551C9.09808 3.0531 8.69071 3.15696 8.27924 3.24038C7.41114 3.41638 6.54156 3.5854 5.67211 3.75436C4.95009 3.89468 4.22576 4.02295 3.50534 4.17095C3.39725 4.19319 3.28917 4.21548 3.18114 4.23797L3.18095 4.23804C3.0175 4.27206 2.85412 4.30646 2.6908 4.34132L2.67132 4.34548C2.59418 4.36195 2.51711 4.37854 2.44003 4.39527L2.41312 4.4011C2.33538 4.41794 2.25769 4.43494 2.18002 4.4521L2.17041 4.45421C2.0943 4.471 2.01818 4.48798 1.94213 4.50502L1.92041 4.50989C1.84628 4.52655 1.77215 4.5434 1.69808 4.56032L1.65868 4.56935C1.58583 4.58607 1.51298 4.60292 1.44019 4.6199L1.40508 4.6281C1.32909 4.64591 1.25317 4.66379 1.17731 4.68192C1.03417 4.71614 0.893599 4.76291 0.755332 4.81513C0.617066 4.86734 0.481042 4.92501 0.347005 4.98107C0.261021 5.01702 0.190286 5.05796 0.135633 5.10377C0.130722 5.10788 0.125894 5.11209 0.121153 5.11639C0.0944844 5.14022 0.0709333 5.16732 0.051059 5.19706C0.0387573 5.21596 0.0286341 5.23544 0.0207533 5.25555C0.0148711 5.2706 0.0102002 5.28609 0.00678555 5.30188C-0.00121591 5.34011 -0.00214962 5.37948 0.00403053 5.41804C0.0100532 5.45776 0.0153713 5.49768 0.0203048 5.5376C0.0301077 5.61749 0.0381806 5.69778 0.0459332 5.77812C0.0498416 5.81829 0.053686 5.85847 0.0576584 5.89858C0.0616309 5.93868 0.0657955 5.97879 0.0702164 6.01884C0.0836073 6.13891 0.100009 6.2584 0.124741 6.37616C0.135633 6.428 0.146718 6.47983 0.157866 6.5316L0.166195 6.56972C0.174973 6.61002 0.183751 6.65026 0.192657 6.69056L0.200153 6.72407C0.209764 6.76745 0.219503 6.81076 0.229306 6.85407L0.233727 6.87361C0.369558 7.47339 0.517755 8.07066 0.644425 8.67236C1.04256 10.5637 1.435 12.4562 1.82802 14.3487L1.82827 14.35C1.94655 14.9197 2.06489 15.4894 2.18348 16.059C2.19194 16.0996 2.20143 16.1371 2.21238 16.1718C2.21603 16.1833 2.21981 16.1946 2.22372 16.2055C2.23557 16.2382 2.2489 16.2682 2.26396 16.2954C2.27902 16.3226 2.29587 16.3471 2.31477 16.369C2.33037 16.387 2.34764 16.4036 2.36634 16.4184C2.39255 16.439 2.42189 16.4563 2.45476 16.4703C2.46886 16.4763 2.4836 16.4818 2.49904 16.4866C2.51448 16.4914 2.53062 16.4957 2.54747 16.4995C2.57731 16.506 2.60752 16.5107 2.63794 16.5135C2.77358 16.527 2.94767 16.5144 3.17249 16.4812C3.19466 16.4779 3.21683 16.4738 3.23893 16.4695C3.26104 16.4652 3.28314 16.4606 3.30525 16.4563L3.3082 16.4558C3.39213 16.4395 3.47613 16.4232 3.56006 16.4071L3.64784 16.3901L3.81404 16.3582L3.92142 16.3375L4.03156 16.3164C4.5417 16.2186 5.0519 16.1212 5.56172 16.022H5.56184C5.94486 15.9476 6.32754 15.8715 6.70988 15.7938C9.25556 15.2748 11.7993 14.7461 14.3439 14.2213L14.3432 14.2183C15.2405 14.0332 16.1397 13.8558 17.0349 13.6617C19.6028 13.1045 22.1698 12.5432 24.7358 11.9778C24.9445 11.9319 25.1528 11.884 25.3607 11.8342C25.7068 11.7514 26.052 11.6644 26.3961 11.5734C26.4156 11.5683 26.4351 11.5629 26.4545 11.5572L26.4565 11.5567L26.4822 11.549L26.488 11.5472L26.5107 11.54L26.5133 11.5392C26.5216 11.5365 26.5298 11.5337 26.5379 11.531L26.5422 11.5295L26.5641 11.5218L26.5664 11.521C26.5745 11.5181 26.5823 11.5151 26.5902 11.5121L26.5925 11.5112C26.5999 11.5084 26.6071 11.5055 26.6143 11.5026L26.616 11.502C26.6237 11.4989 26.6314 11.4957 26.6389 11.4925L26.6392 11.4923C26.6466 11.4891 26.6539 11.4859 26.661 11.4827L26.6621 11.4822C26.6768 11.4755 26.6909 11.4688 26.7045 11.4618L26.705 11.4616C26.7187 11.4546 26.7319 11.4474 26.7445 11.4401L26.7447 11.44C26.9336 11.3308 27.0076 11.1864 26.9994 10.9864C26.9965 10.9202 26.9804 10.8554 26.9655 10.7909Z" fill="#66CC99"/>
<path d="M23.2584 10.2931C23.3434 9.99499 23.4891 9.73223 23.6993 9.50439C23.9077 9.27854 24.1546 9.10657 24.4438 9.007C24.6389 8.93979 24.8425 8.89289 25.0454 8.85311C25.0861 8.84514 25.1272 8.83898 25.1685 8.83465C25.0432 8.30707 24.9203 7.77894 24.7996 7.25029C24.4861 5.87077 24.182 4.4892 23.8697 3.10942C23.7115 3.14543 23.5512 3.17112 23.3877 3.17727C23.0069 3.19162 22.656 3.09052 22.3241 2.90779C21.975 2.71564 21.6866 2.45865 21.4765 2.12035C21.3642 1.93967 21.282 1.75424 21.2305 1.56421C20.1896 1.78526 19.1499 2.01168 18.1082 2.22959C16.4912 2.56782 14.8719 2.89638 13.2543 3.2325C12.1757 3.45662 11.0982 3.68549 10.0206 3.91467C9.65306 3.99284 9.28837 4.08446 8.92028 4.15917C8.14367 4.31685 7.3659 4.4687 6.5882 4.62055C5.94236 4.74664 5.29467 4.86274 4.65017 4.99517C4.24798 5.07753 3.84635 5.16262 3.44531 5.25043C3.4603 5.35935 3.46562 5.47084 3.46145 5.58456C3.45684 5.71136 3.44249 5.83784 3.43256 5.96444C3.35497 6.32267 3.24733 6.66679 3.02609 6.96479C2.80671 7.26022 2.52358 7.46935 2.16798 7.57103C2.04157 7.60717 1.91413 7.63972 1.78522 7.664C1.87197 8.03152 1.96045 8.39871 2.03836 8.76808C2.36365 10.3107 2.68395 11.8544 3.00469 13.398C3.03147 13.3925 3.05832 13.3871 3.0851 13.3819C3.35817 13.3284 3.63054 13.3615 3.89925 13.4243C3.99882 13.4476 4.09717 13.4761 4.19616 13.5018C4.37172 13.5475 4.53664 13.6168 4.68099 13.7282C4.73545 13.7701 4.78818 13.8163 4.83367 13.8676C4.95451 14.004 5.08631 14.1341 5.18594 14.2851C5.3226 14.4913 5.41323 14.7246 5.45164 14.9689C6.08576 14.8467 6.71974 14.7239 7.35245 14.5948C9.6298 14.1301 11.9055 13.6574 14.1819 13.188L14.1814 13.1855C14.9841 13.0199 15.7884 12.8607 16.5894 12.6877C18.8014 12.2095 21.0127 11.7282 23.2233 11.2437C23.1546 10.9388 23.1648 10.6219 23.2584 10.2931Z" fill="#339966"/>
<path d="M7.01311 9.94994C6.97416 10.1299 6.92008 10.3028 6.80892 10.4525C6.69872 10.6009 6.55648 10.7059 6.37785 10.757C6.2563 10.7918 6.13296 10.82 6.00572 10.8248C5.8144 10.832 5.63821 10.7812 5.47143 10.6894C5.29606 10.5928 5.1512 10.4638 5.04561 10.2938C4.89177 10.0462 4.84955 9.78112 4.93015 9.4985C4.97141 9.35068 5.04734 9.21485 5.15165 9.10228C5.25634 8.98881 5.38038 8.90244 5.52563 8.8524C5.62366 8.81863 5.72592 8.79506 5.82786 8.77513C5.96503 8.74822 6.10189 8.76488 6.23689 8.79647C6.28693 8.80819 6.33633 8.82241 6.38605 8.83536C6.47421 8.85829 6.55712 8.89315 6.62965 8.94908C6.657 8.97016 6.68347 8.99336 6.70634 9.01911C6.76701 9.08767 6.83327 9.15302 6.88331 9.22888C6.98851 9.38842 7.03471 9.56757 7.02766 9.75901C7.02535 9.82283 7.01811 9.88638 7.01311 9.94994ZM22.0273 6.85369C21.9883 7.03367 21.9343 7.20653 21.8231 7.3562C21.7129 7.50466 21.5707 7.60967 21.392 7.66074C21.2705 7.69553 21.1471 7.72372 21.0199 7.72852C20.8286 7.7357 20.6524 7.68495 20.4856 7.59314C20.3102 7.49658 20.1654 7.36754 20.0598 7.19756C19.906 6.94993 19.8637 6.68486 19.9443 6.40224C19.9856 6.25443 20.0615 6.11859 20.1658 6.00603C20.2705 5.89256 20.3946 5.80619 20.5398 5.75615C20.6378 5.72238 20.7401 5.6988 20.842 5.67888C20.9792 5.65197 21.1161 5.66863 21.2511 5.70021C21.3011 5.71194 21.3505 5.72616 21.4002 5.7391C21.4884 5.76204 21.5713 5.7969 21.6438 5.85283C21.6712 5.87391 21.6976 5.8971 21.7205 5.92286C21.7812 5.99142 21.8474 6.05677 21.8975 6.13263C22.0027 6.29217 22.0489 6.47131 22.0418 6.66276C22.0395 6.72657 22.0323 6.79013 22.0273 6.85369Z" fill="#66CC99"/>
<path d="M17.6428 8.90665C17.5207 9.63412 17.2149 10.3338 16.7223 10.9133C15.5271 12.3195 13.4182 12.8108 11.7331 12.0458C11.6845 12.0236 11.6364 12.0006 11.5886 11.9768C9.07884 10.7176 8.26424 7.12021 10.4916 5.19281C11.9373 3.94188 14.3225 3.70815 15.9374 4.76443C17.3255 5.67245 17.9033 7.35298 17.6428 8.90665Z" fill="#66CC99"/>
<path d="M14.3388 10.6051C14.3679 10.7463 14.4015 10.9046 14.433 11.0634C14.459 11.1936 14.4466 11.2187 14.3143 11.2458C14.137 11.2822 13.9581 11.3112 13.7793 11.3389C13.6729 11.3553 13.6391 11.3294 13.615 11.2201C13.5831 11.0756 13.5547 10.9304 13.5232 10.7774C13.4581 10.7751 13.4038 10.7719 13.3495 10.7715C12.9208 10.7686 12.5681 10.5972 12.2767 10.289C12.1496 10.1547 12.0822 9.98491 12.0014 9.82377C11.9605 9.74227 11.9847 9.68525 12.0664 9.63745C12.1063 9.61393 12.1496 9.5967 12.1947 9.58639C12.367 9.54884 12.5404 9.51642 12.713 9.48035C12.7935 9.46356 12.842 9.49618 12.8843 9.56409C12.9478 9.66603 13.0163 9.76579 13.0917 9.85914C13.2302 10.0305 13.4228 10.0765 13.6302 10.0574C13.8615 10.036 14.0824 9.95653 14.2554 9.80686C14.6695 9.44889 14.6206 8.97457 14.1748 8.67837C13.9835 8.55125 13.7541 8.51319 13.5279 8.47885C13.1197 8.41683 12.7093 8.36006 12.3209 8.21263C12.178 8.15812 12.0417 8.0876 11.9147 8.00241C11.6277 7.81001 11.5093 7.52521 11.5248 7.18736C11.5496 6.64826 11.8118 6.2589 12.2917 6.01492C12.3535 5.98352 12.4175 5.95648 12.4939 5.92118C12.4821 5.85128 12.4713 5.77958 12.4577 5.7084C12.4412 5.62177 12.4215 5.53573 12.4046 5.44917C12.386 5.35376 12.4017 5.31135 12.4891 5.28956C12.6779 5.24247 12.869 5.20467 13.0597 5.16539C13.1351 5.14989 13.1869 5.18859 13.2133 5.25548C13.2421 5.32865 13.2667 5.40393 13.2864 5.48005C13.3084 5.56482 13.3228 5.65157 13.3416 5.74242C13.4108 5.7478 13.4649 5.75274 13.5193 5.7562C14.1625 5.79701 14.5004 6.18753 14.7837 6.71688C14.8263 6.79646 14.8037 6.85976 14.724 6.90448C14.6804 6.92896 14.6304 6.94568 14.5812 6.95574C14.463 6.97983 14.343 6.99534 14.2247 7.01924C14.127 7.03897 14.0598 7.01418 14.0008 6.92678C13.9448 6.84375 13.8681 6.7732 13.7944 6.70369C13.4499 6.37878 12.8159 6.5717 12.6093 6.93761C12.5069 7.1188 12.5459 7.34658 12.7092 7.47799C12.8181 7.56647 12.95 7.62217 13.0893 7.63862C13.2456 7.65745 13.4032 7.66508 13.5599 7.68045C13.772 7.70128 13.9856 7.71467 14.1956 7.74927C14.8013 7.84909 15.321 8.33872 15.4206 8.91287C15.4646 9.16608 15.4439 9.41365 15.3369 9.64847C15.2275 9.88836 15.0751 10.0981 14.8583 10.2529C14.6968 10.3684 14.5297 10.4761 14.3388 10.6051Z" fill="white"/>
</svg>
