<svg width="15" height="15" viewBox="0 0 15 15" fill="none" xmlns="http://www.w3.org/2000/svg">
<path d="M7.5 15C11.635 15 15 11.635 15 7.5C15 3.36501 11.635 0 7.5 0C3.36497 0 0 3.36501 0 7.5C0 11.635 3.36501 15 7.5 15ZM7.5 0.999983C11.085 0.999983 14 3.91497 14 7.5C14 11.085 11.085 14 7.5 14C3.91497 14 0.999983 11.085 0.999983 7.5C0.999983 3.91497 3.91501 0.999983 7.5 0.999983Z" fill="#8E9DBA" fill-opacity="0.62"/>
<path d="M9.68725 9.88975C9.77977 9.96474 9.88974 9.99976 9.99975 9.99976C10.0747 9.99991 10.1487 9.98313 10.2162 9.95066C10.2837 9.91819 10.3431 9.87088 10.3897 9.81227C10.5622 9.59726 10.5272 9.28226 10.3122 9.10975L7.99974 7.25975V3.49975C7.99974 3.22474 7.77475 2.99976 7.49975 2.99976C7.22474 2.99976 6.99976 3.22474 6.99976 3.49975V7.49976C6.99976 7.65228 7.06977 7.79477 7.18725 7.88975L9.68725 9.88975Z" fill="#8E9DBA" fill-opacity="0.62"/>
</svg>
