<svg width="20" height="22" viewBox="0 0 20 22" fill="none" xmlns="http://www.w3.org/2000/svg">
<path d="M19.1826 21.2793L0 21.3202V6.40038L9.59131 0.675781L19.1826 6.35952V21.2793Z" fill="#0292C9"/>
<path d="M15.9855 21.3233L16.2415 20.4255C16.7756 18.6452 16.9391 16.7743 16.722 14.9283C16.4714 12.7981 15.7206 10.7574 14.5308 8.97272C13.8485 7.94929 12.9859 7.05839 11.985 6.34346C11.3438 5.88542 10.6126 5.56868 9.83994 5.41416C9.44417 5.33503 9.03459 5.36053 8.65169 5.48814L7.808 5.7694C7.58763 5.84286 7.38591 5.96346 7.2169 6.12281C7.04788 6.28217 6.91562 6.47644 6.82934 6.69212L6.39417 7.78002L4.27214 8.84102C4.18203 8.88607 4.10253 8.94977 4.03892 9.0279C3.97531 9.10602 3.92905 9.19678 3.90319 9.29415C3.87734 9.39152 3.87248 9.49327 3.88896 9.59266C3.90543 9.69205 3.94285 9.7868 3.99874 9.87062L4.97324 11.3324L7.0712 11.1414V21.3198L15.9855 21.3233Z" fill="#FBB540"/>
<path d="M13.4989 9.03391C13.4989 9.41077 13.3492 9.77219 13.0827 10.0387C12.8162 10.3051 12.4548 10.4548 12.0779 10.4548C11.7011 10.4548 11.3396 10.3051 11.0732 10.0387C10.8067 9.77219 10.657 9.41077 10.657 9.03391V8.29147C10.6569 7.72492 10.503 7.16903 10.2116 6.68315L9.84972 6.08014C9.69656 5.82498 9.51594 5.58733 9.31109 5.37145C9.33596 5.37056 9.36038 5.37012 9.38525 5.37012C9.53792 5.37001 9.69024 5.38504 9.83995 5.41497C10.6127 5.56943 11.3439 5.88621 11.9851 6.34435C12.1352 6.4518 12.2823 6.56311 12.4265 6.67827C12.7633 6.97141 13.0333 7.33338 13.2183 7.73974C13.4032 8.14611 13.4989 8.58742 13.4989 9.03391ZM4.60469 10.0392L4.26278 10.2675L3.99857 9.87138C3.94274 9.78752 3.90536 9.69276 3.88892 9.59336C3.87248 9.49397 3.87736 9.39222 3.90322 9.29485C3.92909 9.19748 3.97535 9.10673 4.03894 9.02859C4.10254 8.95046 4.18201 8.88673 4.2721 8.84164L4.97102 8.49218L4.97324 8.49129L5.05362 8.73196C5.13247 8.96894 5.13125 9.22527 5.05013 9.46148C4.96901 9.69769 4.8125 9.90069 4.60469 10.0392Z" fill="#FBB540"/>
<path d="M14.6107 13.7024L12.433 15.88L10.2554 13.7024C10.1575 13.6044 10.0797 13.4881 10.0267 13.3601C9.9737 13.2321 9.94641 13.0949 9.94641 12.9564C9.94641 12.6766 10.0576 12.4082 10.2554 12.2104C10.4533 12.0125 10.7216 11.9014 11.0014 11.9014C11.14 11.9014 11.2771 11.9287 11.4051 11.9817C11.5331 12.0347 11.6494 12.1124 11.7474 12.2104L12.433 12.896L13.1187 12.2104C13.2167 12.1124 13.333 12.0347 13.461 11.9817C13.589 11.9287 13.7261 11.9014 13.8647 11.9014C14.1445 11.9014 14.4128 12.0125 14.6107 12.2104C14.8085 12.4082 14.9197 12.6766 14.9197 12.9564C14.9197 13.0949 14.8924 13.2321 14.8394 13.3601C14.7864 13.4881 14.7086 13.6044 14.6107 13.7024Z" fill="#E82F3E"/>
<path d="M8.03703 8.49154C8.30679 8.49154 8.52548 8.27286 8.52548 8.0031C8.52548 7.73333 8.30679 7.51465 8.03703 7.51465C7.76727 7.51465 7.54858 7.73333 7.54858 8.0031C7.54858 8.27286 7.76727 8.49154 8.03703 8.49154Z" fill="#D18D28"/>
<path d="M7.07121 11.1424L8.65129 10.9988C8.72148 10.9924 8.78887 10.9682 8.84708 10.9285C8.90528 10.8887 8.95237 10.8348 8.98388 10.7718C9.00981 10.7199 9.0488 10.6758 9.09699 10.6436C9.14519 10.6114 9.20093 10.5923 9.25873 10.5882C9.31654 10.5842 9.37441 10.5952 9.42666 10.6203C9.4789 10.6453 9.52372 10.6836 9.55669 10.7312C9.5934 10.7843 9.61393 10.8469 9.61578 10.9114C9.61763 10.9759 9.60073 11.0396 9.56713 11.0947C9.48737 11.2255 9.37881 11.3364 9.24972 11.4189C9.12063 11.5015 8.97442 11.5535 8.8222 11.5709L7.10465 11.7683L7.07121 11.1424ZM13.4989 9.03391C13.4989 9.41077 13.3492 9.77219 13.0827 10.0387C12.8162 10.3051 12.4548 10.4548 12.0779 10.4548C11.7011 10.4548 11.3396 10.3051 11.0732 10.0387C10.8067 9.77219 10.657 9.41077 10.657 9.03391V8.29147C10.6569 7.72492 10.503 7.16903 10.2116 6.68315L9.84972 6.08014C9.69656 5.82498 9.51594 5.58733 9.31109 5.37145C9.33596 5.37056 9.36038 5.37012 9.38525 5.37012C9.53792 5.37001 9.69024 5.38504 9.83995 5.41497C10.6127 5.56943 11.3439 5.88621 11.9851 6.34435L12.1898 6.49088C12.272 6.54949 12.3509 6.61196 12.4265 6.67827C12.7633 6.97141 13.0333 7.33338 13.2183 7.73974C13.4032 8.14611 13.4989 8.58742 13.4989 9.03391ZM4.60469 10.0392L4.26278 10.2675L3.99857 9.87138C3.94274 9.78752 3.90536 9.69276 3.88892 9.59336C3.87248 9.49397 3.87736 9.39222 3.90322 9.29485C3.92909 9.19748 3.97535 9.10673 4.03894 9.02859C4.10254 8.95046 4.18201 8.88673 4.2721 8.84164L4.97102 8.49218L4.97324 8.49129L5.05362 8.73196C5.13247 8.96894 5.13125 9.22527 5.05013 9.46148C4.96901 9.69769 4.8125 9.90069 4.60469 10.0392Z" fill="#D18D28"/>
<path d="M10.3017 18.0825L10.3974 18.1098C11.0862 18.3066 11.6922 18.7224 12.1236 19.2944C12.555 19.8663 12.7884 20.5632 12.7884 21.2796V21.324H3.90752L3.69265 20.5813C3.31455 19.3524 3.20776 18.0562 3.37968 16.782C3.5516 15.5079 3.99811 14.2863 4.68837 13.2016L4.97322 12.7539L5.05541 12.5896C5.24419 12.2121 5.53438 11.8945 5.89347 11.6726C6.25256 11.4506 6.66636 11.333 7.0885 11.333H7.10462V12.7539L8.34248 13.3729C8.62069 13.512 8.86346 13.7128 9.05227 13.96C9.24108 14.2072 9.37093 14.4942 9.43194 14.7992L9.59126 15.5958L9.62727 15.6318C9.81272 15.8173 9.92327 16.0646 9.93777 16.3265C9.95227 16.5883 9.8697 16.8463 9.70587 17.0511L9.59126 17.1944L10.3017 18.0825Z" fill="#FBFDFF"/>
<path d="M7.92684 18.4375C7.6194 18.4383 7.31484 18.3782 7.0308 18.2605C6.74675 18.1429 6.48887 17.9701 6.27207 17.7521L6.14299 17.623C6.07637 17.5564 6.03894 17.466 6.03894 17.3718C6.03894 17.2776 6.07637 17.1872 6.14299 17.1206C6.20961 17.054 6.29997 17.0165 6.39418 17.0165C6.4884 17.0165 6.57876 17.054 6.64538 17.1206L6.77446 17.2497C6.93652 17.4117 7.13095 17.5378 7.34504 17.6196C7.55914 17.7015 7.78808 17.7372 8.01693 17.7245C8.24578 17.7119 8.46938 17.6511 8.67313 17.5461C8.87688 17.4411 9.0562 17.2944 9.19938 17.1154L9.31389 16.9722C9.37278 16.8986 9.45848 16.8514 9.55213 16.841C9.64579 16.8306 9.73974 16.8579 9.81331 16.9168C9.88688 16.9757 9.93404 17.0614 9.94443 17.155C9.95481 17.2487 9.92757 17.3426 9.86868 17.4162L9.75412 17.5594C9.53544 17.834 9.25749 18.0557 8.94106 18.2077C8.62463 18.3598 8.27791 18.4383 7.92684 18.4375Z" fill="#CBCBCB"/>
<path d="M7.81511 15.7288C8.08487 15.7288 8.30355 15.5102 8.30355 15.2404C8.30355 14.9706 8.08487 14.752 7.81511 14.752C7.54535 14.752 7.32666 14.9706 7.32666 15.2404C7.32666 15.5102 7.54535 15.7288 7.81511 15.7288Z" fill="#CBCBCB"/>
</svg>
