<svg width="21" height="20" viewBox="0 0 21 20" fill="none" xmlns="http://www.w3.org/2000/svg">
<path d="M16.8241 16.1616C16.7762 16.86 16.51 17.5108 16.0548 18.043C15.5997 18.5753 14.9983 18.9388 14.3154 19.0948C14.0779 19.1492 13.835 19.1767 13.5912 19.1768C13.1473 19.1768 12.7074 19.085 12.2925 18.9023C11.4805 18.5454 10.6093 18.3669 9.73787 18.3669C8.88151 18.3669 8.02514 18.5391 7.22501 18.8839L7.18305 18.9024C6.54169 19.1841 5.84221 19.2506 5.15934 19.0947C4.47696 18.9384 3.87555 18.5748 3.42003 18.0426C2.96533 17.51 2.69951 16.8597 2.65148 16.1613C2.60341 15.4629 2.77789 14.7818 3.15569 14.1926L5.43267 10.6404C6.37767 9.16639 7.987 8.28632 9.73787 8.28632C11.4887 8.28632 13.098 9.16639 14.0429 10.6404L16.3199 14.1926C16.6979 14.7822 16.8722 15.4629 16.8241 16.1616ZM3.76916 10.6357C4.44653 10.3756 4.96115 9.8297 5.21816 9.0988C5.46281 8.40297 5.44276 7.61756 5.16155 6.88716C4.88023 6.15687 4.36852 5.56087 3.72076 5.20871C3.03998 4.83859 2.29227 4.77854 1.61596 5.03903C0.25543 5.56215 -0.368951 7.24362 0.224299 8.78782C0.698235 10.017 1.80361 10.7929 2.92108 10.7929C3.21104 10.7933 3.49858 10.74 3.76916 10.6357ZM11.2721 4.33857C11.2721 5.63261 10.6545 6.76554 9.73787 7.37536C9.2819 7.67892 8.75173 7.85295 8.18711 7.85295C6.48644 7.85295 5.10278 6.27606 5.10278 4.33857C5.10278 2.40009 6.48644 0.823242 8.18715 0.823242C8.75173 0.823242 9.28186 0.99723 9.73787 1.30087C10.6545 1.91065 11.2721 3.04387 11.2721 4.33857Z" fill="#FF904C"/>
<path d="M17.2193 6.55414C16.758 7.94146 15.5492 8.84458 14.3088 8.84458C14.0388 8.84477 13.7706 8.80143 13.5144 8.71624C12.0322 8.22344 11.2818 6.4516 11.8419 4.76672C12.1069 3.9684 12.6265 3.30234 13.3044 2.89157C14.0142 2.46202 14.8103 2.3598 15.5463 2.60446C16.2825 2.84941 16.859 3.40747 17.1699 4.17634C17.4675 4.91077 17.4851 5.75528 17.2193 6.55414ZM20.3525 12.2894C19.7267 13.1342 18.7901 13.5937 17.8898 13.5937C17.3731 13.5937 16.8684 13.4428 16.4413 13.1261C15.2703 12.2595 15.1167 10.4724 16.0991 9.14293C17.0826 7.81443 18.8367 7.43885 20.0099 8.30547L20.0103 8.30596C21.1818 9.17336 21.3353 10.9603 20.3525 12.2894ZM9.73779 7.37524V1.30078C10.6544 1.91056 11.272 3.04378 11.272 4.33848C11.272 5.63252 10.6544 6.76541 9.73779 7.37524ZM16.3199 14.1925C16.6978 14.7821 16.8721 15.4629 16.824 16.1616C16.7762 16.8599 16.5098 17.5107 16.0547 18.0429C15.5997 18.5752 14.9982 18.9387 14.3153 19.0947C14.0778 19.1491 13.8349 19.1766 13.5912 19.1767C13.1472 19.1767 12.7073 19.0849 12.2925 18.9022C11.4805 18.5453 10.6092 18.3668 9.73779 18.3668V8.28623C11.4886 8.28623 13.0979 9.16631 14.0428 10.6403L16.3199 14.1925Z" fill="#F57039"/>
</svg>
