<svg width="19" height="15" viewBox="0 0 19 15" fill="none" xmlns="http://www.w3.org/2000/svg">
<path d="M4.45799 4.01786C5.72993 2.85714 7.42093 1.92857 9.49853 1.92857C11.5761 1.92857 13.2671 2.85714 14.5391 4.01786C15.811 5.17857 16.6609 6.57143 17.0534 7.5C16.6609 8.42857 15.811 9.82143 14.5391 10.9821C13.2671 12.1429 11.5761 13.0714 9.49853 13.0714C7.42093 13.0714 5.72993 12.1429 4.45799 10.9821C3.18605 9.82143 2.33613 8.42857 1.94362 7.5C2.33613 6.57143 3.18605 5.17857 4.45799 4.01786ZM9.49853 1C7.11401 1 5.20463 2.06786 3.81464 3.33884C2.43351 4.59821 1.50981 6.10714 1.07304 7.14308C0.975653 7.37232 0.975653 7.62768 1.07304 7.85692C1.50981 8.89286 2.43351 10.4018 3.81464 11.6612C5.20463 12.9321 7.11401 14 9.49853 14C11.883 14 13.7924 12.9321 15.1824 11.6612C16.5635 10.3989 17.4872 8.89286 17.927 7.85692C18.0243 7.62768 18.0243 7.37232 17.927 7.14308C17.4872 6.10714 16.5635 4.59821 15.1824 3.33884C13.7924 2.06786 11.883 1 9.49853 1ZM6.66544 7.5C6.66544 6.76118 6.96392 6.05263 7.49523 5.5302C8.02654 5.00778 8.74714 4.71429 9.49853 4.71429C10.2499 4.71429 10.9705 5.00778 11.5018 5.5302C12.0331 6.05263 12.3316 6.76118 12.3316 7.5C12.3316 8.23882 12.0331 8.94737 11.5018 9.4698C10.9705 9.99222 10.2499 10.2857 9.49853 10.2857C8.74714 10.2857 8.02654 9.99222 7.49523 9.4698C6.96392 8.94737 6.66544 8.23882 6.66544 7.5ZM13.276 7.5C13.276 6.51491 12.878 5.57017 12.1696 4.8736C11.4612 4.17704 10.5004 3.78571 9.49853 3.78571C8.49668 3.78571 7.53587 4.17704 6.82746 4.8736C6.11906 5.57017 5.72108 6.51491 5.72108 7.5C5.72108 8.48509 6.11906 9.42983 6.82746 10.1264C7.53587 10.823 8.49668 11.2143 9.49853 11.2143C10.5004 11.2143 11.4612 10.823 12.1696 10.1264C12.878 9.42983 13.276 8.48509 13.276 7.5Z" fill="#889099" stroke="#889099" stroke-width="0.6"/>
</svg>
