<svg width="27" height="26" viewBox="0 0 27 26" fill="none" xmlns="http://www.w3.org/2000/svg">
<path d="M-3.24249e-05 8.62415V23.0934C0.000736237 23.864 0.307219 24.6029 0.85215 25.1478C1.39708 25.6928 2.13595 25.9992 2.9066 26H7.75099C8.26492 26 8.75779 25.7958 9.12119 25.4324C9.48459 25.069 9.68875 24.5762 9.68875 24.0622V18.7334C9.68875 18.4765 9.79082 18.23 9.97252 18.0483C10.1542 17.8666 10.4007 17.7645 10.6576 17.7645H15.502C15.759 17.7645 16.0054 17.8666 16.1871 18.0483C16.3688 18.23 16.4709 18.4765 16.4709 18.7334V24.0622C16.4709 24.5762 16.675 25.069 17.0384 25.4324C17.4018 25.7958 17.8947 26 18.4086 26H23.253C24.0237 25.9992 24.7626 25.6928 25.3075 25.1478C25.8524 24.6029 26.1589 23.864 26.1597 23.0934V8.62415C26.1589 8.28953 26.072 7.96076 25.9072 7.66954C25.7424 7.37831 25.5054 7.13448 25.2189 6.96155L14.0768 0.276294C13.7756 0.0955036 13.4309 0 13.0796 0C12.7283 0 12.3836 0.0955036 12.0824 0.276294L0.940264 6.96155C0.653889 7.13454 0.416924 7.3784 0.252222 7.66962C0.0875206 7.96083 0.000642776 8.28958 -3.24249e-05 8.62415Z" fill="white"/>
</svg>
