<svg width="18" height="18" viewBox="0 0 18 18" fill="none" xmlns="http://www.w3.org/2000/svg">
<path d="M4.78062 4.89844H4.55935L4.14587 6.96634H5.19409L4.78062 4.89844ZM13.144 9.03425C13.3673 9.6339 13.6642 10.1193 13.9928 10.5323C14.3214 10.1193 14.6528 9.63387 14.876 9.03425H13.144Z" fill="#5D80D3"/>
<path d="M16.0952 3.31299H9.67494L11.0136 14.055C11.0373 14.4944 10.9172 14.908 10.6304 15.2319L8.3634 17.8228H16.0952C16.9504 17.8228 17.6461 17.1271 17.6461 16.2719V4.89838C17.6461 4.04317 16.9504 3.31299 16.0952 3.31299ZM16.0952 9.03419H15.9571C15.663 9.97795 15.1965 10.7164 14.7117 11.2986C15.0915 11.6458 15.4976 11.9306 15.9013 12.2496C16.124 12.4279 16.1603 12.753 15.9816 12.9761C15.8037 13.1989 15.4773 13.2351 15.2551 13.0564C14.8164 12.7101 14.4046 12.4203 13.9928 12.0424C13.581 12.4203 13.2037 12.7101 12.765 13.0564C12.5428 13.2351 12.2164 13.1989 12.0385 12.9761C11.8598 12.753 11.8961 12.4279 12.1188 12.2496C12.5225 11.9306 12.8942 11.6458 13.274 11.2986C12.7892 10.7165 12.3571 9.97798 12.063 9.03419H11.9249C11.6392 9.03419 11.4079 8.80296 11.4079 8.51721C11.4079 8.23146 11.6392 8.00024 11.9249 8.00024H13.4758V7.48326C13.4758 7.19751 13.7071 6.96629 13.9928 6.96629C14.2786 6.96629 14.5098 7.19751 14.5098 7.48326V8.00024H16.0952C16.3809 8.00024 16.6122 8.23146 16.6122 8.51721C16.6122 8.80296 16.3809 9.03419 16.0952 9.03419Z" fill="#5D80D3"/>
<path d="M8.41513 1.53534C8.3187 0.760872 7.65683 0.176758 6.87633 0.176758H1.55093C0.695712 0.176758 0 0.87247 0 1.72769V13.1701C0 14.0253 0.695712 14.721 1.55093 14.721H9.70368C9.8545 14.5486 9.98091 14.4407 9.98626 14.2157C9.98757 14.1592 8.42213 1.59131 8.41513 1.53534ZM6.33964 10.0581C6.06551 10.1146 5.78782 9.93658 5.7313 9.65272L5.40088 8.00033H3.93919L3.60877 9.65272C3.55325 9.93241 3.28363 10.1162 3.00043 10.0581C2.72074 10.0021 2.53897 9.72999 2.59501 9.44979L3.62893 4.28003C3.67739 4.03871 3.88945 3.86452 4.13581 3.86452H5.20423C5.45058 3.86452 5.66265 4.03871 5.7111 4.28003L6.74506 9.44979C6.8011 9.72999 6.61936 10.0021 6.33964 10.0581ZM6.04038 15.755L6.1291 16.4643C6.18824 16.9393 6.50387 17.4237 7.02305 17.6656L8.75868 15.755H6.04038Z" fill="#5D80D3"/>
</svg>
