<svg width="479" height="304" viewBox="0 0 479 304" fill="none" xmlns="http://www.w3.org/2000/svg">
<path d="M131.706 163.555C131.706 152.561 131.803 141.561 131.675 130.568C131.56 120.404 130.997 110.241 131.076 100.083C131.1 96.8351 130.069 95.1624 127.47 93.5018C121.561 89.7322 117.379 84.4657 115.13 77.7325C111.731 67.5328 117.688 56.8422 128.118 54.5574C128.645 54.4422 129.197 54.3634 129.736 54.3695C130.912 54.3816 131.276 53.7634 131.245 52.6907C130.888 39.3093 131.445 25.9278 131.354 12.5463C131.342 10.8433 131.451 9.14034 131.439 7.43129C131.403 3.61926 135.003 0.64964 138.354 0.970844C144.875 1.59507 151.433 1.84355 157.984 1.71628C167.802 1.51628 177.608 1.03145 187.426 0.74661C195.953 0.498131 204.48 0.431462 213.007 0.164802C222.158 -0.120039 231.309 -0.0230671 240.442 0.358741C255.86 1.00115 271.169 2.64959 286.096 6.82524C290.356 8.01915 294.52 9.42518 298.568 11.2857C301.817 12.7766 305.198 14.0735 308.301 15.8068C317.744 21.0794 325.925 27.958 332.18 36.8366C337.379 44.2182 341.252 52.3453 343.567 61.0724C344.24 63.6056 345.216 63.7814 347.355 63.7632C355.646 63.6905 363.524 71.2236 364.051 79.5204C364.712 89.9019 359.445 98.6411 350.282 102.344C349.718 102.574 349.143 102.811 348.549 102.938C345.47 103.599 345.234 103.586 345.203 106.774C345.119 115.58 345.246 124.392 345.294 133.198C345.3 134.428 345.361 135.652 345.373 136.876C345.47 149.573 345.543 162.276 345.652 174.972C345.719 182.821 345.852 190.669 345.931 198.517C345.973 202.632 343.185 205.444 339.04 205.457C333.646 205.469 328.258 205.414 322.865 205.408C322.168 205.408 321.525 205.293 320.871 205.044C319.01 204.329 318.374 204.681 318.083 206.584C316.84 214.814 312.75 221.22 305.568 225.438C302.259 227.383 298.75 228.668 294.69 228.929C291.344 229.147 288.041 228.777 284.714 228.959C282.387 229.086 279.932 228.129 277.975 226.886C275.545 225.341 272.836 224.195 270.696 222.153C266.218 217.88 263.399 212.711 262.181 206.687C261.915 205.366 261.406 205.069 260.169 205.069C246.848 205.093 233.534 205.093 220.213 205.032C218.825 205.026 218.237 205.287 217.898 206.808C215.728 216.638 210.189 223.856 200.686 227.523C185.395 233.426 167.517 226.414 162.414 209.863C162.196 209.147 161.869 208.463 161.699 207.735C160.996 204.693 161.014 204.62 157.808 204.657C151.875 204.723 145.942 204.941 140.009 204.984C134.372 205.026 131.736 202.323 131.736 196.754C131.742 185.687 131.736 174.621 131.736 163.561C131.748 163.555 131.724 163.555 131.706 163.555ZM203.843 42.6001C209.716 42.7516 215.273 43.9152 220.74 45.7091C228.564 48.2787 234.921 52.7695 239.467 59.7088C240.376 61.1027 240.848 62.4663 239.667 63.945C237.836 66.2298 235.624 66.1934 233.703 63.9753C232.382 62.4481 231.831 60.0906 229.885 59.3209C226.734 58.0785 224.182 55.8967 220.922 54.6907C209.152 50.3514 197.71 51.0059 186.232 55.4786C177.941 58.7088 170.081 62.8844 161.954 66.4783C155.711 69.2418 149.378 70.9085 142.542 68.9812C139.821 68.2176 137.451 66.7631 134.985 65.4601C132.56 64.1753 130.063 64.4905 127.87 66.1268C125.827 67.6479 124.7 69.7085 125.167 72.3327C125.942 76.6841 128.33 80.0052 131.754 82.7445C136.978 86.9202 143.093 88.7868 149.511 89.908C155.566 90.9625 161.517 90.2716 167.147 87.9141C171.838 85.9505 176.559 84.3142 181.662 84.0354C186.11 83.793 190.607 83.9263 194.674 85.8778C197.922 87.4353 201.159 89.0474 204.474 90.4534C209.007 92.3746 210.74 95.526 209.552 100.199C209.086 102.047 205.292 105.186 203.783 104.55C201.753 103.689 199.304 103.629 197.716 101.835C196.365 100.314 194.747 99.4229 192.771 98.8532C191.553 98.5017 191.432 98.6653 191.001 99.7623C190.141 101.962 190.989 104.211 190.383 106.417C188.42 113.598 184.359 119.356 178.505 123.78C169.244 130.786 158.602 133.574 147.105 133.458C144.178 133.428 144.299 133.446 144.16 136.361C143.712 145.761 144.348 155.167 143.972 164.579C143.621 173.379 143.912 182.197 143.851 191.008C143.839 192.433 144.196 192.875 145.699 192.839C150.542 192.724 155.396 192.711 160.238 192.827C161.735 192.863 162.117 192.081 162.438 190.978C164.353 184.281 168.311 179.063 174.171 175.379C180.692 171.276 187.826 170.367 195.377 171.536C205.51 173.106 214.934 181.487 217.304 191.324C217.576 192.469 217.995 193.039 219.328 193.027C225.606 192.966 231.891 193.002 238.17 193.051C239.412 193.063 239.618 192.699 239.364 191.463C238.285 186.257 238.497 180.991 239.297 175.791C239.57 174.009 239.097 173.888 237.649 173.773C230.285 173.179 223.528 170.96 217.946 165.9C214.752 163.009 212.043 159.712 211.989 155.155C211.91 148.022 218.764 142.531 225.867 143.816C228.746 144.337 231.515 145.325 234.443 145.628C237.915 145.991 239.679 145.119 241.103 141.949C241.909 140.155 242.57 138.295 243.261 136.452C245.564 130.301 247.388 123.95 251.06 118.374C251.909 117.089 253.303 116.21 253.921 114.453C251.266 114.556 248.921 115.077 246.667 116.035C245.388 116.574 244.073 116.871 242.679 116.689C239.867 116.332 237.424 113.95 237.067 111.247C236.606 107.744 238.242 104.702 241.691 103.52C245.024 102.374 248.473 101.253 252.06 101.502C264.569 102.374 275.745 106.229 284.156 116.162C286.896 119.392 290.072 122.047 294.174 123.574C307.423 128.501 319.337 126.095 330.028 117.168C334.404 113.513 336.095 108.265 337.47 102.944C337.628 102.338 337.337 101.962 336.761 101.659C331.052 98.6047 328.028 93.6655 326.955 87.4171C326.78 86.405 326.404 86.0596 325.355 86.0778C316.895 86.2353 308.429 86.1747 300.035 84.9505C293.217 83.9566 286.92 81.8355 282.49 76.0538C279.714 72.4236 278.175 68.2419 276.842 63.9329C275.623 59.9875 274.745 55.8785 272.199 52.4786C267.593 46.3273 262.515 40.885 255.012 38.0002C249.37 35.8306 243.709 33.9579 237.685 33.7094C228.031 33.3094 218.691 34.9821 209.843 38.9638C207.728 39.9214 205.595 40.9274 203.843 42.6001ZM143.451 43.5758C143.336 43.5758 143.215 43.5758 143.099 43.5758C143.099 47.8787 143.16 52.1817 143.063 56.4846C143.033 57.8058 143.481 58.4664 144.687 58.8785C146.863 59.6178 149.045 59.9027 151.317 59.4724C155.499 58.6785 159.323 56.9209 163.19 55.2483C169.675 52.4423 175.929 49.0848 182.614 46.7939C186.868 45.3333 190.662 43.8425 193.686 40.0002C198.504 33.873 205.443 30.4428 212.704 27.8611C224.206 23.7703 235.994 22.0733 248.066 24.6551C254.678 26.0672 261.024 28.1702 266.648 32.3519C270.975 35.57 275.66 38.1941 278.993 42.6607C280.714 44.9697 282.672 47.0727 284.169 49.5817C286.672 53.7816 287.884 58.4603 289.411 63.0117C291.259 68.5206 295.017 70.963 300.702 71.6782C310.532 72.9205 320.325 71.9266 330.137 71.9388C331.628 71.9388 332.598 70.5448 332.337 69.06C331.513 64.2965 330.307 59.6421 328.525 55.1331C324.616 45.2667 318.362 37.2366 309.877 30.8852C305.78 27.8186 301.302 25.3884 296.671 23.346C294.532 22.4006 276.526 16.3947 273.036 15.8917C264.666 14.6796 256.321 13.413 247.885 12.8069C238.424 12.1281 228.94 12.0918 219.461 12.1827C212.77 12.2433 206.08 12.2918 199.401 12.5402C186.583 13.019 173.771 13.6008 160.947 13.7402C155.626 13.8008 150.299 13.6735 144.996 13.1645C143.887 13.0554 143.415 13.2069 143.421 14.516C143.475 24.2006 143.451 33.8912 143.451 43.5758ZM291.411 135.792C291.932 136.149 292.284 136.47 292.702 136.658C297.156 138.689 301.841 139.731 306.72 139.931C308.829 140.016 311.059 139.701 313.029 140.27C317.271 141.501 320.028 144.482 320.798 148.9C321.543 153.167 319.78 156.652 316.331 158.967C311.55 162.179 306.229 164.355 300.52 165.276C292.611 166.548 284.714 166.118 277.042 163.846C273.193 162.706 269.781 162.07 267.175 165.985C267.102 166.094 266.957 166.148 266.848 166.233C262.024 170.009 256.491 172.136 250.533 173.282C249.685 173.445 248.685 173.397 248.745 174.718C248.957 179.354 249.254 183.984 250.921 188.384C252.733 193.16 252.763 193.148 257.824 193.154C262.048 193.16 261.933 193.111 263.509 189.245C267.775 178.76 275.551 172.566 286.805 171.263C296.065 170.197 304.332 172.694 311.089 179.439C314.568 182.918 316.877 186.966 317.689 191.845C317.865 192.905 318.228 193.784 319.616 193.766C323.774 193.705 327.937 193.669 332.095 193.736C333.313 193.754 333.852 193.493 333.834 192.196C333.731 183.318 333.658 174.439 333.592 165.567C333.501 153.143 333.428 140.719 333.349 128.295C333.349 127.828 333.586 127.216 333.186 126.937C332.604 126.537 332.21 127.198 331.798 127.489C328.683 129.701 325.398 131.604 321.865 133.083C312.944 136.822 303.804 137.446 294.465 135.01C293.35 134.731 292.484 134.895 291.411 135.792ZM289.368 181.754C279.932 181.754 272.066 189.584 272.242 200.19C272.442 212.396 280.163 218.668 291.756 219.238C302.053 216.668 308.835 212.959 308.72 197.766C308.689 193.645 306.32 189.711 303.223 186.724C299.702 183.324 295.271 181.881 289.368 181.754ZM171.656 200.117C171.462 210.729 178.929 218.638 189.371 218.741C200.201 218.85 207.516 211.675 207.922 201.36C208.377 189.918 200.91 181.948 190.08 181.803C179.438 181.657 171.856 189.19 171.656 200.117ZM238.697 162.985C244.279 163.003 248.424 162.421 252.357 161.094C259.442 158.706 264.224 154.076 265.375 146.349C265.86 143.101 266.769 140.016 268.43 137.137C270.684 133.21 273.726 130.077 277.46 127.568C278.048 127.174 278.726 126.762 277.89 126.028C274.581 123.131 271.745 119.671 267.569 117.822C265.272 116.804 263.466 117.198 261.587 118.744C257.89 121.786 256.115 125.937 254.588 130.258C252.848 135.186 251.685 140.307 249.569 145.107C247.17 150.561 243.521 154.476 237.218 155.052C233.437 155.397 229.746 154.773 226.091 153.828C224.716 153.47 223.061 152.755 222.285 154.458C221.655 155.852 223.158 156.737 224.037 157.567C228.546 161.803 234.188 162.791 238.697 162.985ZM150.578 121.162C155.851 120.968 163.202 119.562 169.796 115.441C175.299 112.004 178.765 107.283 178.947 100.52C179.062 96.1806 178.777 96.4836 175.19 98.0593C165.329 102.386 155.263 103.186 144.851 100.986C143.427 100.683 142.954 100.944 143.021 102.514C143.227 107.071 143.154 111.641 143.287 116.204C143.433 121.241 143.251 121.247 150.578 121.162ZM295.702 154.022C300.174 154.337 304.78 152.628 309.398 151.003C309.859 150.84 310.556 150.591 310.362 149.9C310.198 149.331 309.574 149.537 309.113 149.519C299.544 149.167 290.744 146.737 283.557 140.004C282.926 139.416 282.502 139.355 281.86 139.979C279.163 142.598 277.781 145.846 277.211 149.494C277.078 150.367 277.708 150.737 278.375 150.931C283.853 152.525 289.338 154.137 295.702 154.022ZM344.088 91.2595C349.343 91.2716 353.252 85.6172 351.888 79.9931C351.04 76.4962 347.749 74.7871 344.458 76.1326C340.294 77.8356 337.755 83.2051 339.088 87.4899C339.816 89.8474 341.676 91.2534 344.088 91.2595Z" fill="#E23904"/>
<path d="M78.1375 17.0068C64.3378 17.0068 50.5382 17.0128 36.7446 17.0068C32.9204 17.0068 30.2417 15.2735 29.2539 12.213C27.8539 7.85549 31.2174 3.55257 36.0234 3.55257C50.3018 3.55257 64.5802 3.55863 78.8587 3.55863C92.5917 3.55863 106.319 3.55863 120.052 3.54651C124.227 3.54651 127.057 6.17068 127.094 10.1039C127.136 14.2311 124.451 16.9583 120.149 16.9704C106.143 17.0068 92.1432 16.9825 78.1375 16.9825C78.1375 16.9947 78.1375 17.0007 78.1375 17.0068Z" fill="#E23904"/>
<path d="M87.1128 39.2366C77.9555 39.2366 68.8042 39.2244 59.6468 39.2426C55.3863 39.2487 52.144 36.6003 52.041 32.9458C51.9258 28.8308 54.9924 25.8127 59.5135 25.7581C64.5679 25.6975 69.6224 25.7702 74.6768 25.7702C87.8643 25.7702 101.046 25.7763 114.233 25.7521C115.985 25.7521 117.633 26.0611 119.064 27.0854C121.415 28.7702 122.657 31.8125 121.966 34.0064C120.93 37.2912 118.33 39.2426 114.985 39.2426C105.694 39.2426 96.4035 39.2426 87.1128 39.2426V39.2366Z" fill="#E23904"/>
<path d="M95.2885 60.9451C91.4037 60.9451 87.5129 60.9451 83.6282 60.9451C79.5798 60.9451 76.6223 58.1815 76.5435 54.3331C76.4647 50.6362 79.5131 47.4787 83.4282 47.4484C91.4764 47.3757 99.5247 47.3697 107.573 47.4484C111.403 47.4848 114.724 50.7393 114.682 54.2361C114.633 57.836 111.058 61.2723 107.361 60.9693C105.331 60.8057 103.27 60.9329 101.228 60.9269C99.252 60.9269 97.2702 60.9269 95.2945 60.9269C95.2885 60.9329 95.2885 60.939 95.2885 60.9451Z" fill="#E23904"/>
<path d="M200.468 60.0785C206.322 60.23 212.588 62.1148 217.825 66.5208C221.855 69.9146 225.103 74.0478 227.431 78.8295C228.2 80.4053 228.024 81.8901 226.703 83.1264C225.352 84.393 223.958 84.1143 222.649 83.0779C219.613 80.6719 216.782 77.9447 213.073 76.575C204.983 73.5812 197.007 71.8115 188.722 76.5448C181.862 80.4659 174.323 82.6597 166.281 82.3991C164.384 82.3385 162.469 82.1325 160.608 81.7749C159.341 81.5325 158.366 80.6961 158.384 79.2174C158.402 77.7871 159.299 76.9205 160.572 76.5932C169.529 74.3024 177.432 69.9146 184.929 64.6359C189.286 61.5633 194.189 60.0846 200.468 60.0785Z" fill="#E23904"/>
<path d="M260.702 68.6176C267.496 68.6721 272.102 70.8054 275.969 74.4962C279.272 77.6416 279.144 81.7506 275.854 84.902C272.484 88.1262 268.387 88.0353 265.242 84.6535C265.011 84.4051 264.805 84.1323 264.605 83.8536C261.327 79.3385 257.448 79.4234 253.86 82.6415C252.054 84.2596 250.272 84.096 248.351 82.4597C246.733 81.0779 246.224 78.8294 247.376 77.1265C250.872 71.9448 255.412 68.4782 260.702 68.6176Z" fill="#E23904"/>
<path d="M22.5206 303.745C21.4116 303.745 20.1389 303.709 18.7026 303.648C17.2662 303.581 15.7814 303.454 14.2481 303.254C12.7148 303.06 11.1815 302.812 9.64824 302.521C8.11495 302.23 6.6968 301.818 5.38774 301.297C1.79995 299.927 0 297.545 0 294.151V248.425C0 247.056 0.375748 245.995 1.12724 245.243C1.87874 244.492 2.90296 243.892 4.21201 243.431C7.018 242.516 9.98762 241.916 13.1209 241.619C16.2541 241.322 19.0601 241.177 21.5388 241.177C26.6296 241.177 31.2477 241.795 35.393 243.037C39.5384 244.28 43.0959 246.189 46.0655 248.765C49.0351 251.346 51.3381 254.589 52.9684 258.51C54.5986 262.425 55.4168 267.061 55.4168 272.412C55.4168 277.637 54.635 282.188 53.0653 286.073C51.5017 289.957 49.2594 293.218 46.3564 295.866C43.4535 298.509 39.9747 300.484 35.9264 301.787C31.884 303.09 27.4175 303.745 22.5206 303.745ZM17.0359 289.448C17.7511 289.582 18.6359 289.691 19.6783 289.794C20.7207 289.891 21.7025 289.939 22.6176 289.939C24.8357 289.939 26.8781 289.612 28.7387 288.957C30.5992 288.303 32.1992 287.291 33.5385 285.921C34.8779 284.552 35.9203 282.77 36.6718 280.582C37.4233 278.394 37.799 275.77 37.799 272.697C37.799 266.825 36.4294 262.401 33.684 259.431C30.9447 256.461 27.2842 254.977 22.7206 254.977C21.8055 254.977 20.8783 255.013 19.9328 255.073C18.9874 255.14 18.0238 255.237 17.042 255.364V289.448H17.0359Z" fill="#E23904"/>
<path d="M62.2712 272.412C62.2712 267.322 63.0712 262.819 64.6712 258.898C66.2711 254.983 68.459 251.698 71.2286 249.056C74.0043 246.413 77.2648 244.407 81.0223 243.031C84.7737 241.662 88.8403 240.977 93.2098 240.977C97.5794 240.977 101.646 241.662 105.397 243.031C109.149 244.401 112.428 246.407 115.24 249.056C118.046 251.698 120.246 254.977 121.852 258.898C123.452 262.813 124.251 267.316 124.251 272.412C124.251 277.509 123.47 282.024 121.9 285.976C120.336 289.927 118.161 293.224 115.391 295.866C112.615 298.509 109.337 300.515 105.549 301.891C101.761 303.26 97.6522 303.945 93.2098 303.945C88.7675 303.945 84.6586 303.242 80.8708 301.842C77.083 300.442 73.8225 298.4 71.0771 295.721C68.3378 293.042 66.1802 289.745 64.6166 285.83C63.0591 281.909 62.2712 277.437 62.2712 272.412ZM79.9011 272.412C79.9011 278.352 81.1071 282.794 83.5253 285.727C85.9373 288.667 89.1736 290.133 93.2159 290.133C97.331 290.133 100.591 288.667 103.01 285.727C105.422 282.788 106.634 278.352 106.634 272.412C106.634 266.54 105.44 262.134 103.058 259.195C100.676 256.255 97.4279 254.789 93.3129 254.789C89.2645 254.789 86.0161 256.243 83.5677 259.146C81.1192 262.049 79.9011 266.473 79.9011 272.412Z" fill="#E23904"/>
<path d="M187.801 292.485C187.801 294.509 187.444 296.012 186.723 296.988C186.001 297.969 184.862 298.915 183.298 299.83C182.383 300.351 181.244 300.86 179.874 301.345C178.505 301.836 177.002 302.26 175.371 302.618C173.741 302.975 172.026 303.254 170.232 303.448C168.438 303.642 166.656 303.739 164.893 303.739C160.196 303.739 155.784 303.103 151.675 301.83C147.566 300.557 143.99 298.63 140.954 296.054C137.918 293.479 135.518 290.261 133.76 286.412C131.997 282.564 131.118 278.091 131.118 273C131.118 267.649 132.082 262.982 134.009 259.001C135.936 255.019 138.481 251.704 141.645 249.062C144.808 246.419 148.433 244.443 152.511 243.14C156.59 241.838 160.784 241.183 165.093 241.183C171.293 241.183 176.208 242.177 179.832 244.171C183.456 246.165 185.268 248.759 185.268 251.952C185.268 253.649 184.844 255.122 183.995 256.358C183.147 257.601 182.165 258.576 181.056 259.298C179.426 258.316 177.383 257.358 174.935 256.407C172.487 255.461 169.729 254.989 166.662 254.989C161.178 254.989 156.82 256.552 153.59 259.686C150.36 262.819 148.742 267.158 148.742 272.709C148.742 275.715 149.184 278.309 150.063 280.491C150.942 282.679 152.136 284.473 153.639 285.879C155.142 287.285 156.869 288.327 158.826 289.012C160.784 289.697 162.875 290.042 165.093 290.042C166.529 290.042 167.802 289.915 168.911 289.648C170.02 289.388 170.868 289.097 171.456 288.77V279.564H160.978C160.584 278.849 160.208 277.897 159.851 276.721C159.493 275.546 159.311 274.309 159.311 273C159.311 270.649 159.851 268.952 160.929 267.91C162.008 266.867 163.39 266.346 165.093 266.346H181.638C183.595 266.346 185.117 266.885 186.189 267.964C187.268 269.043 187.807 270.558 187.807 272.516V292.485H187.801Z" fill="#E23904"/>
<path d="M241.164 303.745C240.055 303.745 238.782 303.709 237.346 303.648C235.909 303.581 234.424 303.454 232.891 303.254C231.358 303.06 229.825 302.812 228.291 302.521C226.758 302.23 225.34 301.818 224.031 301.297C220.443 299.927 218.643 297.545 218.643 294.151V248.425C218.643 247.056 219.019 245.995 219.77 245.243C220.522 244.492 221.546 243.892 222.855 243.431C225.661 242.516 228.631 241.916 231.764 241.619C234.897 241.322 237.703 241.177 240.182 241.177C245.273 241.177 249.891 241.795 254.036 243.037C258.181 244.28 261.739 246.189 264.709 248.765C267.678 251.346 269.981 254.589 271.611 258.51C273.242 262.425 274.06 267.061 274.06 272.412C274.06 277.637 273.278 282.188 271.708 286.073C270.145 289.957 267.902 293.218 264.999 295.866C262.097 298.509 258.618 300.484 254.569 301.787C250.527 303.09 246.061 303.745 241.164 303.745ZM235.679 289.448C236.394 289.582 237.279 289.691 238.321 289.794C239.364 289.891 240.346 289.939 241.261 289.939C243.479 289.939 245.521 289.612 247.382 288.957C249.242 288.303 250.842 287.291 252.182 285.921C253.521 284.552 254.563 282.77 255.315 280.582C256.066 278.394 256.442 275.77 256.442 272.697C256.442 266.825 255.072 262.401 252.327 259.431C249.588 256.461 245.927 254.977 241.364 254.977C240.449 254.977 239.521 255.013 238.576 255.073C237.63 255.14 236.667 255.237 235.685 255.364V289.448H235.679Z" fill="#E23904"/>
<path d="M300.889 282.988V301.788C300.168 301.981 299.047 302.181 297.514 302.375C295.98 302.569 294.459 302.666 292.962 302.666C291.459 302.666 290.138 302.551 288.999 302.321C287.853 302.091 286.908 301.684 286.156 301.097C285.405 300.509 284.835 299.697 284.441 298.648C284.047 297.606 283.854 296.236 283.854 294.533V248.413C283.854 247.043 284.229 245.983 284.981 245.231C285.732 244.48 286.756 243.88 288.066 243.419C290.284 242.638 292.865 242.068 295.799 241.704C298.738 241.347 301.871 241.165 305.198 241.165C314.204 241.165 320.992 243.056 325.562 246.843C330.131 250.631 332.416 255.752 332.416 262.219C332.416 266.267 331.374 269.728 329.283 272.6C327.192 275.473 324.713 277.691 321.84 279.261C324.192 282.461 326.507 285.461 328.792 288.267C331.077 291.073 332.87 293.618 334.18 295.903C333.525 298.188 332.337 299.933 330.604 301.139C328.871 302.345 326.931 302.951 324.78 302.951C323.343 302.951 322.101 302.787 321.059 302.46C320.016 302.133 319.101 301.678 318.319 301.091C317.538 300.503 316.816 299.788 316.168 298.939C315.513 298.091 314.895 297.175 314.307 296.2L306.083 282.982H300.889V282.988ZM307.059 269.964C309.538 269.964 311.495 269.328 312.932 268.055C314.368 266.782 315.083 264.904 315.083 262.425C315.083 259.946 314.283 258.067 312.683 256.795C311.083 255.522 308.556 254.886 305.095 254.886C304.114 254.886 303.332 254.922 302.744 254.983C302.156 255.049 301.502 255.146 300.786 255.274V269.958H307.059V269.964Z" fill="#E23904"/>
<path d="M360.615 301.788C359.894 301.981 358.773 302.181 357.239 302.375C355.706 302.569 354.185 302.666 352.688 302.666C351.185 302.666 349.864 302.551 348.724 302.321C347.579 302.091 346.621 301.684 345.834 301.097C345.052 300.509 344.464 299.697 344.07 298.648C343.676 297.606 343.482 296.236 343.482 294.533V242.837C344.197 242.71 345.343 242.528 346.906 242.298C348.47 242.068 349.973 241.953 351.409 241.953C352.912 241.953 354.233 242.068 355.373 242.298C356.512 242.528 357.476 242.934 358.264 243.522C359.051 244.11 359.633 244.928 360.027 245.971C360.421 247.013 360.615 248.389 360.615 250.086V301.788Z" fill="#E23904"/>
<path d="M408.887 300.218C407.972 301 406.553 301.684 404.626 302.272C402.699 302.86 400.596 303.151 398.311 303.151C395.572 303.151 393.22 302.745 391.263 301.927C389.305 301.109 387.966 299.988 387.251 298.551C386.53 297.048 385.651 295.109 384.608 292.727C383.566 290.345 382.469 287.685 381.33 284.745C380.184 281.806 379.015 278.691 377.803 275.394C376.597 272.097 375.433 268.752 374.324 265.358C373.215 261.964 372.172 258.637 371.191 255.37C370.209 252.11 369.36 249.037 368.645 246.165C369.56 245.25 370.882 244.419 372.609 243.668C374.336 242.916 376.184 242.54 378.142 242.54C380.554 242.54 382.53 243.05 384.063 244.056C385.596 245.068 386.724 246.946 387.439 249.686C389.202 256.086 390.978 262.201 392.778 268.043C394.572 273.885 396.451 279.976 398.408 286.303H398.996C400.76 280.17 402.572 273.479 404.432 266.231C406.293 258.982 408.069 251.771 409.771 244.589C410.947 244.001 412.202 243.51 413.541 243.122C414.88 242.728 416.396 242.534 418.092 242.534C420.505 242.534 422.565 243.074 424.262 244.153C425.959 245.231 426.807 247.007 426.807 249.492C426.807 250.928 426.462 253.019 425.777 255.758C425.092 258.498 424.214 261.582 423.135 265.013C422.056 268.437 420.85 272.012 419.511 275.734C418.171 279.455 416.832 282.964 415.499 286.261C414.159 289.557 412.905 292.46 411.729 294.976C410.553 297.497 409.608 299.242 408.887 300.218Z" fill="#E23904"/>
<path d="M435.425 251.946C435.425 249.14 436.243 246.922 437.874 245.286C439.504 243.656 441.722 242.837 444.534 242.837H476.848C477.303 243.559 477.715 244.504 478.073 245.68C478.43 246.855 478.612 248.098 478.612 249.401C478.612 251.88 478.073 253.643 476.994 254.686C475.915 255.728 474.497 256.249 472.733 256.249H452.073V265.358H474.103C474.558 266.079 474.97 267.006 475.327 268.146C475.685 269.291 475.867 270.515 475.867 271.818C475.867 274.297 475.345 276.061 474.303 277.103C473.261 278.146 471.855 278.667 470.091 278.667H452.073V288.945H477.236C477.691 289.667 478.103 290.612 478.461 291.788C478.818 292.963 479 294.206 479 295.509C479 297.988 478.461 299.769 477.382 300.848C476.303 301.927 474.885 302.466 473.121 302.466H444.528C441.722 302.466 439.498 301.648 437.868 300.018C436.237 298.387 435.419 296.169 435.419 293.357V251.946H435.425Z" fill="#E23904"/>
</svg>
