<svg width="20" height="20" viewBox="0 0 20 20" fill="none" xmlns="http://www.w3.org/2000/svg">
<path fill-rule="evenodd" clip-rule="evenodd" d="M10 0C4.48438 0 0 4.48438 0 10C0 15.5156 4.48438 20 10 20C15.5156 20 20 15.5156 20 10C20 4.48438 15.5156 0 10 0Z" fill="#F34235"/>
<path fill-rule="evenodd" clip-rule="evenodd" d="M14.2969 10.7227C14.2969 13.0938 12.3672 15.0195 10 15.0195C7.62891 15.0195 5.70312 13.0898 5.70312 10.7227C5.70312 9.26172 6.43359 7.91406 7.66016 7.12109C7.94922 6.93359 8.33594 7.01562 8.52344 7.30469C8.71094 7.59375 8.62891 7.98047 8.33984 8.16797C7.46875 8.73047 6.95312 9.6875 6.95312 10.7227C6.95312 12.4023 8.32031 13.7695 10 13.7695C11.6797 13.7695 13.0469 12.4023 13.0469 10.7227C13.0469 9.6875 12.5273 8.73047 11.6602 8.16797C11.3711 7.98047 11.2891 7.59375 11.4766 7.30469C11.6641 7.01562 12.0508 6.93359 12.3398 7.12109C13.5664 7.91406 14.2969 9.26172 14.2969 10.7227ZM9.375 8.49219V5.60547C9.375 5.26172 9.65625 4.98047 10 4.98047C10.3438 4.98047 10.625 5.26172 10.625 5.60547V8.49219C10.625 8.83594 10.3438 9.11719 10 9.11719C9.65625 9.11719 9.375 8.83594 9.375 8.49219Z" fill="white"/>
</svg>
