<svg width="15" height="15" viewBox="0 0 15 15" fill="none" xmlns="http://www.w3.org/2000/svg">
<g clip-path="url(#clip0_216_1509)">
<path d="M12.5 0C11.1215 0 10 1.12151 10 2.49999C10 3.69571 11.7716 6.11578 12.1866 6.66659C12.1865 6.84451 12.1866 7.01921 12.1823 7.17955C12.1778 7.35196 12.3139 7.49572 12.4866 7.50029H12.4951C12.6636 7.50029 12.8027 7.3657 12.8073 7.19605C12.8116 7.03151 12.8115 6.85192 12.8116 6.66894C13.2239 6.1219 15 3.69712 15 2.49999C15 1.12151 13.8785 0 12.5 0ZM12.5 6.03943C11.813 5.09432 10.625 3.29561 10.625 2.49999C10.625 1.46605 11.466 0.62499 12.5 0.62499C13.5339 0.62499 14.375 1.46605 14.375 2.49999C14.375 3.29561 13.1869 5.09429 12.5 6.03943Z" fill="#8E9DBA" fill-opacity="0.62"/>
<path d="M12.5 1.875C12.1555 1.875 11.875 2.15546 11.875 2.49999C11.875 2.84452 12.1555 3.12498 12.5 3.12498C12.8445 3.12498 13.125 2.84455 13.125 2.49999C13.125 2.15546 12.8445 1.875 12.5 1.875ZM3.75 6.87501C2.71605 6.87501 1.875 7.71606 1.875 8.75001C1.875 9.78396 2.71605 10.625 3.75 10.625C4.78395 10.625 5.625 9.78396 5.625 8.75001C5.625 7.71606 4.78395 6.87501 3.75 6.87501ZM3.75 9.99999C3.06062 9.99999 2.49999 9.43939 2.49999 8.74998C2.49999 8.06057 3.06062 7.5 3.75 7.5C4.43938 7.5 5.00001 8.0606 5.00001 8.75001C5.00001 9.43942 4.43938 9.99999 3.75 9.99999ZM8.48358 11.2628C8.32184 11.2 8.14178 11.2802 8.07923 11.4414C7.93916 11.8033 7.76399 12.2254 7.52777 12.612C7.43774 12.7594 7.48444 12.9517 7.63154 13.0417C7.68049 13.0717 7.73679 13.0876 7.7942 13.0875C7.89949 13.0875 8.00232 13.0344 8.06124 12.938C8.3231 12.5089 8.51197 12.0548 8.66212 11.6672C8.72437 11.5063 8.64442 11.3254 8.48358 11.2628ZM6.72149 13.5434C6.40837 13.7915 6.05256 13.9783 5.63323 14.1147C5.46905 14.1681 5.37932 14.3445 5.43272 14.5087C5.47576 14.6405 5.59813 14.7244 5.72997 14.7244C5.76202 14.7244 5.79466 14.7195 5.82671 14.7092C6.31102 14.5517 6.74253 14.3244 7.10968 14.0335C7.24488 13.9261 7.26776 13.7295 7.16065 13.5943C7.05261 13.4595 6.85638 13.4354 6.72149 13.5434ZM9.56543 9.00665C9.04969 9.29933 8.76313 9.80742 8.59222 10.1639C8.51745 10.3195 8.58305 10.5063 8.7387 10.5807C8.77569 10.5985 8.81581 10.6088 8.85679 10.6111C8.89776 10.6133 8.93878 10.6075 8.97749 10.5939C9.0162 10.5803 9.05186 10.5592 9.08241 10.5318C9.11297 10.5044 9.13783 10.4713 9.15557 10.4343C9.37254 9.98168 9.59411 9.70916 9.87425 9.54984C10.0241 9.46471 10.0769 9.27396 9.99144 9.12381C9.90662 8.97369 9.71648 8.9209 9.56543 9.00665ZM12.384 8.23304C12.2421 8.13691 12.0471 8.17383 11.95 8.31665C11.8472 8.46864 11.6366 8.67768 10.9997 8.73475C10.8279 8.7503 10.7009 8.90197 10.7165 9.07409C10.7312 9.23646 10.8676 9.35851 11.0275 9.35851C11.037 9.35851 11.0464 9.35821 11.0559 9.35728C11.7325 9.29654 12.1942 9.07072 12.4676 8.66695C12.5644 8.52416 12.5268 8.32978 12.384 8.23304Z" fill="#8E9DBA" fill-opacity="0.62"/>
<path d="M4.49048 14.379C5.47652 13.3275 7.5 10.9084 7.5 8.75C7.5 6.64733 5.85267 5 3.75 5C1.64733 5 0 6.64733 0 8.75C0 11.5408 3.39111 14.7781 3.53546 14.9146C3.59333 14.9696 3.67016 15.0002 3.75 15C3.97767 15 4.19402 14.9921 4.3991 14.9765C4.57122 14.9634 4.7003 14.8135 4.68718 14.6414C4.6778 14.5182 4.59809 14.4222 4.49048 14.379ZM3.75 14.2468C3.01178 13.4937 0.62499 10.8923 0.62499 8.75C0.62499 6.99767 1.9977 5.62499 3.75 5.62499C5.5023 5.62499 6.87501 6.99767 6.87501 8.75C6.87501 10.8923 4.48822 13.4936 3.75 14.2468Z" fill="#8E9DBA" fill-opacity="0.62"/>
</g>
<defs>
<clipPath id="clip0_216_1509">
<rect width="15" height="15" fill="white"/>
</clipPath>
</defs>
</svg>
