<svg width="23" height="23" viewBox="0 0 23 23" fill="none" xmlns="http://www.w3.org/2000/svg">
<path d="M19.963 0H7.15704C5.48671 0 4.12006 1.36666 4.12006 3.03699V4.07037H15.7041C17.3744 4.07037 18.7411 5.43703 18.7411 7.10736V14.6788H19.963C21.6333 14.6788 23 13.3122 23 11.6418V3.03699C23 1.36661 21.6333 0 19.963 0Z" fill="#6C7ED6"/>
<path d="M17.8098 3.93164H5.0038C4.70428 3.93156 4.40642 3.97616 4.12006 4.06398V4.07049H15.7041C17.3744 4.07049 18.7411 5.43715 18.7411 7.10748V14.6789H19.963C20.2625 14.679 20.5604 14.6344 20.8467 14.5466V6.96863C20.8468 5.2983 19.4801 3.93164 17.8098 3.93164Z" fill="#4F67D2"/>
<path d="M15.843 3.93164H3.03699C1.36666 3.93164 0 5.2983 0 6.96863V15.5734C0 17.2437 1.36666 18.6104 3.03699 18.6104H10.7229C11.0524 18.6104 11.2984 18.917 11.2231 19.2378C11.0192 20.1055 10.7074 21.0232 10.2463 21.9639C10.0392 22.3864 10.5102 22.8159 10.9103 22.5683C12.0671 21.8524 13.7129 20.6542 15.099 18.9603C15.2812 18.7376 15.5552 18.6104 15.843 18.6104C17.5133 18.6104 18.8799 17.2437 18.8799 15.5734V6.96858C18.8799 5.2983 17.5133 3.93164 15.843 3.93164Z" fill="#60B8FE"/>
<path d="M13.1899 19.2378C13.2652 18.917 13.0193 18.6104 12.6898 18.6104H10.7229C11.0524 18.6104 11.2984 18.917 11.2231 19.2378C11.0192 20.1055 10.7074 21.0232 10.2463 21.9639C10.0392 22.3864 10.5102 22.8159 10.9103 22.5683C11.4288 22.2472 11.9312 21.9008 12.4156 21.5302C12.7674 20.7413 13.0175 19.9716 13.1899 19.2378ZM1.96681 15.5734V6.96863C1.96681 5.2983 3.33347 3.93164 5.0038 3.93164H3.03699C1.36666 3.93164 0 5.2983 0 6.96863V15.5734C0 17.2437 1.36666 18.6104 3.03699 18.6104H5.0038C3.33343 18.6104 1.96681 17.2438 1.96681 15.5734Z" fill="#23A8FE"/>
<path d="M4.2098 12.5258C4.76638 12.5258 5.21758 12.0746 5.21758 11.518C5.21758 10.9615 4.76638 10.5103 4.2098 10.5103C3.65322 10.5103 3.20203 10.9615 3.20203 11.518C3.20203 12.0746 3.65322 12.5258 4.2098 12.5258Z" fill="#DFEBFA"/>
<path d="M7.46487 12.5258C8.02145 12.5258 8.47265 12.0746 8.47265 11.518C8.47265 10.9615 8.02145 10.5103 7.46487 10.5103C6.90829 10.5103 6.45709 10.9615 6.45709 11.518C6.45709 12.0746 6.90829 12.5258 7.46487 12.5258Z" fill="#DFEBFA"/>
<path d="M10.7198 12.5258C11.2764 12.5258 11.7276 12.0746 11.7276 11.518C11.7276 10.9615 11.2764 10.5103 10.7198 10.5103C10.1632 10.5103 9.71204 10.9615 9.71204 11.518C9.71204 12.0746 10.1632 12.5258 10.7198 12.5258Z" fill="#DFEBFA"/>
<path d="M13.9749 12.5258C14.5315 12.5258 14.9827 12.0746 14.9827 11.518C14.9827 10.9615 14.5315 10.5103 13.9749 10.5103C13.4183 10.5103 12.9671 10.9615 12.9671 11.518C12.9671 12.0746 13.4183 12.5258 13.9749 12.5258Z" fill="#DFEBFA"/>
<path d="M4.2098 11.518C4.2098 11.1451 4.41258 10.8197 4.71369 10.6454C4.5606 10.5567 4.38675 10.5101 4.2098 10.5103C3.65322 10.5103 3.20203 10.9615 3.20203 11.518C3.20203 12.0746 3.65322 12.5258 4.2098 12.5258C4.38675 12.526 4.5606 12.4794 4.71369 12.3906C4.41254 12.2164 4.2098 11.891 4.2098 11.518ZM7.46484 11.518C7.46484 11.1451 7.66762 10.8197 7.96873 10.6454C7.81564 10.5567 7.64179 10.5101 7.46484 10.5103C6.90826 10.5103 6.45707 10.9615 6.45707 11.518C6.45707 12.0746 6.90826 12.5258 7.46484 12.5258C7.64848 12.5258 7.82045 12.4764 7.96873 12.3906C7.66758 12.2164 7.46484 11.891 7.46484 11.518ZM10.7198 11.518C10.7198 11.1451 10.9226 10.8197 11.2237 10.6454C11.0706 10.5567 10.8968 10.5101 10.7198 10.5103C10.1633 10.5103 9.71206 10.9615 9.71206 11.518C9.71206 12.0746 10.1633 12.5258 10.7198 12.5258C10.8968 12.526 11.0706 12.4794 11.2237 12.3906C10.9226 12.2164 10.7198 11.891 10.7198 11.518ZM13.9749 11.518C13.9749 11.1451 14.1776 10.8197 14.4788 10.6454C14.3257 10.5567 14.1518 10.5101 13.9749 10.5103C13.4183 10.5103 12.9671 10.9615 12.9671 11.518C12.9671 12.0746 13.4183 12.5258 13.9749 12.5258C14.1518 12.526 14.3257 12.4794 14.4788 12.3906C14.1776 12.2164 13.9749 11.891 13.9749 11.518Z" fill="#B1DBFC"/>
</svg>
