<svg width="10" height="19" viewBox="0 0 10 19" fill="none" xmlns="http://www.w3.org/2000/svg">
<path fill-rule="evenodd" clip-rule="evenodd" d="M8 4.1766C8 2.38608 6.65685 0.93457 5 0.93457C3.34315 0.93457 2 2.38608 2 4.1766V10.1925C2 11.9831 3.34315 13.4346 5 13.4346C6.65685 13.4346 8 11.9831 8 10.1925V4.1766ZM10 10.1925C10 12.8996 8.03992 15.1458 5.5 15.4088V18.0002H8.5V19.0002H1.5V18.0002H4.5V15.4088C1.96008 15.1458 0 12.8996 0 10.1925V7.50018H1V10.1925C1 12.5355 2.78815 14.4346 5 14.4346C7.21185 14.4346 9 12.5355 9 10.1925V7.50018H10V10.1925Z" fill="white"/>
</svg>
