<svg width="28" height="18" viewBox="0 0 28 18" fill="none" xmlns="http://www.w3.org/2000/svg">
<path d="M26.1938 0H0.970141C0.712843 0 0.466084 0.126743 0.284148 0.352349C0.102211 0.577954 0 0.883942 0 1.203C0 1.52205 0.102211 1.82804 0.284148 2.05364C0.466084 2.27925 0.712843 2.40599 0.970141 2.40599H26.1938C26.4511 2.40599 26.6979 2.27925 26.8798 2.05364C27.0617 1.82804 27.1639 1.52205 27.1639 1.203C27.1639 0.883942 27.0617 0.577954 26.8798 0.352349C26.6979 0.126743 26.4511 0 26.1938 0ZM26.1938 7.60294H0.970141C0.712843 7.60294 0.466084 7.72968 0.284148 7.95529C0.102211 8.18089 0 8.48688 0 8.80593C0 9.12499 0.102211 9.43097 0.284148 9.65658C0.466084 9.88218 0.712843 10.0089 0.970141 10.0089H26.1938C26.4511 10.0089 26.6979 9.88218 26.8798 9.65658C27.0617 9.43097 27.1639 9.12499 27.1639 8.80593C27.1639 8.48688 27.0617 8.18089 26.8798 7.95529C26.6979 7.72968 26.4511 7.60294 26.1938 7.60294ZM26.1938 15.2059H9.42977C9.17247 15.2059 8.92571 15.3326 8.74377 15.5582C8.56184 15.7838 8.45963 16.0898 8.45963 16.4089C8.45963 16.7279 8.56184 17.0339 8.74377 17.2595C8.92571 17.4851 9.17247 17.6119 9.42977 17.6119H26.1938C26.4511 17.6119 26.6979 17.4851 26.8798 17.2595C27.0617 17.0339 27.1639 16.7279 27.1639 16.4089C27.1639 16.0898 27.0617 15.7838 26.8798 15.5582C26.6979 15.3326 26.4511 15.2059 26.1938 15.2059ZM5.70443 17.6119C5.96172 17.6119 6.20848 17.4851 6.39042 17.2595C6.57236 17.0339 6.67457 16.7279 6.67457 16.4089C6.67457 16.0898 6.57236 15.7838 6.39042 15.5582C6.20848 15.3326 5.96172 15.2059 5.70443 15.2059H0.970141C0.712843 15.2059 0.466084 15.3326 0.284148 15.5582C0.102211 15.7838 0 16.0898 0 16.4089C0 16.7279 0.102211 17.0339 0.284148 17.2595C0.466084 17.4851 0.712843 17.6119 0.970141 17.6119H5.70443Z" fill="#486190" fill-opacity="0.51"/>
</svg>
