<svg width="16" height="5" viewBox="0 0 16 5" fill="none" xmlns="http://www.w3.org/2000/svg">
<path d="M3.20687 4.82403H1.61751C1.18872 4.82358 0.777615 4.65307 0.474381 4.3499C0.171147 4.04673 0.000545296 3.63566 0 3.20687V1.61717C0.000545296 1.18838 0.171147 0.777308 0.474381 0.474138C0.777615 0.170969 1.18872 0.000454267 1.61751 0H3.20687C3.63566 0.000454267 4.04676 0.170969 4.35 0.474138C4.65323 0.777308 4.82383 1.18838 4.82438 1.61717V3.20687C4.82383 3.63566 4.65323 4.04673 4.35 4.3499C4.04676 4.65307 3.63566 4.82358 3.20687 4.82403ZM1.61751 0.549356C1.33436 0.549629 1.06288 0.662207 0.862634 0.862391C0.662385 1.06258 0.54972 1.33402 0.549356 1.61717V3.20687C0.54972 3.49002 0.662385 3.76146 0.862634 3.96164C1.06288 4.16183 1.33436 4.27441 1.61751 4.27468H3.20687C3.49002 4.27441 3.76149 4.16183 3.96174 3.96164C4.16199 3.76146 4.27466 3.49002 4.27502 3.20687V1.61717C4.27466 1.33402 4.16199 1.06258 3.96174 0.862391C3.76149 0.662207 3.49002 0.549629 3.20687 0.549356H1.61751ZM8.79485 4.82403H7.20515C6.77639 4.82358 6.36532 4.65306 6.06214 4.34988C5.75896 4.0467 5.58844 3.63563 5.58798 3.20687V1.61717C5.58844 1.18841 5.75896 0.777339 6.06214 0.474159C6.36532 0.17098 6.77639 0.000454436 7.20515 0H8.79485C9.22361 0.000454436 9.63468 0.17098 9.93786 0.474159C10.241 0.777339 10.4116 1.18841 10.412 1.61717V3.20687C10.4116 3.63563 10.241 4.0467 9.93786 4.34988C9.63468 4.65306 9.22361 4.82358 8.79485 4.82403ZM7.20515 0.549356C6.92203 0.549629 6.65059 0.662218 6.4504 0.862412C6.2502 1.06261 6.13761 1.33405 6.13734 1.61717V3.20687C6.13761 3.48998 6.2502 3.76143 6.4504 3.96162C6.65059 4.16182 6.92203 4.27441 7.20515 4.27468H8.79485C9.07797 4.27441 9.34941 4.16182 9.54961 3.96162C9.7498 3.76143 9.86239 3.48998 9.86266 3.20687V1.61717C9.86239 1.33405 9.7498 1.06261 9.54961 0.862412C9.34941 0.662218 9.07797 0.549629 8.79485 0.549356H7.20515ZM14.3825 4.82403H12.7931C12.3643 4.82358 11.9532 4.65307 11.65 4.3499C11.3468 4.04673 11.1762 3.63566 11.1756 3.20687V1.61717C11.1762 1.18838 11.3468 0.777308 11.65 0.474138C11.9532 0.170969 12.3643 0.000454267 12.7931 0H14.3825C14.8113 0.000454267 15.2224 0.170969 15.5256 0.474138C15.8289 0.777308 15.9995 1.18838 16 1.61717V3.20687C15.9995 3.63566 15.8289 4.04673 15.5256 4.3499C15.2224 4.65307 14.8113 4.82358 14.3825 4.82403ZM12.7931 0.549356C12.51 0.549629 12.2385 0.662207 12.0383 0.862391C11.838 1.06258 11.7253 1.33402 11.725 1.61717V3.20687C11.7253 3.49002 11.838 3.76146 12.0383 3.96164C12.2385 4.16183 12.51 4.27441 12.7931 4.27468H14.3825C14.6656 4.27441 14.9371 4.16183 15.1374 3.96164C15.3376 3.76146 15.4503 3.49002 15.4506 3.20687V1.61717C15.4503 1.33402 15.3376 1.06258 15.1374 0.862391C14.9371 0.662207 14.6656 0.549629 14.3825 0.549356H12.7931Z" fill="#8E9DBA"/>
</svg>
