<svg width="20" height="18" viewBox="0 0 20 18" fill="none" xmlns="http://www.w3.org/2000/svg">
<path d="M19.8229 14.3096V16.0795C19.8229 17.0558 19.0285 17.8494 18.053 17.8494H2.83184C1.27008 17.8494 0 16.5793 0 15.0175V2.98223C0 1.42047 1.27008 0.150391 2.83184 0.150391H15.9291C16.0686 0.150391 16.2066 0.177858 16.3355 0.231226C16.4643 0.284593 16.5814 0.362815 16.68 0.461425C16.7786 0.560036 16.8568 0.677103 16.9102 0.805944C16.9636 0.934784 16.991 1.07287 16.991 1.21233C16.991 1.35179 16.9636 1.48988 16.9102 1.61872C16.8568 1.74756 16.7786 1.86462 16.68 1.96324C16.5814 2.06185 16.4643 2.14007 16.3355 2.19343C16.2066 2.2468 16.0686 2.27427 15.9291 2.27427H2.83184C2.64955 2.28242 2.47744 2.36058 2.35133 2.49245C2.22522 2.62433 2.15484 2.79976 2.15484 2.98223C2.15484 3.1647 2.22522 3.34013 2.35133 3.47201C2.47744 3.60388 2.64955 3.68204 2.83184 3.69019H18.053C19.0285 3.69019 19.8229 4.48381 19.8229 5.46009V7.22999H16.2831C14.3312 7.22999 12.7433 8.81794 12.7433 10.7698C12.7433 12.7216 14.3312 14.3096 16.2831 14.3096H19.8229Z" fill="#FF904C"/>
<path d="M19.823 8.646V12.8938H16.2832C15.7199 12.8938 15.1797 12.67 14.7814 12.2717C14.3831 11.8734 14.1593 11.3332 14.1593 10.7699C14.1593 10.2066 14.3831 9.66637 14.7814 9.26807C15.1797 8.86976 15.7199 8.646 16.2832 8.646H19.823Z" fill="#FF904C"/>
</svg>
