<svg width="19" height="20" viewBox="0 0 19 20" fill="none" xmlns="http://www.w3.org/2000/svg">
<path d="M18.3334 15.7962C18.2349 16.6509 17.8987 17.4609 17.363 18.1342C17.0825 18.4707 16.7295 18.7392 16.3303 18.9196C15.9311 19.0999 15.4963 19.1875 15.0584 19.1757C13.0465 19.1779 11.0548 18.7739 9.20277 17.9878C6.47543 16.8366 4.14796 14.9069 2.51134 12.4401C0.874717 9.97325 0.00157003 7.07871 0.00105624 4.11834C-0.0107672 3.68047 0.0768029 3.24562 0.257186 2.84646C0.437569 2.4473 0.706074 2.09421 1.04252 1.81373C1.71581 1.27802 2.52584 0.941835 3.38059 0.843367C3.65738 0.804451 3.93916 0.821415 4.20927 0.893255C4.47939 0.965094 4.73237 1.09035 4.95325 1.26163C4.98221 1.28087 5.00767 1.30492 5.02854 1.33273L7.02364 3.8632C7.31162 4.24378 7.46077 4.71142 7.44631 5.18846C7.43186 5.6655 7.25467 6.12325 6.94417 6.48569L6.34187 7.11726L5.85669 7.62336C5.96544 9.104 7.50464 10.9402 9.20277 12.128C9.91656 12.6598 10.7238 13.0528 11.5827 13.2866L12.0637 12.8349L12.6785 12.2493C13.0391 11.9337 13.4972 11.7514 13.9762 11.7332C14.4551 11.7149 14.9257 11.8617 15.3094 12.1489L17.8482 14.1566L17.9193 14.2277C18.0893 14.4484 18.2135 14.7008 18.2846 14.9701C18.3557 15.2395 18.3723 15.5203 18.3334 15.7962Z" fill="#F5C12E"/>
<path d="M18.3334 15.7962C18.2349 16.6509 17.8987 17.4609 17.363 18.1342C17.0825 18.4707 16.7294 18.7392 16.3303 18.9196C15.9311 19.1 15.4963 19.1875 15.0584 19.1757C13.0465 19.178 11.0548 18.7739 9.20276 17.9878V12.1322C9.91655 12.664 10.7238 13.057 11.5827 13.2908L12.0637 12.8391L12.6785 12.2535C13.0391 11.9378 13.4972 11.7556 13.9761 11.7374C14.4551 11.7191 14.9257 11.8659 15.3094 12.1531L17.8482 14.1566L17.9193 14.2277C18.0893 14.4484 18.2135 14.7008 18.2846 14.9701C18.3557 15.2395 18.3723 15.5203 18.3334 15.7962Z" fill="#F0AB00"/>
</svg>
