<svg width="16" height="20" viewBox="0 0 16 20" fill="none" xmlns="http://www.w3.org/2000/svg">
<path d="M15.9961 8.40681C15.9445 5.71752 15.5699 3.73403 15.575 3.7322C15.4191 3.42815 15.1458 3.17385 14.8114 3.04396C12.616 2.19254 10.4573 1.3799 8.3527 0.686538C8.13756 0.615555 7.91071 0.615555 7.69593 0.686538C5.5917 1.37807 3.43331 2.18925 1.23834 3.03957C0.943071 3.1541 0.695364 3.36595 0.534007 3.62353C0.546447 3.625 0.0828649 5.07209 0.00383281 8.26813C-0.043001 11.4645 0.355087 12.4221 0.341915 12.4232C0.557424 13.1257 0.960634 13.8403 1.53837 14.5669C2.18417 15.3785 3.05681 16.2167 4.11094 17.0407C5.85587 18.4102 7.48883 19.2287 7.55726 19.2576C7.70544 19.3301 7.86241 19.367 8.02413 19.3667C8.18622 19.3667 8.34319 19.3297 8.49101 19.2569C8.55979 19.228 10.1946 18.4069 11.9388 17.0378C12.9933 16.2131 13.8659 15.3748 14.5121 14.5636C15.1312 13.7854 15.5497 13.0218 15.7521 12.2717C15.744 12.2706 16.0367 11.0968 15.9961 8.40717V8.40681ZM8.89275 10.5045V12.2084C8.89275 12.6884 8.50381 13.0774 8.02376 13.0778C7.54372 13.0778 7.15441 12.6888 7.15441 12.2088V10.5286C6.52801 10.2172 6.09699 9.57107 6.09699 8.82429C6.09699 7.77345 6.94878 6.9213 7.99962 6.9213C9.05045 6.9213 9.90224 7.77309 9.90261 8.82392C9.90261 9.55204 9.49354 10.1847 8.89275 10.5045Z" fill="#FFA200"/>
</svg>
