<svg width="22" height="26" viewBox="0 0 22 26" fill="none" xmlns="http://www.w3.org/2000/svg">
<path d="M11.3181 12.5242C9.59759 12.5242 8.10768 11.9071 6.89031 10.6895C5.67294 9.4722 5.05585 7.9827 5.05585 6.26194C5.05585 4.54169 5.67294 3.05203 6.89051 1.83426C8.10808 0.617089 9.59779 0 11.3181 0C13.039 0 14.5285 0.617089 15.7458 1.83446C16.9631 3.05183 17.5805 4.54153 17.5805 6.26194C17.5805 7.9827 16.9632 9.47241 15.7456 10.6898C14.5281 11.9069 13.0383 12.5242 11.3181 12.5242ZM0.360804 19.9926C0.395945 19.486 0.466934 18.9333 0.571493 18.3498C0.677015 17.7618 0.812855 17.206 0.975555 16.698C1.14354 16.1729 1.37205 15.6544 1.6545 15.1575C1.9477 14.6417 2.29205 14.1926 2.67849 13.8231C3.08256 13.4365 3.57726 13.1257 4.14936 12.8989C4.71943 12.6734 5.35124 12.5592 6.02703 12.5592C6.29246 12.5592 6.54911 12.668 7.04483 12.9908C7.3972 13.2203 7.75063 13.4481 8.10509 13.6743C8.44567 13.8914 8.90707 14.0947 9.47698 14.2788C10.033 14.4587 10.5975 14.5499 11.1547 14.5499C11.7119 14.5499 12.2763 14.4587 12.8329 14.2788C13.4021 14.0948 13.8635 13.8916 14.2038 13.6745C14.5983 13.4224 14.9553 13.1923 15.265 12.9906C15.7601 12.6678 16.017 12.5589 16.2824 12.5589C16.9584 12.5589 17.59 12.6734 18.1599 12.8991C18.7316 13.1255 19.2265 13.4363 19.631 13.8233C20.0172 14.193 20.3617 14.6419 20.6545 15.1575C20.9367 15.6544 21.1653 16.1727 21.3335 16.6982C21.496 17.2062 21.6318 17.7618 21.7374 18.3498C21.8419 18.9325 21.9129 19.4854 21.948 19.9932C21.983 20.5042 22.0003 21.0163 22 21.5285C22 22.8857 21.5686 23.9844 20.7178 24.7947C19.8775 25.5944 18.7657 26 17.4137 26H4.89457C3.54253 26 2.43114 25.5946 1.59066 24.7948C0.739679 23.985 0.308245 22.8861 0.308245 21.5283C0.308449 21.0044 0.326069 20.4877 0.360804 19.9926Z" fill="white"/>
</svg>
