<svg width="24" height="24" viewBox="0 0 24 24" fill="none" xmlns="http://www.w3.org/2000/svg">
<g clip-path="url(#clip0_177_2132)">
<path d="M12.4168 0.664149L13.0504 1.93655L14.4068 2.17175C14.782 2.23695 14.9312 2.71575 14.6644 2.99815L13.6996 4.01935L13.9044 5.43695C13.9612 5.82895 13.5704 6.12495 13.23 5.94775L12 5.30655L10.77 5.94775C10.4296 6.12495 10.0392 5.82935 10.0956 5.43695L10.3004 4.01935L9.33559 2.99815C9.06879 2.71575 9.21799 2.23695 9.59319 2.17175L10.9496 1.93655L11.5832 0.664149C11.6206 0.585239 11.6796 0.518561 11.7534 0.471869C11.8272 0.425178 11.9127 0.400391 12 0.400391C12.0873 0.400391 12.1728 0.425178 12.2466 0.471869C12.3204 0.518561 12.3794 0.585239 12.4168 0.664149ZM5.21679 3.86415L5.85039 5.13655L7.20679 5.37175C7.58199 5.43695 7.73119 5.91575 7.46439 6.19815L6.49959 7.21935L6.70439 8.63695C6.76119 9.02895 6.37039 9.32495 6.02999 9.14775L4.79999 8.50655L3.56999 9.14775C3.22959 9.32495 2.83919 9.02935 2.89559 8.63695L3.10039 7.21935L2.13559 6.19815C1.86879 5.91575 2.01799 5.43695 2.39319 5.37175L3.74959 5.13655L4.38319 3.86415C4.42057 3.78524 4.47959 3.71856 4.55337 3.67187C4.62715 3.62518 4.71268 3.60039 4.79999 3.60039C4.88731 3.60039 4.97283 3.62518 5.04661 3.67187C5.1204 3.71856 5.17941 3.78524 5.21679 3.86415ZM19.6168 3.86415L20.2504 5.13655L21.6068 5.37175C21.982 5.43695 22.1312 5.91575 21.8644 6.19815L20.8996 7.21935L21.1044 8.63695C21.1612 9.02895 20.7704 9.32495 20.43 9.14775L19.2 8.50655L17.97 9.14775C17.6296 9.32495 17.2392 9.02935 17.2956 8.63695L17.5004 7.21935L16.5356 6.19815C16.2688 5.91575 16.418 5.43695 16.7932 5.37175L18.1496 5.13655L18.7832 3.86415C18.8206 3.78524 18.8796 3.71856 18.9534 3.67187C19.0272 3.62518 19.1127 3.60039 19.2 3.60039C19.2873 3.60039 19.3728 3.62518 19.4466 3.67187C19.5204 3.71856 19.5794 3.78524 19.6168 3.86415Z" fill="#F9C82B"/>
<path d="M7.75999 17.3604C6.67199 18.4484 5.99999 19.9444 5.99999 21.6004C5.99999 21.8204 5.81999 22.0004 5.59999 22.0004H0.799994C0.579994 22.0004 0.399994 21.8204 0.399994 21.6004C0.399994 18.4004 1.69999 15.5044 3.79999 13.4004H4.19999L7.59999 16.8004L7.75999 17.3604Z" fill="#D7342C"/>
<path d="M12 10L12.4 10.4V15.2L12 15.6C10.344 15.6 8.84799 16.272 7.75999 17.36L3.79999 13.4C5.90399 11.3 8.79999 10 12 10Z" fill="#E99E32"/>
<path d="M20.2 13.4L20.4 14L16.8 17.6L16.24 17.36C15.152 16.272 13.656 15.6 12 15.6V10C15.2 10 18.096 11.3 20.2 13.4Z" fill="#F9C82B"/>
<path d="M23.6 21.6004C23.6 21.8204 23.42 22.0004 23.2 22.0004H18.4C18.18 22.0004 18 21.8204 18 21.6004C18 19.9444 17.328 18.4484 16.24 17.3604L20.2 13.4004C22.3 15.5044 23.6 18.4004 23.6 21.6004Z" fill="#2AA869"/>
<path d="M13.488 22.5842C15.408 21.5442 18.428 19.7522 20.708 18.3882C21.124 18.1362 20.832 17.5082 20.376 17.6642C17.86 18.5282 14.548 19.6842 12.516 20.4882L13.488 22.5842Z" fill="#0A365E"/>
<path d="M12 23.6004C12.8837 23.6004 13.6 22.884 13.6 22.0004C13.6 21.1167 12.8837 20.4004 12 20.4004C11.1163 20.4004 10.4 21.1167 10.4 22.0004C10.4 22.884 11.1163 23.6004 12 23.6004Z" fill="#06293F"/>
</g>
<defs>
<clipPath id="clip0_177_2132">
<rect width="24" height="24" fill="white"/>
</clipPath>
</defs>
</svg>
