<svg width="13" height="15" viewBox="0 0 13 15" fill="none" xmlns="http://www.w3.org/2000/svg">
<path d="M11.6902 7.76556C11.3629 7.76556 11.1446 7.9838 11.1446 8.31116C11.1446 10.8755 9.07136 12.9488 6.50704 12.9488C3.94271 12.9488 1.86943 10.8755 1.86943 8.31116C1.86943 5.91052 3.72447 3.8918 6.12512 3.67356L5.30672 4.49196C5.08848 4.7102 5.08848 5.03756 5.30672 5.2558C5.52496 5.47404 5.85232 5.47404 6.07056 5.2558L7.76192 3.56444C7.98016 3.3462 7.98016 3.01884 7.76192 2.8006L6.07056 1.10924C5.85232 0.890997 5.52496 0.890997 5.30672 1.10924C5.08848 1.32748 5.08848 1.65484 5.30672 1.87308L6.016 2.58236C2.90607 2.85516 0.559992 5.63772 0.778232 8.8022C0.996472 11.9667 3.83359 14.2582 6.99808 14.04C9.94432 13.7672 12.2358 11.312 12.2358 8.31116C12.2358 8.03836 12.0176 7.76556 11.6902 7.76556Z" fill="#4FABF7"/>
</svg>
