<svg width="38" height="38" viewBox="0 0 38 38" fill="none" xmlns="http://www.w3.org/2000/svg">
<g clip-path="url(#clip0_177_2110)">
<path d="M37.188 7.65407C36.4733 4.42703 33.345 1.4709 30.1091 0.843011C28.1371 0.44891 22.6367 -0.037965 19 -0.000113481C15.3633 -0.0401916 9.86367 0.445199 7.89168 0.840785C4.65574 1.4709 1.52742 4.42703 0.816406 7.65407C0.405977 9.61344 0.0059375 12.2794 0 15.9183C0.0059375 19.555 0.405977 22.2217 0.816406 24.1818C1.53113 27.4089 4.65945 30.365 7.89539 30.9929C8.95969 31.2052 11.0534 31.4456 13.326 31.6148C13.5833 32.0191 13.8628 32.4496 14.1646 32.9063C15.3707 34.7335 16.2932 36.0064 16.9931 36.8933C18.1569 38.3688 19.8505 38.3688 21.0143 36.8933C21.7142 36.0064 22.6367 34.7335 23.8428 32.9063C24.1446 32.4501 24.4242 32.0196 24.6814 31.6148C26.9548 31.4456 29.0477 31.2052 30.1128 30.9929C33.3487 30.365 36.477 27.4089 37.1918 24.1818C37.5985 22.2217 37.9978 19.5565 38.0045 15.9183C37.9941 12.2786 37.5948 9.61418 37.188 7.65407Z" fill="#F9973E"/>
<path d="M19 -0.000113481C15.3633 -0.0401916 9.86367 0.445199 7.89168 0.840785C4.65574 1.4709 1.52742 4.42703 0.816406 7.65407C0.405977 9.61344 0.0059375 12.2794 0 15.9183C0.0059375 19.555 0.405977 22.2217 0.816406 24.1818C1.23723 26.0811 2.49449 27.8868 4.11766 29.179C5.70097 29.5581 7.32346 29.7491 8.95152 29.7482C20.3538 29.7482 29.597 20.505 29.597 9.10356C29.5996 6.13428 28.959 3.19968 27.7192 0.501605C25.1832 0.216605 21.6118 -0.0268322 19 -0.000113481Z" fill="#FCA84C"/>
<path d="M21.0989 26.9519C21.0496 27.1831 20.9345 27.395 20.7673 27.5622C20.6002 27.7293 20.3882 27.8445 20.1571 27.8937C19.3904 28.0115 18.6103 28.0115 17.8437 27.8937C17.6125 27.8446 17.4005 27.7294 17.2333 27.5623C17.0662 27.3951 16.951 27.1831 16.9018 26.9519C16.7831 26.1851 16.7831 25.4046 16.9018 24.6378C16.951 24.4066 17.0662 24.1946 17.2333 24.0274C17.4005 23.8603 17.6125 23.7451 17.8437 23.6959C18.6103 23.5782 19.3904 23.5782 20.1571 23.6959C20.3886 23.7454 20.6009 23.861 20.768 24.0287C20.9352 24.1964 21.0501 24.409 21.0989 24.6407C21.2177 25.4076 21.2177 26.1881 21.0989 26.9549V26.9519ZM25.6173 14.7956C25.0444 15.6061 24.1857 16.3461 22.915 17.1231C21.3067 18.1147 21.0492 18.5221 21.0492 19.32V19.6354C21.0544 19.9082 21.0051 20.1792 20.9044 20.4327C20.8036 20.6861 20.6533 20.917 20.4622 21.1117C20.2712 21.3064 20.0432 21.4611 19.7917 21.5666C19.5402 21.6722 19.2702 21.7266 18.9974 21.7266C18.7246 21.7266 18.4546 21.6722 18.2031 21.5666C17.9516 21.4611 17.7236 21.3064 17.5326 21.1117C17.3415 20.917 17.1912 20.6861 17.0905 20.4327C16.9897 20.1792 16.9404 19.9082 16.9456 19.6354V18.9044C16.9456 17.9633 17.1809 17.1647 17.6648 16.4633C18.1339 15.7835 18.8375 15.1793 19.8795 14.5596C21.801 13.4293 22.1528 12.7947 22.1528 11.9523C22.1528 10.8939 21.2511 10.2096 19.852 10.2096C18.3239 10.2096 17.3286 10.9043 16.8944 12.2752C16.7537 12.7162 16.4758 13.1006 16.1011 13.3725C15.7265 13.6443 15.2747 13.7893 14.8118 13.7863C14.7584 13.7863 14.7042 13.7863 14.6515 13.7803C14.319 13.7569 13.9962 13.6578 13.7078 13.4906C13.4194 13.3233 13.1731 13.0924 12.9875 12.8155C12.8022 12.5434 12.6815 12.2326 12.6346 11.9068C12.5878 11.581 12.6161 11.2487 12.7174 10.9355C13.1627 9.50814 14.076 8.27246 15.3098 7.42793C16.5538 6.58035 18.125 6.13281 19.852 6.13281C21.6459 6.13281 23.3106 6.70504 24.5397 7.7441C25.8051 8.81285 26.5013 10.2876 26.5013 11.8959C26.505 13.0018 26.2148 13.9532 25.6173 14.7956Z" fill="white"/>
</g>
<defs>
<clipPath id="clip0_177_2110">
<rect width="38" height="38" fill="white"/>
</clipPath>
</defs>
</svg>
