<?xml version="1.0" encoding="utf-8"?>
<!-- Generator: Adobe Illustrator 28.0.0, SVG Export Plug-In . SVG Version: 6.00 Build 0)  -->
<svg version="1.1" id="Layer_1" xmlns="http://www.w3.org/2000/svg" xmlns:xlink="http://www.w3.org/1999/xlink" x="0px" y="0px"
	 viewBox="0 0 24 24" style="enable-background:new 0 0 24 24;" xml:space="preserve">
<style type="text/css">
	.st0{fill:#FFFFFF;}
</style>
<path class="st0" d="M23.5,4.8c-0.5-2-2.4-3.9-4.5-4.3C17.8,0.3,14.3,0,12,0C9.7,0,6.2,0.3,5,0.5c-2,0.4-4,2.3-4.5,4.3
	C0.3,6.1,0,7.8,0,10c0,2.3,0.3,4,0.5,5.2c0.4,2,2.4,3.9,4.5,4.3c0.7,0.1,2,0.3,3.4,0.4c0.2,0.2,0.3,0.5,0.5,0.8
	c0.8,1.2,1.3,2,1.8,2.5c0.7,0.9,1.8,0.9,2.5,0c0.4-0.6,1-1.4,1.8-2.5c0.2-0.3,0.4-0.6,0.5-0.8c1.4-0.1,2.8-0.3,3.4-0.4
	c2-0.4,4-2.3,4.5-4.3C23.8,14,24,12.3,24,10C24,7.8,23.7,6.1,23.5,4.8z M13.3,17c0,0.1-0.1,0.3-0.2,0.4c-0.1,0.1-0.2,0.2-0.4,0.2
	c-0.5,0.1-1,0.1-1.5,0c-0.2,0-0.3-0.1-0.4-0.2c-0.1-0.1-0.2-0.2-0.2-0.4c-0.1-0.5-0.1-1,0-1.5c0-0.2,0.1-0.3,0.2-0.4
	c0.1-0.1,0.2-0.2,0.4-0.2c0.5-0.1,1-0.1,1.5,0c0.2,0,0.3,0.1,0.4,0.2c0.1,0.1,0.2,0.2,0.2,0.4C13.4,16,13.4,16.5,13.3,17z M16.2,9.3
	c-0.4,0.5-0.9,1-1.7,1.5c-1,0.6-1.2,0.9-1.2,1.4v0.2c0,0.2,0,0.3-0.1,0.5c-0.1,0.2-0.2,0.3-0.3,0.4c-0.1,0.1-0.3,0.2-0.4,0.3
	s-0.3,0.1-0.5,0.1s-0.3,0-0.5-0.1s-0.3-0.2-0.4-0.3c-0.1-0.1-0.2-0.3-0.3-0.4c-0.1-0.2-0.1-0.3-0.1-0.5v-0.5c0-0.6,0.1-1.1,0.5-1.5
	c0.3-0.4,0.7-0.8,1.4-1.2C13.8,8.5,14,8.1,14,7.5c0-0.7-0.6-1.1-1.5-1.1c-1,0-1.6,0.4-1.9,1.3c-0.1,0.3-0.3,0.5-0.5,0.7
	C9.9,8.6,9.7,8.7,9.3,8.7c0,0-0.1,0-0.1,0C9,8.7,8.8,8.6,8.7,8.5C8.5,8.4,8.3,8.3,8.2,8.1C8.1,7.9,8,7.7,8,7.5C8,7.3,8,7.1,8,6.9
	C8.3,6,8.9,5.2,9.7,4.7c0.8-0.5,1.8-0.8,2.9-0.8c1.1,0,2.2,0.4,3,1c0.8,0.7,1.2,1.6,1.2,2.6C16.7,8.2,16.6,8.8,16.2,9.3z"/>
</svg>
