<svg width="18" height="20" viewBox="0 0 18 20" fill="none" xmlns="http://www.w3.org/2000/svg">
<path d="M15.5153 2.30734L10.2748 0.29505C9.41983 -0.0391051 8.47039 -0.0391051 7.61543 0.29505L2.37493 2.30734C0.952818 2.85486 0 4.24142 0 5.76309V9.16194C0 13.9829 2.83712 17.8368 7.77897 19.7425C8.15583 19.8847 8.55403 19.9558 8.94511 19.9558C9.33619 19.9558 9.73438 19.8847 10.1112 19.7425C15.0531 17.8368 17.8902 13.9829 17.8902 9.16194V5.76309C17.8902 4.24142 16.9374 2.85486 15.5153 2.30734ZM13.0052 8.23757L8.4687 12.767C8.40392 12.8347 8.3261 12.8885 8.23995 12.9253C8.1538 12.9621 8.06108 12.9811 7.9674 12.9811C7.87372 12.9811 7.78101 12.9621 7.69486 12.9253C7.60871 12.8885 7.53089 12.8347 7.46611 12.767L4.88497 10.193C4.60766 9.91566 4.60766 9.46059 4.88497 9.18327C5.16228 8.90596 5.61736 8.90596 5.89467 9.18327L7.97096 11.2596L11.9955 7.23497C12.2729 6.95766 12.7279 6.95766 13.0052 7.23497C13.2826 7.51229 13.2826 7.96025 13.0052 8.23757Z" fill="#66CC99"/>
</svg>
