<svg width="26" height="26" viewBox="0 0 26 26" fill="none" xmlns="http://www.w3.org/2000/svg">
<path d="M8.84704 21.1234C8.84728 21.2078 8.83113 21.2915 8.79953 21.3695C8.76794 21.4476 8.7215 21.5185 8.66289 21.5783L5.48 24.8253C4.96155 25.3538 4.28076 25.6182 3.59997 25.6182C2.91918 25.6182 2.23839 25.3538 1.71993 24.8253C1.21783 24.3131 0.941406 23.6319 0.941406 22.9074C0.941406 22.1829 1.21783 21.5017 1.71993 20.9895L4.89527 17.7506C5.14024 17.5003 5.53789 17.4998 5.78369 17.7493L8.66163 20.6694C8.78 20.7899 8.84665 20.9531 8.84704 21.1234Z" fill="#0D527C"/>
<path d="M13.7295 21.2218C19.1563 21.2218 23.5555 16.8086 23.5555 11.3648C23.5555 5.92093 19.1563 1.50781 13.7295 1.50781C8.30278 1.50781 3.90353 5.92093 3.90353 11.3648C3.90353 16.8086 8.30278 21.2218 13.7295 21.2218Z" fill="#F0F7FF"/>
<path d="M23.5556 11.3648C23.5556 16.8088 19.1564 21.2218 13.7296 21.2218V1.50781C19.1564 1.50781 23.5556 5.92081 23.5556 11.3648Z" fill="#DFE7F4"/>
<path d="M20.5909 19.3392L17.8234 21.6701C17.6882 21.7838 17.5172 21.8462 17.3406 21.8463H11.567C11.5019 21.8463 11.4374 21.8378 11.3743 21.8212L8.4117 21.0326C8.31508 21.007 8.22457 20.9622 8.14551 20.901C8.06646 20.8398 8.00045 20.7634 7.95138 20.6763L6.84809 18.7222C6.77911 18.6001 6.74552 18.4612 6.75108 18.321C6.75665 18.1808 6.80116 18.045 6.87961 17.9287L7.77625 16.6026C8.69741 14.9733 10.4251 13.9624 12.293 13.9624H15.1665C17.0409 13.9624 18.7736 14.9808 19.6927 16.6201L20.75 18.3729C20.9421 18.6902 20.8741 19.1008 20.5909 19.3392Z" fill="#FABE2C"/>
<path d="M20.5909 19.3391L17.8235 21.6701C17.6882 21.7837 17.5173 21.8461 17.3406 21.8463H13.7296V13.9624H15.1666C17.0409 13.9624 18.7736 14.9808 19.6928 16.6201L20.7501 18.3729C20.9422 18.6902 20.8741 19.1007 20.5909 19.3391Z" fill="#FF9100"/>
<path d="M15.6694 12.9062V14.7152C15.6694 15.9248 14.7988 16.6963 13.7295 16.6963C12.6602 16.6963 11.7896 15.9249 11.7896 14.7152V12.9062C11.7896 12.3221 12.3533 11.9611 12.7958 12.2592C13.0765 12.4484 13.3998 12.5483 13.7295 12.5483C14.0592 12.5483 14.3825 12.4484 14.6632 12.2592C15.1056 11.9612 15.6694 12.3219 15.6694 12.9062Z" fill="#D58678"/>
<path d="M13.7295 0C7.47257 0 2.40045 5.08813 2.40045 11.3648C2.40045 17.6415 7.47257 22.7296 13.7295 22.7296C19.9865 22.7296 25.0586 17.6415 25.0586 11.3648C25.0586 5.08808 19.9865 0 13.7295 0ZM13.7295 20.0945C8.9231 20.0945 5.02732 16.1859 5.02732 11.3648C5.02732 6.54371 8.9231 2.63518 13.7295 2.63518C18.5355 2.63518 22.4317 6.54376 22.4317 11.3649C22.4317 16.1859 18.5355 20.0945 13.7295 20.0945Z" fill="#A8EBFA"/>
<path d="M25.0586 11.3648C25.0586 17.6415 19.9865 22.7296 13.7296 22.7296V20.0944C18.5355 20.0944 22.4318 16.1858 22.4318 11.3647C22.4318 6.54366 18.5355 2.63518 13.7296 2.63518V0C19.9865 0 25.0586 5.08813 25.0586 11.3648Z" fill="#7DD5F4"/>
<path d="M15.6694 12.9061V14.7151C15.6694 15.9248 14.7988 16.6963 13.7296 16.6963V12.5483C14.0593 12.5483 14.3825 12.4484 14.6632 12.2592C15.1056 11.9611 15.6694 12.3219 15.6694 12.9061Z" fill="#B95D4C"/>
<path d="M17.293 9.28525V10.4798C17.293 11.7342 16.6251 12.9122 15.5498 13.5537C15.0014 13.8815 14.372 14.0551 13.7295 14.0551C13.087 14.0551 12.4576 13.8815 11.9087 13.5537C10.8334 12.9122 10.1655 11.7342 10.1655 10.4798V9.28525C10.1655 7.31414 11.7646 5.71045 13.7295 5.71045C15.6944 5.7105 17.293 7.31419 17.293 9.28525Z" fill="#E99A8B"/>
<path d="M17.2931 9.2852V10.4798C17.2931 11.7341 16.6251 12.9122 15.5499 13.5536C14.9995 13.8821 14.3705 14.0554 13.7296 14.0551V5.71045C15.6945 5.71045 17.2931 7.31414 17.2931 9.2852Z" fill="#D58678"/>
</svg>
