<svg width="19" height="20" viewBox="0 0 19 20" fill="none" xmlns="http://www.w3.org/2000/svg">
<path fill-rule="evenodd" clip-rule="evenodd" d="M17.1763 3.83444C17.4711 4.20858 17.7391 4.60593 17.9791 5.02257C18.2185 5.43807 18.4275 5.8703 18.6046 6.31589C18.7447 6.66809 18.7458 7.04207 18.6298 7.37555C18.5138 7.70879 18.2805 8.00127 17.9517 8.19062C17.6331 8.37456 17.3685 8.63904 17.1843 8.95753C17.0075 9.26326 16.9062 9.61936 16.9062 10.0003C16.9062 10.3814 17.0075 10.7376 17.1845 11.0434C17.3688 11.362 17.6336 11.6265 17.9524 11.8104C18.2815 11.9997 18.515 12.2932 18.6311 12.6279C18.7471 12.9622 18.7456 13.3368 18.6048 13.6889C18.5163 13.9103 18.4198 14.1284 18.3157 14.3429C18.2108 14.5586 18.0983 14.7705 17.9784 14.9782C17.9751 14.9839 17.9716 14.9895 17.968 14.9949C17.8516 15.1964 17.7283 15.3937 17.5982 15.5865C17.4643 15.7843 17.3234 15.9773 17.1757 16.165C16.9409 16.4634 16.6169 16.6522 16.269 16.7189C15.9216 16.7856 15.551 16.7299 15.2223 16.5395C14.9039 16.355 14.5427 16.2575 14.1747 16.2568C13.8202 16.2565 13.4608 16.3465 13.1314 16.5364L13.1317 16.537C12.8016 16.7276 12.5437 16.9934 12.3673 17.2995C12.1836 17.6187 12.0871 17.9805 12.0874 18.3487C12.0878 18.7276 11.9509 19.0758 11.72 19.3432C11.4889 19.6108 11.1644 19.7971 10.79 19.8518C10.3153 19.9209 9.83628 19.9557 9.35662 19.9559C8.87838 19.9567 8.40071 19.9228 7.92736 19.8545C7.55158 19.8001 7.22621 19.6138 6.99471 19.3459C6.76346 19.0783 6.62648 18.7297 6.62717 18.3504C6.62776 17.9819 6.53136 17.6197 6.34767 17.3003C6.17125 16.9938 5.91316 16.7277 5.58281 16.537C5.2531 16.3466 4.89363 16.2564 4.53946 16.2568C4.17137 16.2575 3.80997 16.3552 3.49157 16.5399C3.1631 16.7303 2.79254 16.786 2.44516 16.7196C2.09742 16.653 1.77337 16.4644 1.5383 16.1662C1.24346 15.792 0.975454 15.3947 0.735483 14.978C0.496148 14.5625 0.287101 14.1303 0.10997 13.6847C-0.0300594 13.3325 -0.0312244 12.9585 0.0848241 12.6251C0.200792 12.2918 0.434054 11.9993 0.762879 11.81C1.08149 11.626 1.34614 11.3616 1.53027 11.0431C1.70713 10.7373 1.80836 10.3812 1.80836 10.0003C1.80836 9.6192 1.70705 9.26298 1.53007 8.95717C1.3458 8.63858 1.08097 8.37406 0.762156 8.19018C0.433131 8.00086 0.199627 7.70739 0.0834584 7.3727C-0.0325902 7.03841 -0.0310637 6.66384 0.109769 6.31171C0.198311 6.09031 0.294765 5.87216 0.398947 5.65768C0.503764 5.44197 0.616243 5.23006 0.736166 5.02237C0.7395 5.01666 0.742955 5.01108 0.74657 5.00566C0.862943 4.80424 0.986283 4.60693 1.11637 4.41408C1.25021 4.21629 1.39112 4.02336 1.53883 3.83569C1.77361 3.53731 2.09766 3.34844 2.44556 3.28172C2.7929 3.21508 3.16359 3.27071 3.49225 3.46111C3.81061 3.64561 4.1719 3.74311 4.53986 3.74382C4.89435 3.74418 5.25382 3.65413 5.58313 3.46421L5.58281 3.46368C5.91292 3.27308 6.17089 3.0072 6.34727 2.70111C6.53094 2.38198 6.62747 2.02015 6.62717 1.65194C6.62676 1.27302 6.76358 0.924875 6.99443 0.65751C7.22557 0.389823 7.55001 0.203559 7.92447 0.148849C8.39918 0.0797196 8.87826 0.0449098 9.35798 0.04469C9.8362 0.0439363 10.3138 0.0778205 10.7872 0.146077C11.1629 0.200466 11.4883 0.38681 11.7198 0.654698C11.9511 0.922305 12.088 1.27093 12.0874 1.65025C12.0868 2.01876 12.1832 2.38093 12.3668 2.70039C12.5433 3.00684 12.8014 3.27296 13.1317 3.46372C13.4614 3.65409 13.8209 3.7443 14.1751 3.7439C14.5432 3.74312 14.9046 3.64548 15.223 3.46079C15.5514 3.27039 15.922 3.21463 16.2694 3.28107C16.6172 3.34751 16.9413 3.53619 17.1763 3.83444ZM12.2148 9.23442C12.0188 8.50298 11.5438 7.84629 10.8362 7.43781L10.8366 7.43729C10.1295 7.02941 9.32332 6.94675 8.5914 7.14285C7.85996 7.33884 7.20327 7.81384 6.79479 8.52137L6.79427 8.52105C6.38639 9.22811 6.30372 10.0343 6.49983 10.7662C6.69582 11.4977 7.17082 12.1544 7.87835 12.5628L7.87803 12.5634C8.58509 12.9712 9.39128 13.0539 10.1232 12.8578C10.8546 12.6618 11.5113 12.1868 11.9198 11.4793L11.9203 11.4796C12.3282 10.7725 12.4109 9.96634 12.2148 9.23442Z" fill="#FFD266"/>
<path fill-rule="evenodd" clip-rule="evenodd" d="M17.1763 3.83432C17.4711 4.20846 17.7391 4.60581 17.9791 5.02244C18.2184 5.43795 18.4275 5.87018 18.6046 6.31577C18.7446 6.66797 18.7458 7.04194 18.6298 7.37543C18.5138 7.70867 18.2805 8.00114 17.9517 8.1905C17.8361 8.25711 17.7272 8.33464 17.6265 8.42204C17.7964 8.25811 17.9254 8.05655 18.003 7.8336C18.119 7.50011 18.1179 7.1261 17.9778 6.77394C17.8007 6.32835 17.5917 5.89612 17.3523 5.48061C17.1123 5.06398 16.8444 4.66667 16.5495 4.29249C16.3145 3.99423 15.9904 3.8056 15.6427 3.73904C15.2953 3.6726 14.9247 3.72835 14.5963 3.91876C14.2778 4.10344 13.9164 4.20108 13.5484 4.20187C13.1942 4.20227 12.8347 4.11205 12.505 3.92169C12.1747 3.73097 11.9166 3.46485 11.7401 3.15836C11.5565 2.8389 11.4601 2.47672 11.4607 2.10821C11.4613 1.7289 11.3243 1.38027 11.0931 1.11262C10.8616 0.844735 10.5362 0.658391 10.1605 0.604002C9.68714 0.535747 9.20949 0.501862 8.73128 0.502615C8.25156 0.502836 7.77248 0.537646 7.29776 0.606773C7.18083 0.623885 7.0688 0.653771 6.96295 0.694985C6.97324 0.682251 6.98376 0.669678 6.99445 0.657266C7.22558 0.389579 7.55003 0.203315 7.92448 0.148604C8.3992 0.0794755 8.87828 0.0446657 9.358 0.0444459C9.83621 0.0436921 10.3139 0.0775764 10.7872 0.145833C11.163 0.200222 11.4883 0.386566 11.7198 0.654454C11.9511 0.922061 12.0881 1.27069 12.0874 1.65001C12.0868 2.01851 12.1832 2.38069 12.3669 2.70015C12.5433 3.0066 12.8014 3.27272 13.1317 3.46348C13.4614 3.65384 13.8209 3.74406 14.1751 3.74366C14.5432 3.74288 14.9046 3.64524 15.223 3.46055C15.5514 3.27015 15.922 3.21439 16.2694 3.28083C16.6172 3.34739 16.9412 3.53607 17.1763 3.83432ZM17.5567 8.48542C17.4106 8.62412 17.2852 8.78309 17.1843 8.95745C17.0074 9.26318 16.9062 9.61928 16.9062 10.0002C16.9062 10.3813 17.0075 10.7375 17.1845 11.0434C17.3688 11.362 17.6336 11.6265 17.9524 11.8103C18.2814 11.9997 18.5149 12.2931 18.6311 12.6278C18.7471 12.9621 18.7456 13.3367 18.6048 13.6888C18.5163 13.9102 18.4198 14.1283 18.3156 14.3428C18.2108 14.5585 18.0983 14.7705 17.9784 14.9782C17.9751 14.9838 17.9716 14.9894 17.968 14.9949C17.8516 15.1963 17.7283 15.3936 17.5982 15.5864C17.4643 15.7842 17.3234 15.9772 17.1757 16.1649C17.0017 16.386 16.7787 16.547 16.5332 16.6426C16.5385 16.6362 16.5438 16.6296 16.549 16.623C16.6966 16.4354 16.8375 16.2424 16.9714 16.0446C17.1014 15.8518 17.2248 15.6545 17.3412 15.4531C17.3448 15.4477 17.3482 15.4421 17.3516 15.4364C17.4715 15.2287 17.584 15.0167 17.6888 14.801C17.793 14.5865 17.8895 14.3684 17.978 14.147C18.1188 13.7949 18.1204 13.4203 18.0043 13.086C17.8881 12.7513 17.6546 12.4579 17.3256 12.2685C17.0068 12.0847 16.742 11.8202 16.5577 11.5016C16.3807 11.1958 16.2794 10.8395 16.2794 10.4584C16.2794 10.0775 16.3806 9.72139 16.5575 9.41566C16.7416 9.09715 17.0063 8.83267 17.3249 8.64875C17.407 8.60149 17.4846 8.54681 17.5567 8.48542ZM12.6503 16.918C12.5416 17.0338 12.4466 17.1618 12.3673 17.2995C12.1836 17.6186 12.0871 17.9804 12.0874 18.3487C12.0878 18.7276 11.9509 19.0758 11.7201 19.3431C11.559 19.5298 11.3546 19.6741 11.1248 19.7635C11.3366 19.5016 11.461 19.1682 11.4606 18.8068C11.4603 18.4386 11.5569 18.0768 11.7405 17.7577C11.9169 17.4515 12.1749 17.1856 12.505 16.9951L12.5047 16.9946C12.5522 16.9671 12.6007 16.9416 12.6503 16.918ZM0.461304 12.0365C0.483928 12.0147 0.507224 11.9935 0.531158 11.9731C0.508354 11.9948 0.485063 12.0159 0.461304 12.0365ZM1.55451 3.81596C1.78793 3.52892 2.1053 3.34687 2.44554 3.28159C2.79288 3.21495 3.16356 3.27059 3.49222 3.46099C3.81058 3.64548 4.17188 3.74298 4.53983 3.7437C4.85049 3.74407 5.15727 3.67468 5.43753 3.54064C5.29663 3.69062 5.1344 3.81901 4.95607 3.92169L4.95639 3.92221C4.62704 4.11213 4.26757 4.20219 3.91312 4.20183C3.54516 4.20113 3.18387 4.10364 2.86551 3.91916C2.53684 3.72876 2.16616 3.67312 1.81882 3.73976C1.72858 3.75707 1.64011 3.78258 1.55451 3.81596ZM7.31134 7.86212C6.85004 8.11362 6.44992 8.49113 6.16801 8.97938L6.16749 8.97906C5.75961 9.68612 5.67694 10.4923 5.87305 11.2242C6.06903 11.9557 6.54403 12.6124 7.25157 13.0209L7.25125 13.0214C7.95831 13.4293 8.7645 13.5119 9.49642 13.3158C9.97017 13.1889 10.4126 12.9448 10.7764 12.5964C10.5698 12.7091 10.3505 12.7968 10.1231 12.8577C9.39122 13.0538 8.58502 12.9711 7.87797 12.5632L7.87829 12.5627C7.17075 12.1542 6.69575 11.4975 6.49977 10.7661C6.30366 10.0342 6.38633 9.22799 6.7942 8.52093L6.79473 8.52125C6.93481 8.27816 7.10876 8.05623 7.31134 7.86212Z" fill="#E6BD5C"/>
</svg>
