<svg width="16" height="16" viewBox="0 0 16 16" fill="none" xmlns="http://www.w3.org/2000/svg">
<path d="M5.54591 7.63844L5.06616 6.83275L10.433 3.60815L10.9127 4.41381L5.54591 7.63844ZM10.3835 12.5494L5.21219 9.90665L5.63516 9.06984L10.8065 11.7127L10.3835 12.5494Z" fill="#0095FF"/>
<path d="M12.6875 0C11.1406 0 9.875 1.26559 9.875 2.8125C9.875 4.35934 11.1406 5.625 12.6875 5.625C14.2344 5.625 15.5 4.35934 15.5 2.8125C15.5 1.26559 14.2344 0 12.6875 0ZM12.6875 10.375C11.1406 10.375 9.875 11.6406 9.875 13.1875C9.875 14.7343 11.1406 16 12.6875 16C14.2344 16 15.5 14.7343 15.5 13.1875C15.5 11.6406 14.2344 10.375 12.6875 10.375ZM3.3125 5.65625C1.76559 5.65625 0.5 6.92184 0.5 8.46875C0.5 10.0156 1.76559 11.2812 3.3125 11.2812C4.85941 11.2812 6.125 10.0156 6.125 8.46875C6.125 6.92184 4.85941 5.65625 3.3125 5.65625Z" fill="#00ABE9"/>
<path d="M15.5 13.1875C15.5 14.7343 14.2344 16 12.6875 16V10.375C14.2344 10.375 15.5 11.6406 15.5 13.1875ZM12.6875 5.625V0C14.2344 0 15.5 1.26559 15.5 2.8125C15.5 4.35934 14.2344 5.625 12.6875 5.625ZM6.125 8.46875C6.125 10.0156 4.85941 11.2812 3.3125 11.2812V5.65625C4.85941 5.65625 6.125 6.92184 6.125 8.46875Z" fill="#0095FF"/>
</svg>
