<svg width="24" height="24" viewBox="0 0 24 24" fill="none" xmlns="http://www.w3.org/2000/svg">
<path d="M10.1202 3.17514C10.7581 1.41891 13.2419 1.41892 13.8798 3.17514L15.1713 6.73056C15.45 7.49773 16.1669 8.01859 16.9826 8.04655L20.7631 8.17613C22.6305 8.24014 23.398 10.6024 21.9249 11.7518L18.9426 14.0787C18.2991 14.5808 18.0252 15.4236 18.2507 16.208L19.2957 19.8435C19.8119 21.6393 17.8025 23.0993 16.2541 22.0534L13.1195 19.9361C12.4431 19.4793 11.5569 19.4793 10.8805 19.9361L7.7459 22.0534C6.19752 23.0993 4.1881 21.6393 4.70428 19.8435L5.74928 16.208C5.97477 15.4236 5.70093 14.5808 5.05742 14.0787L2.0751 11.7518C0.601965 10.6024 1.3695 8.24014 3.2369 8.17613L7.01739 8.04655C7.83313 8.01859 8.55003 7.49773 8.8287 6.73055L10.1202 3.17514Z" stroke="#FFC400" stroke-width="1.8"/>
</svg>
