<svg width="21" height="18" viewBox="0 0 21 18" fill="none" xmlns="http://www.w3.org/2000/svg">
<path d="M10.4999 2.95508C9.46333 2.9551 8.44928 3.25758 7.58208 3.82542C6.71488 4.39327 6.0322 5.20181 5.61775 6.15193C5.2033 7.10204 5.07508 8.15244 5.24881 9.17436C5.42254 10.1963 5.89066 11.1453 6.5958 11.9051L6.04485 13.9605C6.01227 14.0819 6.01642 14.2101 6.05677 14.3291C6.09711 14.4481 6.17184 14.5525 6.2715 14.629C6.37116 14.7055 6.49127 14.7507 6.61664 14.7589C6.742 14.7671 6.86699 14.738 6.97579 14.6752L9.1313 13.4304C9.8637 13.6251 10.6292 13.6613 11.3767 13.5365C12.1242 13.4118 12.8365 13.129 13.466 12.707C14.0955 12.2851 14.6277 11.7337 15.0271 11.0896C15.4265 10.4456 15.6839 9.72371 15.782 8.97226C15.8802 8.22081 15.8169 7.45706 15.5964 6.73202C15.3759 6.00698 15.0032 5.33733 14.5032 4.76781C14.0033 4.19828 13.3876 3.74198 12.6972 3.42938C12.0069 3.11679 11.2577 2.95508 10.4999 2.95508Z" fill="#2EC4B6"/>
<path d="M10.4999 2.95508V13.6079C11.9125 13.6079 13.2673 13.0467 14.2662 12.0478C15.2651 11.0489 15.8263 9.69414 15.8263 8.28149C15.8263 6.86883 15.2651 5.51404 14.2662 4.51515C13.2673 3.51625 11.9125 2.95508 10.4999 2.95508Z" fill="#2AB5A4"/>
<path d="M20.9915 8.73402C20.9984 8.47487 21.0056 8.20686 20.9937 7.92616C20.9586 7.14515 20.6225 6.40806 20.056 5.8693C19.4895 5.33055 18.7364 5.03194 17.9546 5.03603C16.6989 2.16326 13.8303 0.150391 10.5 0.150391C7.1696 0.150391 4.30102 2.16326 3.04543 5.03603C2.26343 5.03183 1.51017 5.33055 0.943587 5.86955C0.377005 6.40855 0.0411016 7.14598 0.00630609 7.92722C-0.00550643 8.20665 0.00164884 8.47487 0.00855006 8.73402C0.0158747 9.00923 0.0234533 9.29391 0.00990488 9.61298C-0.0232693 10.4133 0.262131 11.1942 0.803584 11.7846C1.34504 12.3749 2.0984 12.7266 2.89864 12.7625C2.94292 12.7644 2.9871 12.7654 3.03116 12.7654C3.41381 12.7656 3.79299 12.6927 4.14831 12.5507C4.23862 12.5225 4.3215 12.4745 4.39089 12.4102C4.46027 12.3459 4.51442 12.267 4.54937 12.179C4.58432 12.0911 4.59919 11.9965 4.59289 11.9021C4.5866 11.8077 4.55929 11.716 4.51297 11.6335C3.93968 10.6093 3.63875 9.45526 3.63897 8.28159C3.63897 4.49845 6.717 1.4206 10.5 1.4206C14.2829 1.4206 17.361 4.49862 17.361 8.28159C17.3657 9.88297 16.8082 11.4352 15.7857 12.6677C14.7632 13.9001 13.3406 14.7346 11.7659 15.0257C11.6001 14.6502 11.3083 14.3445 10.9409 14.1613C10.5736 13.9782 10.1538 13.9291 9.75417 14.0227C9.35451 14.1162 9.00009 14.3464 8.75216 14.6735C8.50424 15.0006 8.37839 15.4041 8.39638 15.8142C8.41436 16.2242 8.57505 16.6151 8.85067 16.9193C9.12628 17.2234 9.4995 17.4217 9.90581 17.4799C10.3121 17.5381 10.726 17.4525 11.0759 17.2379C11.4258 17.0233 11.6897 16.6932 11.822 16.3046C12.9406 16.1197 14.0082 15.7032 14.9566 15.0818C15.9049 14.4604 16.713 13.6478 17.3292 12.696C17.5394 12.742 17.7538 12.7652 17.969 12.7654C18.0131 12.7654 18.0574 12.7644 18.1018 12.7625C18.9019 12.7264 19.6551 12.3747 20.1964 11.7845C20.7377 11.1942 21.0231 10.4135 20.99 9.61323C20.9765 9.294 20.9841 9.00931 20.9915 8.73402Z" fill="#2EA8E6"/>
<path d="M20.9914 8.73384C20.9983 8.47468 21.0055 8.20668 20.9936 7.92597C20.9577 7.12574 20.606 6.37238 20.0156 5.83101C19.4252 5.28963 18.6442 5.00439 17.8439 5.03779C17.7055 5.04409 17.5676 5.05965 17.4313 5.08436C17.34 5.1006 17.2533 5.13663 17.1775 5.18991C17.1016 5.2432 17.0383 5.31246 16.992 5.39282C16.9458 5.47318 16.9177 5.56269 16.9097 5.65507C16.9017 5.74745 16.9141 5.84045 16.9459 5.92754C17.284 6.85579 17.418 7.84603 17.3388 8.83075C17.2595 9.81548 16.9688 10.7715 16.4866 11.6337C16.4404 11.7162 16.4131 11.808 16.4069 11.9024C16.4007 11.9967 16.4156 12.0913 16.4505 12.1791C16.4855 12.267 16.5397 12.3459 16.609 12.4101C16.6784 12.4744 16.7612 12.5224 16.8515 12.5505C17.2069 12.6926 17.5861 12.7654 17.9689 12.7652C18.013 12.7652 18.0573 12.7642 18.1017 12.7623C18.9018 12.7262 19.655 12.3746 20.1963 11.7843C20.7377 11.194 21.023 10.4133 20.9899 9.61305C20.9764 9.29381 20.984 9.00913 20.9914 8.73384Z" fill="#176F93"/>
<path d="M16.9514 5.94631C16.9494 5.94013 16.948 5.93361 16.9458 5.92756C16.914 5.84046 16.9016 5.74746 16.9096 5.65508C16.9175 5.56271 16.9456 5.47319 16.9919 5.39284C17.0382 5.31248 17.1014 5.24322 17.1773 5.18993C17.2532 5.13664 17.3398 5.10062 17.4311 5.08438C17.5675 5.05966 17.7053 5.0441 17.8437 5.03781C17.8808 5.0362 17.9176 5.03611 17.9544 5.03586C16.6988 2.16326 13.8303 0.150433 10.4999 0.150391V1.42055C13.4636 1.4206 15.994 3.30941 16.9514 5.94631Z" fill="#1794C6"/>
<path d="M4.51297 11.6329C4.03084 10.7707 3.74027 9.8147 3.66107 8.83003C3.58188 7.84536 3.71592 6.85519 4.05406 5.92702C4.08588 5.83992 4.09823 5.74692 4.09027 5.65454C4.0823 5.56217 4.0542 5.47265 4.00795 5.39229C3.96169 5.31193 3.8984 5.24268 3.82253 5.18939C3.74665 5.1361 3.66002 5.10007 3.56873 5.08384C3.43192 5.05907 3.2936 5.04351 3.1547 5.03727C2.35434 5.00409 1.57348 5.28961 0.983305 5.83124C0.393127 6.37287 0.0417864 7.12642 0.00630609 7.92668C-0.00550643 8.20611 0.00164884 8.47433 0.00855006 8.73348C0.0158747 9.00869 0.0234533 9.29337 0.00990488 9.61244C-0.0232693 10.4128 0.262131 11.1937 0.803584 11.784C1.34504 12.3743 2.0984 12.726 2.89864 12.762C2.94292 12.7639 2.9871 12.7648 3.03116 12.7649C3.41381 12.7651 3.79299 12.6922 4.14831 12.5502C4.23862 12.522 4.3215 12.474 4.39088 12.4097C4.46027 12.3454 4.51442 12.2664 4.54937 12.1785C4.58432 12.0906 4.59919 11.996 4.59289 11.9016C4.5866 11.8072 4.55929 11.7154 4.51297 11.6329Z" fill="#176F93"/>
<path d="M3.63896 8.28105C3.63804 7.47811 3.77849 6.68126 4.05388 5.92702C4.0857 5.83993 4.09805 5.74693 4.09009 5.65455C4.08212 5.56217 4.05402 5.47266 4.00777 5.3923C3.96151 5.31194 3.89822 5.24268 3.82235 5.18939C3.74647 5.1361 3.65984 5.10008 3.56855 5.08384C3.43174 5.05907 3.29342 5.04351 3.15452 5.03727C2.98245 5.03013 2.81009 5.03768 2.6393 5.05984C2.20457 5.71573 1.9612 6.47978 1.93648 7.26628C1.92331 7.62552 1.93127 7.96974 1.93898 8.30265C1.94715 8.65622 1.95561 9.02181 1.9405 9.43161C1.8905 10.7851 2.45183 12.0089 3.34174 12.7483C3.61847 12.7199 3.88991 12.6531 4.1483 12.5501C4.23861 12.5219 4.32149 12.4739 4.39087 12.4096C4.46026 12.3453 4.51441 12.2663 4.54936 12.1784C4.58431 12.0905 4.59918 11.9959 4.59288 11.9015C4.58658 11.8071 4.55928 11.7153 4.51296 11.6328C3.9397 10.6087 3.63877 9.45469 3.63896 8.28105ZM17.361 8.28105C17.3619 7.47811 17.2214 6.68126 16.946 5.92702C16.9142 5.83993 16.9019 5.74693 16.9098 5.65455C16.9178 5.56217 16.9459 5.47266 16.9921 5.3923C17.0384 5.31194 17.1017 5.24268 17.1776 5.18939C17.2534 5.1361 17.3401 5.10008 17.4314 5.08384C17.5682 5.05907 17.7065 5.04351 17.8454 5.03727C18.0175 5.03013 18.1898 5.03768 18.3606 5.05984C18.7953 5.71573 19.0387 6.47978 19.0634 7.26628C19.0766 7.62552 19.0686 7.96974 19.0609 8.30265C19.0528 8.65622 19.0443 9.02181 19.0594 9.43161C19.1098 10.7849 18.5484 12.0087 17.6586 12.7483C17.3818 12.7198 17.1104 12.6531 16.852 12.55C16.7616 12.5219 16.6788 12.4739 16.6094 12.4096C16.54 12.3453 16.4858 12.2663 16.4509 12.1784C16.4159 12.0905 16.4011 11.9959 16.4074 11.9015C16.4137 11.8071 16.441 11.7153 16.4873 11.6328C17.0604 10.6087 17.3612 9.45464 17.361 8.28105Z" fill="#0D647F"/>
<path d="M8.38399 8.91665C8.21555 8.91681 8.05395 8.85006 7.93474 8.73107C7.81552 8.61208 7.74845 8.45061 7.74829 8.28218C7.74813 8.11375 7.81488 7.95215 7.93387 7.83293C8.05285 7.71371 8.21432 7.64665 8.38276 7.64648H8.38399C8.55242 7.64648 8.71396 7.71339 8.83306 7.8325C8.95216 7.9516 9.01907 8.11313 9.01907 8.28157C9.01907 8.45 8.95216 8.61154 8.83306 8.73064C8.71396 8.84974 8.55242 8.91665 8.38399 8.91665ZM10.4998 8.91661C10.4789 8.91668 10.458 8.91568 10.4372 8.9136C10.4166 8.91157 10.3961 8.90847 10.3758 8.90433C10.3554 8.90009 10.3351 8.89501 10.3152 8.88909C10.2954 8.88304 10.2759 8.87597 10.2568 8.86792C10.2376 8.8602 10.2188 8.85144 10.2005 8.84166C10.1823 8.83193 10.1645 8.82092 10.1471 8.80945C10.1299 8.79803 10.1132 8.78575 10.0972 8.77265C10.0811 8.75953 10.0654 8.74509 10.0506 8.73074C10.0358 8.71639 10.0218 8.70021 10.0087 8.68417C9.99557 8.66815 9.98328 8.65148 9.97186 8.63421C9.96043 8.61685 9.94942 8.59906 9.93968 8.58086C9.92994 8.56265 9.92148 8.5436 9.91343 8.52455C9.90538 8.50545 9.89831 8.48595 9.89226 8.46612C9.88634 8.44618 9.88125 8.42586 9.87702 8.40553C9.87279 8.38521 9.86982 8.36451 9.86771 8.34418C9.86566 8.32336 9.86467 8.30245 9.86474 8.28152C9.86467 8.26074 9.86566 8.23997 9.86771 8.21929C9.86982 8.19854 9.87321 8.17779 9.87702 8.15747C9.88083 8.13715 9.88634 8.11683 9.89226 8.09735C9.89823 8.07736 9.9053 8.05771 9.91343 8.0385C9.92148 8.01945 9.93037 8.00082 9.93968 7.98261C9.9495 7.96416 9.96024 7.94621 9.97186 7.92884C9.98329 7.91191 9.99557 7.89497 10.0087 7.87888C10.0218 7.86279 10.0362 7.84713 10.0506 7.83231C10.065 7.81749 10.0811 7.80394 10.0972 7.79044C10.1133 7.77773 10.1298 7.76503 10.1471 7.7536C10.1645 7.74217 10.1823 7.73159 10.2005 7.72185C10.2187 7.71211 10.2377 7.70322 10.2568 7.69517C10.2759 7.68726 10.2954 7.68032 10.3152 7.67439C10.355 7.66235 10.3958 7.65414 10.4372 7.64987C10.4787 7.64564 10.5205 7.64564 10.5621 7.64987C10.5828 7.65168 10.6035 7.65479 10.6239 7.65919C10.6442 7.66295 10.6643 7.66803 10.684 7.67439C10.704 7.68032 10.7236 7.68726 10.7428 7.69517C10.7619 7.70322 10.7805 7.71211 10.7987 7.72185C10.817 7.73152 10.8349 7.74212 10.8521 7.7536C10.8694 7.76503 10.8864 7.77773 10.9025 7.79044C10.9186 7.80394 10.9342 7.81796 10.9486 7.83231C10.963 7.84666 10.9774 7.86284 10.991 7.87888C11.0037 7.89497 11.0164 7.91191 11.0278 7.92884C11.0393 7.94622 11.0499 7.96417 11.0595 7.98261C11.0693 8.00082 11.0782 8.01945 11.0862 8.0385C11.0943 8.05755 11.101 8.07741 11.1074 8.09735C11.1137 8.11729 11.1184 8.13715 11.1226 8.15747C11.1269 8.17779 11.1298 8.19854 11.1319 8.21929C11.1341 8.24003 11.1349 8.26078 11.1349 8.28152C11.1349 8.30227 11.1336 8.32344 11.1319 8.34418C11.1302 8.36493 11.1264 8.38521 11.1226 8.40553C11.1188 8.42586 11.1133 8.44618 11.1074 8.46612C11.1015 8.48606 11.0943 8.5055 11.0862 8.52455C11.0782 8.5436 11.0693 8.56265 11.0595 8.58086C11.0498 8.59906 11.0392 8.61685 11.0278 8.63421C11.0164 8.65156 11.0037 8.66808 10.991 8.68417C10.9774 8.70021 10.9634 8.71592 10.9486 8.73074C10.9338 8.74556 10.9186 8.75953 10.9025 8.77265C10.8863 8.78575 10.8695 8.79803 10.8521 8.80945C10.8349 8.8211 10.8171 8.83185 10.7987 8.84166C10.7806 8.85144 10.7619 8.8602 10.7428 8.86792C10.7236 8.87597 10.704 8.88304 10.684 8.88909C10.6645 8.89501 10.6442 8.90009 10.6239 8.90433C10.6034 8.9085 10.5828 8.9116 10.5621 8.9136C10.5414 8.91568 10.5206 8.91668 10.4998 8.91661Z" fill="#E6E9F2"/>
<path d="M11.1227 8.15747C11.1185 8.13715 11.1134 8.11683 11.1075 8.09735C11.1016 8.07787 11.0944 8.05755 11.0863 8.0385C11.0783 8.01945 11.0694 8.00082 11.0596 7.98261C11.05 7.96417 11.0394 7.94622 11.0279 7.92884C11.0165 7.91191 11.0038 7.89497 10.9911 7.87888C10.9775 7.86279 10.9635 7.84713 10.9487 7.83231C10.9339 7.81749 10.9187 7.80398 10.9026 7.79044C10.8865 7.77773 10.8695 7.76503 10.8522 7.7536C10.8349 7.74212 10.8171 7.73152 10.7988 7.72185C10.7806 7.71211 10.762 7.70322 10.7429 7.69517C10.7237 7.68726 10.704 7.68032 10.6841 7.67439C10.6644 7.66803 10.6443 7.66295 10.624 7.65919C10.6036 7.65479 10.5829 7.65168 10.5622 7.64987C10.5415 7.64775 10.5207 7.64669 10.4999 7.6467V8.91665C10.5207 8.91672 10.5414 8.91572 10.5621 8.91364C10.5829 8.91164 10.6035 8.90855 10.6239 8.90437C10.6443 8.90014 10.6646 8.89505 10.6841 8.88913C10.704 8.88308 10.7237 8.87601 10.7429 8.86796C10.762 8.86024 10.7807 8.85148 10.7988 8.84171C10.8171 8.83189 10.8349 8.82115 10.8521 8.80953C10.8695 8.79806 10.8864 8.78578 10.9025 8.7727C10.9186 8.75961 10.9343 8.74513 10.9487 8.73078C10.9631 8.71643 10.9775 8.70025 10.991 8.68421C11.0037 8.66812 11.0164 8.65161 11.0278 8.63425C11.0393 8.61689 11.0499 8.59911 11.0596 8.5809C11.0693 8.5627 11.0782 8.54364 11.0863 8.52459C11.0943 8.50554 11.1011 8.48564 11.1074 8.46616C11.1138 8.44669 11.1184 8.4259 11.1227 8.40558C11.1269 8.38525 11.1299 8.36455 11.132 8.34423C11.1341 8.32391 11.135 8.30231 11.135 8.28157C11.135 8.26082 11.1337 8.24007 11.132 8.21933C11.1303 8.19858 11.1265 8.17779 11.1227 8.15747ZM12.6168 8.91665C12.4484 8.91681 12.2868 8.85005 12.1676 8.73106C12.0484 8.61207 11.9813 8.45059 11.9811 8.28216C11.981 8.11372 12.0477 7.95213 12.1667 7.83291C12.2857 7.7137 12.4472 7.64664 12.6156 7.64648H12.6168C12.7853 7.64648 12.9468 7.71339 13.0659 7.8325C13.185 7.9516 13.2519 8.11313 13.2519 8.28157C13.2519 8.45 13.185 8.61154 13.0659 8.73064C12.9468 8.84974 12.7853 8.91665 12.6168 8.91665Z" fill="#CFD7E6"/>
<path d="M10.5635 17.4431C11.5097 17.2188 12.0949 16.2698 11.8705 15.3236C11.6462 14.3774 10.6972 13.7922 9.751 14.0166C8.80478 14.241 8.21961 15.1899 8.44398 16.1361C8.66836 17.0823 9.61731 17.6675 10.5635 17.4431Z" fill="#176F93"/>
<path d="M10.1555 13.9761V17.4977C10.6225 17.4977 11.0704 17.3122 11.4006 16.982C11.7308 16.6518 11.9163 16.2039 11.9163 15.7369C11.9163 15.2699 11.7308 14.822 11.4006 14.4918C11.0704 14.1616 10.6225 13.9761 10.1555 13.9761Z" fill="#0D647F"/>
<path d="M16.8515 12.5509C16.768 12.5249 16.6907 12.4819 16.6246 12.4246C16.5585 12.3673 16.505 12.297 16.4673 12.218C16.4297 12.1391 16.4087 12.0532 16.4058 11.9658C16.4029 11.8783 16.4181 11.7912 16.4504 11.71C15.9571 12.5696 15.2825 13.3115 14.4735 13.8841C13.6645 14.4567 12.7405 14.8464 11.7657 15.0259C11.9449 15.43 11.9649 15.8868 11.8218 16.305C12.9404 16.12 14.0081 15.7035 14.9564 15.0821C15.9048 14.4607 16.7129 13.6481 17.3291 12.6963C17.1662 12.661 17.0064 12.6124 16.8515 12.5509Z" fill="#1794C6"/>
</svg>
