<svg width="13" height="12" viewBox="0 0 13 12" fill="none" xmlns="http://www.w3.org/2000/svg">
<path d="M0.818115 3.06393V3.09576C0.818115 3.10258 0.820413 3.11168 0.82271 3.1185V3.12532L0.829602 3.1526C0.831899 3.15715 0.831899 3.15942 0.834197 3.16397C0.836494 3.16852 0.838791 3.17534 0.841089 3.18216C0.843386 3.18898 0.843386 3.18898 0.845683 3.19353C0.847981 3.20035 0.850278 3.20717 0.854873 3.21172L0.859467 3.22081C0.864062 3.22991 0.868657 3.23673 0.873252 3.24582C0.875549 3.2481 0.877846 3.25037 0.880144 3.25492C0.882441 3.25946 0.889333 3.26629 0.893928 3.27311C0.898522 3.27993 0.898522 3.27765 0.90082 3.27993C0.907712 3.28675 0.914604 3.29584 0.921496 3.30266L2.93857 5.29894C3.07181 5.43536 3.29236 5.43764 3.4302 5.30576C3.56804 5.17389 3.57034 4.95562 3.43709 4.8192L3.4302 4.81238L2.00584 3.40271H9.26316C10.7128 3.40498 11.889 4.56682 11.889 6.00151C11.889 6.19249 12.0452 6.34483 12.2359 6.34483C12.4266 6.34483 12.5828 6.19022 12.5828 6.00151C12.5828 4.18939 11.0918 2.71378 9.26086 2.71378H2.00584L3.33141 1.40188C3.46466 1.26546 3.46236 1.04719 3.32452 0.915314C3.18898 0.785715 2.97532 0.785715 2.83978 0.915314L0.919198 2.81383L0.916901 2.8161C0.910009 2.82292 0.903117 2.83202 0.896225 2.83884L0.893928 2.84338C0.889333 2.8502 0.882441 2.85703 0.877846 2.86385C0.875549 2.86612 0.873252 2.87067 0.870954 2.87294C0.866359 2.87749 0.864062 2.88431 0.861765 2.89113L0.85717 2.90023C0.852575 2.90932 0.847981 2.91614 0.845683 2.92524L0.841089 2.9366C0.838791 2.94342 0.836494 2.94797 0.834197 2.95479C0.831899 2.96161 0.831899 2.96161 0.831899 2.96616C0.831899 2.97071 0.829602 2.9798 0.827305 2.98435C0.825007 2.9889 0.825007 2.99117 0.825007 2.99345C0.82271 3.00254 0.82271 3.01163 0.820413 3.023C0.818115 3.03437 0.818115 3.04347 0.818115 3.05483V3.06393ZM12.5644 9.83036C12.5667 9.82581 12.5667 9.82127 12.5667 9.81899C12.5667 9.81672 12.569 9.80762 12.5713 9.8008C12.5736 9.79398 12.5736 9.79398 12.5736 9.78943C12.5759 9.78034 12.5759 9.77124 12.5782 9.76215C12.5782 9.75305 12.5805 9.74169 12.5805 9.73259V9.69394C12.5805 9.68712 12.5782 9.67802 12.5782 9.6712V9.66438L12.5713 9.6371L12.5667 9.62573C12.5644 9.62118 12.5621 9.61436 12.5598 9.60754C12.5576 9.60072 12.5576 9.59845 12.5553 9.59617C12.553 9.5939 12.5507 9.5848 12.5461 9.57798L12.5415 9.56889C12.5369 9.55979 12.5323 9.55297 12.5277 9.54615C12.5254 9.54388 12.5231 9.53933 12.5208 9.53706C12.5162 9.53251 12.5116 9.52569 12.5093 9.51887L12.5024 9.50977C12.4955 9.50068 12.4886 9.49386 12.4817 9.48704L10.4647 7.49076C10.3314 7.35206 10.1132 7.34752 9.97304 7.47939C9.8329 7.61126 9.8283 7.82726 9.96155 7.96595L9.97304 7.97732L11.3974 9.38699H4.14008C2.69045 9.38472 1.51421 8.2206 1.51421 6.78592C1.51421 6.59493 1.35799 6.4426 1.16731 6.4426C0.976632 6.4426 0.818115 6.59493 0.818115 6.78365C0.818115 8.59576 2.30909 10.0714 4.14008 10.0714H11.3951L10.0695 11.3833C9.93628 11.522 9.94317 11.738 10.081 11.8698C10.2143 11.9949 10.4256 11.9949 10.5589 11.8698L12.4771 9.97133C12.4771 9.97133 12.4771 9.96905 12.4794 9.96905C12.4863 9.96223 12.4932 9.95314 12.5001 9.94632L12.5024 9.94177L12.5162 9.92131C12.5185 9.91903 12.5208 9.91448 12.5231 9.91221C12.5254 9.90994 12.53 9.90084 12.5323 9.8963C12.5346 9.89175 12.5369 9.88947 12.5369 9.88493C12.5415 9.87583 12.5461 9.86901 12.5484 9.85992C12.5507 9.85764 12.5507 9.8531 12.553 9.84855C12.5553 9.844 12.5621 9.83718 12.5644 9.83036Z" fill="#00A1F3"/>
</svg>
