<svg width="16" height="20" viewBox="0 0 16 20" fill="none" xmlns="http://www.w3.org/2000/svg">
<path d="M11.9612 5.24328C11.9612 6.45799 11.5256 7.50946 10.6663 8.36897C9.80689 9.22834 8.75528 9.66395 7.54056 9.66395H7.53845C6.32523 9.66352 5.27434 9.22791 4.41497 8.36897C3.5555 7.50946 3.12 6.45799 3.12 5.24328C3.12 4.02895 3.5555 2.97734 4.41497 2.11798C5.27391 1.2589 6.32484 0.823428 7.53845 0.822998H7.54056C8.75488 0.822998 9.80646 1.25861 10.6663 2.11798C11.5256 2.97734 11.9612 4.02895 11.9612 5.24328Z" fill="#FFBB85"/>
<path d="M15.3128 16.0202C15.3128 16.9786 15.0079 17.7545 14.4075 18.3259C13.8141 18.8907 13.0292 19.1767 12.0749 19.1767H3.23747C2.28314 19.1767 1.4983 18.8907 0.905249 18.326C0.304486 17.754 0 16.9783 0 16.0203C0 15.6517 0.012188 15.287 0.0365641 14.9364C0.0612987 14.578 0.111485 14.1878 0.185402 13.7763C0.259892 13.3614 0.355676 12.9692 0.470387 12.6107C0.589399 12.2396 0.750425 11.8736 0.949663 11.5229C1.15664 11.159 1.39972 10.842 1.6722 10.581C1.9579 10.3078 2.30709 10.0884 2.7108 9.92847C3.11311 9.76938 3.55909 9.68872 4.03632 9.68872C4.22351 9.68872 4.40483 9.76533 4.75434 9.99303C5.00328 10.1551 5.25295 10.3161 5.50336 10.476C5.74368 10.6292 6.0691 10.7728 6.47138 10.9026C6.82498 11.017 7.18384 11.0809 7.53841 11.0919C7.57748 11.0934 7.61656 11.0941 7.65563 11.0941C8.04937 11.0941 8.4476 11.0295 8.84023 10.9026C9.24255 10.7728 9.5684 10.6291 9.80854 10.476C10.0589 10.3163 10.3084 10.1554 10.5573 9.99346C10.9071 9.76533 11.0881 9.68876 11.2758 9.68876C11.7525 9.68876 12.1985 9.76941 12.6011 9.92847C13.0048 10.0883 13.354 10.3082 13.6394 10.581C13.9124 10.842 14.1554 11.159 14.3622 11.5229C14.5617 11.8739 14.723 12.2396 14.8416 12.6103C14.9564 12.9692 15.0524 13.3614 15.1269 13.7766C15.2005 14.1885 15.2507 14.5786 15.2754 14.9361C15.3001 15.2856 15.3123 15.6503 15.3128 16.0202Z" fill="#6AA9FF"/>
<path d="M7.54057 9.66395H7.53845V0.822998H7.54057C8.75489 0.822998 9.80647 1.25861 10.6663 2.11798C11.5256 2.97734 11.9612 4.02895 11.9612 5.24328C11.9612 6.45799 11.5256 7.50946 10.6663 8.36897C9.8069 9.22834 8.75528 9.66395 7.54057 9.66395Z" fill="#F5A86C"/>
<path d="M15.3128 16.0202C15.3128 16.9786 15.008 17.7545 14.4075 18.3259C13.8141 18.8907 13.0292 19.1767 12.0749 19.1767H7.53845V11.0919C7.57753 11.0933 7.6166 11.094 7.65567 11.094C8.04942 11.094 8.44764 11.0295 8.84028 10.9026C9.24259 10.7728 9.56844 10.6291 9.80858 10.4759C10.0589 10.3162 10.3085 10.1554 10.5573 9.99342C10.9071 9.76529 11.0881 9.68872 11.2758 9.68872C11.7526 9.68872 12.1986 9.76938 12.6011 9.92843C13.0049 10.0883 13.3541 10.3082 13.6395 10.581C13.9124 10.842 14.1555 11.159 14.3623 11.5229C14.5617 11.8739 14.723 12.2396 14.8416 12.6102C14.9565 12.9691 15.0525 13.3613 15.127 13.7765C15.2005 14.1885 15.2508 14.5786 15.2754 14.9361C15.3002 15.2856 15.3124 15.6502 15.3128 16.0202Z" fill="#2682FF"/>
</svg>
