<svg width="32" height="32" viewBox="0 0 32 32" fill="none" xmlns="http://www.w3.org/2000/svg">
<path d="M23.9746 0H8C3.60635 0 0 3.60635 0 8.0254V24C0 28.3937 3.60635 32 8 32H23.9746C28.3937 32 32 28.3937 32 23.9746V8.0254C32 3.60635 28.3937 0 23.9746 0ZM15.1365 6.57778C15.1873 5.79048 15.9238 6.06984 16.3048 6.01905C21.0794 6.17143 25.1937 10.4635 25.1429 15.0857C25.1429 15.5429 25.2952 16.2032 24.6095 16.2032C23.9492 16.2032 24.127 15.5175 24.0508 15.0603C23.4159 10.1587 21.1302 7.84762 16.1524 7.08571C15.746 7.03492 15.1111 7.11111 15.1365 6.57778ZM22.273 15.2889C21.5111 15.3905 21.6635 14.7302 21.5873 14.2984C21.0794 11.3016 20.0127 10.2095 16.9397 9.54921C16.4825 9.44762 15.7714 9.52381 15.8984 8.8381C16 8.17778 16.6349 8.40635 17.1175 8.45714C20.1905 8.8127 22.7048 11.4286 22.6794 14.2984C22.6286 14.6032 22.8317 15.1873 22.273 15.2889ZM20.3683 13.7143C20.3683 14.1206 20.3175 14.5016 19.8603 14.5524C19.5302 14.6032 19.327 14.3238 19.2762 13.9937C19.1492 12.7746 18.4889 12.0381 17.219 11.8349C16.8381 11.7841 16.4825 11.6571 16.6603 11.1492C16.7873 10.819 17.0921 10.7683 17.4222 10.7683C18.7937 10.7429 20.3683 12.3429 20.3683 13.7143ZM25.1937 23.0857C24.6603 24.5333 22.8571 26.0064 21.3079 25.981C21.0794 25.9302 20.6476 25.854 20.2667 25.7016C13.4603 22.8317 8.50794 18.1079 5.71429 11.3524C4.7746 9.09206 5.76508 7.16191 8.12698 6.4C8.55873 6.24762 8.96508 6.24762 9.39683 6.4C10.4127 6.75556 12.9778 10.2349 13.0286 11.2508C13.0794 12.0381 12.5206 12.4698 11.9873 12.8254C10.946 13.5111 10.946 14.3746 11.4032 15.3651C12.3937 17.5492 14.0952 19.073 16.3048 20.0381C17.0921 20.3937 17.8794 20.3683 18.4127 19.5556C19.3778 18.1079 20.5714 18.1841 21.8667 19.073C22.527 19.5302 23.1873 19.9619 23.7968 20.4444C24.6349 21.1302 25.7016 21.6889 25.1937 23.0857Z" fill="#5D80D3"/>
</svg>
